<svg id="Layer_1" data-name="Layer 1" xmlns="http://www.w3.org/2000/svg" viewBox="0 0 612 305.21"><defs><style>.cls-1{fill:#231f20;}</style></defs><title>icon-sun-strip</title><path class="cls-1" d="M539,0H73L0,268.32l7.67,2C9,270.63,146,305.21,306,305.21s297-34.58,298.33-34.93l7.67-2ZM430.49,22.41a1.81,1.81,0,0,1,1.87-1.87h25.09a3.2,3.2,0,0,1,2.35,1l5.18,5.1A3.54,3.54,0,0,1,466,29V53.41a3.58,3.58,0,0,1-1,2.35l-5.18,5.1a3.23,3.23,0,0,1-2.35,1H443.2a.79.79,0,0,0-.64.28,1,1,0,0,0-.25.69V77.69a1.77,1.77,0,0,1-.56,1.34,1.86,1.86,0,0,1-1.3.53h-8.09a1.81,1.81,0,0,1-1.87-1.87Zm-18.29,0a1.82,1.82,0,0,1,.53-1.34,1.8,1.8,0,0,1,1.33-.53h8.1a1.84,1.84,0,0,1,1.29.53,1.75,1.75,0,0,1,.57,1.34V77.69a1.75,1.75,0,0,1-.57,1.34,1.84,1.84,0,0,1-1.29.53h-8.1a1.8,1.8,0,0,1-1.33-.53,1.82,1.82,0,0,1-.53-1.34Zm-42.25,0a1.8,1.8,0,0,1,1.86-1.87H396.9a3.2,3.2,0,0,1,2.35,1l5.18,5.1a3.54,3.54,0,0,1,1,2.34V48.63a3.19,3.19,0,0,1-1,2.35l-5,5a.64.64,0,0,0-.16.73l7.93,20.88a1.45,1.45,0,0,1,.09.57,1.32,1.32,0,0,1-.41,1,1.34,1.34,0,0,1-1,.41h-8.42a1.52,1.52,0,0,1-1.54-1.06L388.08,58a1.41,1.41,0,0,0-1.38-.89h-4a.94.94,0,0,0-.69.29.91.91,0,0,0-.28.68V77.69A1.75,1.75,0,0,1,381.2,79a1.86,1.86,0,0,1-1.3.53h-8.09A1.8,1.8,0,0,1,370,77.69Zm-39.59,0a1.81,1.81,0,0,1,1.87-1.87h29.3a1.81,1.81,0,0,1,1.86,1.87v6.88a1.76,1.76,0,0,1-.53,1.33,1.8,1.8,0,0,1-1.33.53h-7.77a1,1,0,0,0-1,1V77.69a1.81,1.81,0,0,1-1.87,1.87h-8a2,2,0,0,1-1.38-.53,1.77,1.77,0,0,1-.56-1.34V32.12a1,1,0,0,0-.24-.69.82.82,0,0,0-.65-.28h-7.85a1.82,1.82,0,0,1-1.34-.53,1.8,1.8,0,0,1-.53-1.33Zm-40.71,37.8a1.3,1.3,0,0,1,.57-1.13,1.53,1.53,0,0,1,1.29-.25l8.74,2.67a1.27,1.27,0,0,1,.89.53,1.67,1.67,0,0,1,.33,1v3.64a1.06,1.06,0,0,0,.32.81l1,1.06a1.24,1.24,0,0,0,.89.4h6.07a.86.86,0,0,0,.81-.4l1.14-1.06a1.1,1.1,0,0,0,.32-.81V60.53a1.28,1.28,0,0,0-.65-1.13L291.19,46.61a3.26,3.26,0,0,1-1.54-2.83V29a3.17,3.17,0,0,1,1-2.34l5.1-5.1a3.2,3.2,0,0,1,2.35-1h17.32a3,3,0,0,1,2.35,1l5.18,5.1a3.17,3.17,0,0,1,1,2.34V39.89a1.29,1.29,0,0,1-.57,1.13,1.54,1.54,0,0,1-1.29.25l-8.74-2.67a1.64,1.64,0,0,1-.9-.61,1.73,1.73,0,0,1-.32-1V33.42a1,1,0,0,0-.32-.81l-1.14-1.14a1.1,1.1,0,0,0-.81-.32h-6.07a1.7,1.7,0,0,0-.89.32l-1,1.14a.93.93,0,0,0-.32.81v4.93a1.47,1.47,0,0,0,.64,1.22l20.24,12.71a3.25,3.25,0,0,1,1.54,2.83v16a2.92,2.92,0,0,1-1,2.26l-5.1,5.18a3.2,3.2,0,0,1-2.35,1H298.15a2.88,2.88,0,0,1-2.35-1l-5.18-5.18a2.92,2.92,0,0,1-1-2.26ZM228.7,22.41a1.8,1.8,0,0,1,1.86-1.87h9.63a1.67,1.67,0,0,1,.93.29,1.41,1.41,0,0,1,.61.77l11.33,28.33a.2.2,0,0,0,.25.12.19.19,0,0,0,.16-.2V22.41a1.77,1.77,0,0,1,.56-1.34,2,2,0,0,1,1.38-.53h8a1.81,1.81,0,0,1,1.87,1.87V77.69a1.81,1.81,0,0,1-1.87,1.87h-9.63a1.73,1.73,0,0,1-1.54-1.06L240.92,50.17a.19.19,0,0,0-.24-.12.19.19,0,0,0-.16.2V77.69a1.81,1.81,0,0,1-1.87,1.87h-8.09a1.8,1.8,0,0,1-1.86-1.87Zm-41.93,0a1.8,1.8,0,0,1,1.86-1.87h8a2,2,0,0,1,1.38.53,1.75,1.75,0,0,1,.57,1.34V66.68a1.06,1.06,0,0,0,.32.81L200,68.63a1.7,1.7,0,0,0,.89.32h7.29a1.66,1.66,0,0,0,.81-.32L210,67.49a1.14,1.14,0,0,0,.4-.81V22.41a1.81,1.81,0,0,1,1.87-1.87h8a1.81,1.81,0,0,1,1.86,1.87V71.14a3.08,3.08,0,0,1-.89,2.26l-5.18,5.18a3.2,3.2,0,0,1-2.35,1H195.19a3.2,3.2,0,0,1-2.35-1l-5.1-5.18a2.92,2.92,0,0,1-1-2.26Zm-40.72,37.8a1.3,1.3,0,0,1,.57-1.13,1.53,1.53,0,0,1,1.29-.25l8.75,2.67a1.32,1.32,0,0,1,.89.53,1.73,1.73,0,0,1,.32,1v3.64a1.1,1.1,0,0,0,.32.81l1.06,1.06a1.22,1.22,0,0,0,.89.4h6.07a.88.88,0,0,0,.81-.4l1.13-1.06a1.1,1.1,0,0,0,.32-.81V60.53a1.27,1.27,0,0,0-.64-1.13L147.59,46.61a3.26,3.26,0,0,1-1.54-2.83V29a3.17,3.17,0,0,1,1-2.34l5.1-5.1a3.2,3.2,0,0,1,2.35-1h17.32a3,3,0,0,1,2.35,1l5.18,5.1a3.17,3.17,0,0,1,1,2.34V39.89a1.29,1.29,0,0,1-.57,1.13,1.53,1.53,0,0,1-1.29.25l-8.74-2.67a1.58,1.58,0,0,1-.89-.61,1.67,1.67,0,0,1-.33-1V33.42a1,1,0,0,0-.32-.81L167,31.47a1.13,1.13,0,0,0-.81-.32h-6.07a1.64,1.64,0,0,0-.89.32l-1.06,1.14a1,1,0,0,0-.32.81v4.93a1.46,1.46,0,0,0,.65,1.22l20.23,12.71a3.25,3.25,0,0,1,1.54,2.83v16a2.92,2.92,0,0,1-1,2.26l-5.1,5.18a3.2,3.2,0,0,1-2.35,1H154.55a2.88,2.88,0,0,1-2.35-1L147,73.4a2.92,2.92,0,0,1-1-2.26ZM491.48,275.63,451.88,255H501.3V239.37H333.35V255h84.78l46.54,24.27A1286.68,1286.68,0,0,1,306,289.6q-6.84,0-13.61-.08l.76-1.45L229.38,255h49.27V239.37H110.7V255h84.79l65,33.71C143.64,284.08,46.61,263.35,19.25,257L62.07,99.64H549.93L592.75,257C577.58,260.53,541,268.47,491.48,275.63Z"/><path class="cls-1" d="M443.2,51.22h8.66a1.51,1.51,0,0,0,.81-.32l1.06-1.13a.87.87,0,0,0,.4-.81V33.42a.86.86,0,0,0-.4-.81l-1.06-1.14a1.59,1.59,0,0,0-.81-.32H443.2a.79.79,0,0,0-.64.28,1,1,0,0,0-.25.69V50.25a1,1,0,0,0,.25.69A.79.79,0,0,0,443.2,51.22Z"/><path class="cls-1" d="M382.74,46.53h8.58a1.17,1.17,0,0,0,.81-.41l1.05-1a1.16,1.16,0,0,0,.4-.81V33.42a.86.86,0,0,0-.4-.81l-1.05-1.14a1.66,1.66,0,0,0-.81-.32h-8.58a1,1,0,0,0-1,1V45.56a.9.9,0,0,0,.28.68A.91.91,0,0,0,382.74,46.53Z"/></svg>