<svg id="Layer_1" data-name="Layer 1" xmlns="http://www.w3.org/2000/svg" viewBox="0 0 612 305.21"><defs><style>.cls-1{fill:#231f20;}</style></defs><title>icon-banner</title><path class="cls-1" d="M193.93,152.44a4,4,0,0,0-2.89-1.19H160.17a2.19,2.19,0,0,0-2.29,2.29v68a2.21,2.21,0,0,0,2.29,2.29H191a3.93,3.93,0,0,0,2.89-1.2l6.27-6.27a4,4,0,0,0,1.29-2.89V192.87A4.4,4.4,0,0,0,200.3,190L198,187.79c-.14-.2-.14-.36,0-.5l2.29-2.19a4.36,4.36,0,0,0,1.19-2.88V161.6a4,4,0,0,0-1.29-2.88ZM187,208a1.42,1.42,0,0,1-.49,1l-1.3,1.4a2,2,0,0,1-1,.39H173.51a1,1,0,0,1-.79-.34,1.26,1.26,0,0,1-.3-.85V195.26a1.24,1.24,0,0,1,.3-.84,1,1,0,0,1,.79-.35h10.66a2,2,0,0,1,1,.39l1.3,1.4a1.06,1.06,0,0,1,.49,1Zm0-29.78a1.42,1.42,0,0,1-.49,1l-1.3,1.39a1.91,1.91,0,0,1-1,.4H173.51a1,1,0,0,1-.79-.35,1.24,1.24,0,0,1-.3-.84V165.49a1.26,1.26,0,0,1,.3-.85,1,1,0,0,1,.79-.35h10.66a2,2,0,0,1,1,.4l1.3,1.39a1.08,1.08,0,0,1,.49,1Z"/><path class="cls-1" d="M239.83,151.84a2.56,2.56,0,0,0-1.69-.59H222.3a2.62,2.62,0,0,0-1.64.59,2.57,2.57,0,0,0-.94,1.5l-14.24,68.41a1.53,1.53,0,0,0,.34,1.44,1.79,1.79,0,0,0,1.45.65h10.35a1.92,1.92,0,0,0,1.25-.45,2.33,2.33,0,0,0,.75-1.24l2.78-14.34a1.65,1.65,0,0,1,1.7-1.4h12.25a1.68,1.68,0,0,1,1.14.4,2.35,2.35,0,0,1,.65,1l2.69,14.34a2.26,2.26,0,0,0,.74,1.24,1.92,1.92,0,0,0,1.25.45h10.35a1.71,1.71,0,0,0,1.8-1.79v-.3l-14.24-68.41A2.77,2.77,0,0,0,239.83,151.84Zm-5.28,41.23a1,1,0,0,1-.69.3h-7.27a.86.86,0,0,1-.9-.9v-.2L230,171.66c0-.2.08-.3.25-.3s.28.1.35.3l4.18,20.61A.82.82,0,0,1,234.55,193.07Z"/><path class="cls-1" d="M301.67,151.25h-9.86a2.39,2.39,0,0,0-1.69.64,2.16,2.16,0,0,0-.7,1.65v33.75a.26.26,0,0,1-.5.1L275,152.54a1.7,1.7,0,0,0-.75-.94,2,2,0,0,0-1.14-.35H261.24a2.21,2.21,0,0,0-2.29,2.29v68a2.22,2.22,0,0,0,2.29,2.29h10a2.19,2.19,0,0,0,1.64-.65,2.23,2.23,0,0,0,.65-1.64V187.79a.26.26,0,0,1,.49-.1l13.95,34.86a2.1,2.1,0,0,0,1.89,1.29h11.85a2.19,2.19,0,0,0,1.64-.65,2.23,2.23,0,0,0,.65-1.64v-68a2.27,2.27,0,0,0-.65-1.65A2.22,2.22,0,0,0,301.67,151.25Z"/><path class="cls-1" d="M354.74,151.25h-9.86a2.41,2.41,0,0,0-1.69.64,2.2,2.2,0,0,0-.7,1.65v33.75a.23.23,0,0,1-.19.25.23.23,0,0,1-.3-.15l-13.95-34.85a1.72,1.72,0,0,0-.74-.94,2.06,2.06,0,0,0-1.15-.35H314.31a2.22,2.22,0,0,0-1.64.64,2.27,2.27,0,0,0-.65,1.65v68a2.23,2.23,0,0,0,.65,1.64,2.19,2.19,0,0,0,1.64.65h10a2.19,2.19,0,0,0,1.64-.65,2.23,2.23,0,0,0,.65-1.64V187.79a.25.25,0,0,1,.2-.25.25.25,0,0,1,.3.15L341,222.55a2.11,2.11,0,0,0,1.89,1.29h11.85a2.21,2.21,0,0,0,2.29-2.29v-68a2.19,2.19,0,0,0-2.29-2.29Z"/><path class="cls-1" d="M399.75,151.25H367.39a2.3,2.3,0,0,0-1.6.64,2.19,2.19,0,0,0-.69,1.65v68a2.15,2.15,0,0,0,.69,1.64,2.26,2.26,0,0,0,1.6.65h32.36a2.36,2.36,0,0,0,1.69-.65,2.13,2.13,0,0,0,.7-1.64v-8.46a2.15,2.15,0,0,0-.7-1.65,2.4,2.4,0,0,0-1.69-.65H380.83a1.18,1.18,0,0,1-.85-.34,1.16,1.16,0,0,1-.34-.85V195.26a1.18,1.18,0,0,1,1.19-1.19h12.45a2.22,2.22,0,0,0,2.29-2.29v-8.47a2.22,2.22,0,0,0-2.29-2.29H380.83a1.18,1.18,0,0,1-1.19-1.19V165.49a1.16,1.16,0,0,1,.34-.85,1.19,1.19,0,0,1,.85-.35h18.92a2.39,2.39,0,0,0,1.69-.64,2.15,2.15,0,0,0,.7-1.65v-8.46a2.16,2.16,0,0,0-.7-1.65A2.39,2.39,0,0,0,399.75,151.25Z"/><path class="cls-1" d="M446.15,195.76a.79.79,0,0,1,.2-.9l6.18-6.17a4,4,0,0,0,1.19-2.89V161.6a4.43,4.43,0,0,0-1.19-2.88l-6.38-6.28a3.94,3.94,0,0,0-2.88-1.19H412.4a2.23,2.23,0,0,0-1.65.64,2.26,2.26,0,0,0-.64,1.65v68a2.22,2.22,0,0,0,.64,1.64,2.2,2.2,0,0,0,1.65.65h10a2.26,2.26,0,0,0,1.6-.65,2.15,2.15,0,0,0,.69-1.64v-24.1a1.18,1.18,0,0,1,1.2-1.19h4.88a1.72,1.72,0,0,1,1.69,1.09l9.66,25.2a1.86,1.86,0,0,0,1.89,1.29h10.36a1.71,1.71,0,0,0,1.69-1.69,1.66,1.66,0,0,0-.1-.7Zm-7-15.34a1.42,1.42,0,0,1-.49,1l-1.3,1.29a1.4,1.4,0,0,1-1,.5H425.84a1.2,1.2,0,0,1-1.2-1.19V165.49a1.17,1.17,0,0,1,.35-.85,1.19,1.19,0,0,1,.85-.35h10.55a2,2,0,0,1,1,.4l1.3,1.39a1.08,1.08,0,0,1,.49,1Z"/><path class="cls-1" d="M539,0H73L0,268.32l7.67,2C9,270.63,146,305.21,306,305.21s297-34.58,298.33-34.92l7.67-2ZM380.5,15.61,364,32.07H249L232.5,15.61ZM489.65,275.89,451.88,256.2H501.3V240.59h-168V256.2h84.79l44.65,23.28A1284.07,1284.07,0,0,1,306,289.6q-6.51,0-13-.07l.13-.25L229.38,256.2h49.27V240.59h-168V256.2h84.8l62.42,32.38C142.23,283.78,46.41,263.31,19.25,257L84.93,15.61h125.5L242.5,47.68h128l32.08-32.07h124.5L592.75,257C577.39,260.57,540.08,268.66,489.65,275.89Z"/></svg>