<svg width="256" height="256" viewBox="0 0 256 256"  xmlns="http://www.w3.org/2000/svg">
    <path d="M197.523 223.307C207.041 221.225 215.56 215.34 220.874 207.174C223.77 202.724 225.695 198.198 226.511 193.925L227.147 190.595L233.419 190.317C238.077 190.11 240.466 189.748 242.702 188.91C248.264 186.823 252.307 182.833 254.615 177.152L255.83 174.161L255.971 116.797C256.064 79.044 255.929 58.444 255.576 56.541C254.375 50.061 250.164 44.642 244.118 41.795L240.733 40.201L170.22 40.065C92.415 39.914 96.827 39.742 91.464 43.133C88.167 45.218 86.024 47.743 84.098 51.814C82.6 54.98 82.483 55.663 82.293 62.312L82.091 69.424L68.484 69.432C53.679 69.44 50.048 69.901 45.942 72.291C43.731 73.579 6.901 113.912 3.985 118.24C3.195 119.411 2.024 121.65 1.383 123.215C0.247 125.984 0.212 126.649 0.0510004 148.3C-0.13 172.676 0.0470006 174.8 2.676 179.722C5.852 185.669 11.302 189.117 19.16 190.152L23.641 190.742L23.998 193.587C24.852 200.373 28.498 207.355 34.093 212.913C41.888 220.658 51.738 224.451 62.687 223.924C78.512 223.164 91.945 212.539 96.735 196.993C97.336 195.043 97.827 192.774 97.827 191.95V190.453H152.326L153.162 194.67C154.716 202.503 159.687 210.656 165.9 215.563C170.003 218.803 177.411 222.288 182.273 223.266C187.065 224.229 193.23 224.246 197.523 223.307ZM183.466 201.395C180.078 199.8 177.155 196.951 175.317 193.451C173.537 190.061 173.618 183.873 175.489 180.368C177.331 176.915 180.208 174.254 183.915 172.572C186.565 171.37 187.455 171.219 190.683 171.427C196.735 171.817 201.353 174.886 204.037 180.302C210.525 193.396 196.664 207.608 183.466 201.395ZM53.486 201.357C50.488 199.936 47.693 197.297 46.156 194.433C45.213 192.676 44.991 191.428 44.991 187.867C44.992 184.111 45.202 183.045 46.436 180.543C48.167 177.034 51.13 174.247 55.003 172.486C57.445 171.375 58.393 171.222 61.573 171.429C74.938 172.296 81.568 187.478 72.877 197.313C71.023 199.41 68.472 201.121 65.611 202.184C62.825 203.219 56.508 202.788 53.486 201.357ZM27.025 128.904C26.453 128.335 25.984 127.313 25.984 126.632C25.984 125.736 30.335 120.597 41.732 108.03L57.481 90.666L68.283 90.648C78.405 90.631 79.151 90.695 80.127 91.665C81.127 92.659 81.168 93.389 81.168 110.373C81.168 126.093 81.073 128.152 80.306 128.993C79.494 129.885 77.982 129.939 53.756 129.939C28.761 129.939 28.038 129.911 27.025 128.904Z" />
</svg>
