<svg width="256" height="256" viewBox="0 0 256 256"  xmlns="http://www.w3.org/2000/svg">
<path fill-rule="evenodd" clip-rule="evenodd" d="M212.672 47.6716C214.234 46.1095 216.766 46.1095 218.328 47.6716L234.328 63.6716C235.891 65.2337 235.891 67.7663 234.328 69.3284L218.328 85.3284C216.766 86.8905 214.234 86.8905 212.672 85.3284C211.109 83.7663 211.109 81.2337 212.672 79.6716L221.843 70.5H179C176.791 70.5 175 68.7091 175 66.5C175 64.2909 176.791 62.5 179 62.5H221.843L212.672 53.3284C211.109 51.7663 211.109 49.2337 212.672 47.6716Z" />
<path fill-rule="evenodd" clip-rule="evenodd" d="M44.8284 47.1716C43.2663 45.6095 40.7337 45.6095 39.1716 47.1716L23.1716 63.1716C21.6095 64.7337 21.6095 67.2663 23.1716 68.8284L39.1716 84.8284C40.7337 86.3905 43.2663 86.3905 44.8284 84.8284C46.3905 83.2663 46.3905 80.7337 44.8284 79.1716L35.6569 70H78.5C80.7091 70 82.5 68.2091 82.5 66C82.5 63.7909 80.7091 62 78.5 62H35.6569L44.8284 52.8284C46.3905 51.2663 46.3905 48.7337 44.8284 47.1716Z" />
<path fill-rule="evenodd" clip-rule="evenodd" d="M126.176 63.6858C124.871 64.3586 123.568 65.6726 122.846 68.1979C119.671 79.3112 108.06 125.683 102.382 148.563C101.954 150.29 100.435 151.526 98.6569 151.596C96.8786 151.666 95.268 150.552 94.7052 148.864C94.3169 147.699 92.3092 140.43 89.1268 128.099C87.6648 122.433 82.2098 119.154 77.2538 118.907C74.7991 118.784 73.1614 119.451 72.381 120.204C71.8226 120.743 71.1226 121.869 71.8568 124.538C74.882 135.539 80.5523 154.91 84.0101 166.722C84.7309 169.184 85.3555 171.318 85.84 172.979C88.9195 183.537 98.299 191.645 107.136 194.264C120.564 198.242 123.888 199.192 135.658 201.153C140.693 201.993 148.574 200.955 155.917 197.169C163.159 193.435 169.52 187.219 172.154 178C176.401 163.136 177.606 157.921 179.398 150.167C180.125 147.02 180.949 143.455 182.113 138.657C182.676 136.331 182.319 134.863 181.817 133.961C181.295 133.027 180.374 132.267 179.074 131.814C176.562 130.938 173.545 131.485 171.68 133.091C171.55 133.656 171.421 134.219 171.293 134.776C170.828 136.807 170.38 138.761 169.966 140.474C169.383 142.881 168.789 145.146 168.214 146.585C167.433 148.536 165.276 149.55 163.276 148.907C161.275 148.264 160.113 146.182 160.616 144.142L164.5 145.099C160.616 144.142 160.616 144.142 160.616 144.142L160.618 144.134L160.725 143.702C160.794 143.42 160.895 143.013 161.019 142.512C161.267 141.51 161.609 140.133 161.985 138.629C162.726 135.667 163.606 132.179 164.152 130.132C164.301 129.487 164.453 128.836 164.606 128.183C165.234 125.515 164.183 122.932 162.137 121.503C160.423 120.305 157.482 119.6 153.421 121.367L152.268 125.872C150.81 131.957 149.152 138.244 148.359 141.152C147.781 143.271 145.602 144.528 143.478 143.966C141.354 143.405 140.08 141.236 140.625 139.108L144.503 123.949C144.89 122.331 145.261 120.735 145.595 119.231C145.659 118.943 145.736 118.684 145.82 118.452C144.801 115.178 142.791 112.942 140.794 112.092C139.095 111.368 136.61 111.311 133.567 114.152L130.612 125.803L130.607 125.82L130.506 126.229C129.53 130.151 128.626 133.781 127.864 136.632C127.296 138.757 125.12 140.024 122.992 139.47C120.863 138.915 119.582 136.747 120.123 134.615L122.849 123.871C122.849 123.868 122.85 123.865 122.851 123.861C123.86 119.806 124.963 115.382 126.093 111.082C130.377 94.7813 134.533 77.2613 136.095 70.2313C136.818 66.9809 134.701 64.1324 131.045 63.2333C129.301 62.8045 127.562 62.9718 126.176 63.6858ZM136.204 103.919C139.604 90.5289 142.615 77.7722 143.905 71.9667C145.849 63.217 139.465 57.0655 132.955 55.4647C129.615 54.6435 125.855 54.8512 122.511 56.5748C119.087 58.3394 116.432 61.5255 115.154 66.0001C112.533 75.1727 104.344 107.643 98.3324 131.716C97.8808 129.991 97.3939 128.118 96.8731 126.1C94.3351 116.265 85.2276 111.294 77.6523 110.917C73.8414 110.726 69.7213 111.653 66.826 114.447C63.7085 117.455 62.8148 121.829 64.1431 126.66C67.1885 137.734 72.8885 157.205 76.343 169.006C77.06 171.455 77.6803 173.574 78.16 175.219C82.0805 188.661 93.7009 198.627 104.864 201.934C118.436 205.956 122.112 207.006 134.342 209.045C141.307 210.205 150.926 208.743 159.583 204.279C168.341 199.763 176.48 191.979 179.846 180.198C184.151 165.131 185.403 159.714 187.212 151.886C187.937 148.75 188.751 145.227 189.887 140.541C190.839 136.617 190.453 133.023 188.804 130.065C187.173 127.14 184.532 125.244 181.707 124.259C178.875 123.272 175.604 123.125 172.526 123.905C171.832 120.317 169.788 117.09 166.719 114.945C162.845 112.238 157.763 111.505 152.345 113.238C150.547 109.466 147.661 106.321 143.928 104.731C141.44 103.671 138.813 103.398 136.204 103.919ZM146.5 117.128C146.501 117.127 146.491 117.144 146.465 117.184C146.486 117.149 146.499 117.129 146.5 117.128Z" />
</svg>
