<svg width="256" height="256" viewBox="0 0 256 256"  xmlns="http://www.w3.org/2000/svg">
<path fill-rule="evenodd" clip-rule="evenodd" d="M141.203 63.4191C140.016 63.9818 138.922 65.0419 138.352 67.0785C136.675 73.0671 133.115 88.1231 129.627 102.871C127.327 112.599 125.058 122.192 123.383 128.961C122.854 131.098 120.699 132.405 118.559 131.888C116.42 131.37 115.101 129.222 115.607 127.08L128.392 72.9928C127.664 70.6805 125.399 69.067 122.343 68.7252C118.819 68.3311 116.812 69.7966 116.343 71.1185L96.3762 149.488C96.0119 150.917 94.89 152.031 93.4573 152.384C92.0246 152.737 90.5139 152.273 89.5268 151.176C83.4969 144.476 69.5573 128.397 63.9123 121.543C61.9089 119.11 58.1561 118.61 54.781 120.008C53.1538 120.682 52.1741 121.602 51.7836 122.296C51.5202 122.765 51.4463 123.167 51.892 123.88C55.3113 129.351 69.6753 152.985 80.1989 170.301C85.1032 178.37 89.1735 185.067 90.9132 187.914C91.7565 189.294 93.4831 191.482 95.8583 193.539C98.232 195.595 101.044 197.339 104.031 198.135C112.029 200.268 122.921 203.105 132.784 205.078C132.78 205.077 132.91 205.1 133.218 205.105C133.511 205.109 133.896 205.096 134.374 205.053C135.331 204.969 136.551 204.781 137.966 204.464C140.797 203.83 144.237 202.721 147.684 201.077C154.705 197.728 161.014 192.534 163.169 185.351C164.543 180.769 165.784 176.666 166.923 172.903C170.772 160.18 173.446 151.34 176.128 140.996C176.732 138.665 176.302 137.297 175.757 136.468C175.15 135.542 174.033 134.739 172.453 134.276C170.872 133.814 169.134 133.792 167.724 134.141C166.301 134.493 165.715 135.072 165.539 135.366L163.578 139.289C162.665 141.115 160.524 141.96 158.61 141.251C156.696 140.541 155.623 138.504 156.121 136.524L160 137.5C156.121 136.524 156.121 136.525 156.121 136.524L156.121 136.523L156.496 135.033C156.721 134.135 157.023 132.933 157.328 131.715C157.634 130.496 157.942 129.264 158.181 128.306C158.301 127.826 158.402 127.418 158.477 127.114C158.515 126.962 158.545 126.84 158.567 126.75C158.582 126.687 158.59 126.653 158.594 126.638C158.596 126.627 158.597 126.626 158.595 126.632C159.111 124.313 157.705 121.421 154.834 119.919C152.487 118.692 149.442 118.608 146.633 121.451C145.964 124.075 145.352 126.258 144.794 128.25C144.726 128.496 144.658 128.738 144.591 128.979L143.363 133.54C142.791 135.661 140.616 136.925 138.491 136.37C136.365 135.816 135.084 133.651 135.622 131.521C136.024 129.926 136.443 128.41 136.876 126.862L139.128 118.495C143.653 100.385 149.875 75.2291 151.078 69.2155C151.59 66.6528 149.76 63.9878 145.957 63.0777C144.198 62.6569 142.495 62.8062 141.203 63.4191ZM149.157 111.338C152.43 110.747 155.717 111.353 158.541 112.831C163.216 115.276 166.972 120.38 166.698 126.181C169.283 125.701 172.101 125.838 174.7 126.599C177.604 127.449 180.541 129.177 182.446 132.079C184.414 135.078 184.953 138.835 183.872 143.004C181.147 153.516 178.414 162.548 174.552 175.315C173.418 179.061 172.188 183.128 170.831 187.649C167.736 197.966 159.045 204.522 151.128 208.298C147.107 210.216 143.094 211.514 139.714 212.271C138.023 212.649 136.448 212.902 135.075 213.023C133.775 213.137 132.396 213.158 131.216 212.922C121.079 210.895 109.971 207.999 101.969 205.865C97.456 204.661 93.5875 202.155 90.6209 199.586C87.6559 197.018 85.3824 194.206 84.0869 192.086C82.3203 189.195 78.2109 182.433 73.2738 174.31C62.7631 157.016 48.5013 133.549 45.108 128.12C43.0538 124.833 43.1674 121.298 44.8102 118.376C46.326 115.68 48.9712 113.755 51.7191 112.617C57.094 110.39 65.0912 110.39 70.0878 116.457C74.405 121.699 83.7387 132.525 90.4863 140.202L108.624 69.0124C108.641 68.9434 108.661 68.8749 108.682 68.8069C110.763 62.1474 117.881 60.1763 123.232 60.7748C125.869 61.0696 128.674 62.025 131.036 63.7203C132.348 60.1453 134.773 57.6137 137.776 56.1902C140.998 54.6625 144.614 54.5306 147.818 55.2973C153.94 56.7622 160.61 62.3472 158.922 70.7845C157.872 76.0379 153.265 94.8129 149.157 111.338Z" />
<path fill-rule="evenodd" clip-rule="evenodd" d="M223.172 44.6716C224.734 43.1095 227.266 43.1095 228.828 44.6716L244.828 60.6716C246.391 62.2337 246.391 64.7663 244.828 66.3284L228.828 82.3284C227.266 83.8905 224.734 83.8905 223.172 82.3284C221.609 80.7663 221.609 78.2337 223.172 76.6716L232.343 67.5H189.5C187.291 67.5 185.5 65.7091 185.5 63.5C185.5 61.2909 187.291 59.5 189.5 59.5H232.343L223.172 50.3284C221.609 48.7663 221.609 46.2337 223.172 44.6716Z" />
<path fill-rule="evenodd" clip-rule="evenodd" d="M35.3284 44.1716C33.7663 42.6095 31.2337 42.6095 29.6716 44.1716L13.6716 60.1716C12.1095 61.7337 12.1095 64.2663 13.6716 65.8284L29.6716 81.8284C31.2337 83.3905 33.7663 83.3905 35.3284 81.8284C36.8905 80.2663 36.8905 77.7337 35.3284 76.1716L26.1569 67H77C79.2091 67 81 65.2091 81 63C81 60.7909 79.2091 59 77 59H26.1569L35.3284 49.8284C36.8905 48.2663 36.8905 45.7337 35.3284 44.1716Z" />
</svg>
