<svg width="256" height="256" viewBox="0 0 256 256"  xmlns="http://www.w3.org/2000/svg">
<path fill-rule="evenodd" clip-rule="evenodd" d="M72 198C72 190.28 78.0563 184 85.5 184C92.9437 184 99 190.281 99 198C99 205.72 92.9437 212 85.5 212C78.0563 212 72 205.72 72 198ZM79.3636 198C79.3636 201.509 82.1162 204.364 85.5 204.364C88.8833 204.364 91.6364 201.509 91.6364 198C91.6364 194.491 88.8838 191.636 85.5 191.636C82.1162 191.636 79.3636 194.491 79.3636 198Z" />
<path fill-rule="evenodd" clip-rule="evenodd" d="M202.5 184C194.505 184 188 190.28 188 198C188 205.72 194.505 212 202.5 212C210.495 212 217 205.72 217 198C217 190.281 210.495 184 202.5 184ZM202.5 204.364C198.866 204.364 195.909 201.509 195.909 198C195.909 194.491 198.866 191.636 202.5 191.636C206.134 191.636 209.091 194.491 209.091 198C209.091 201.509 206.134 204.364 202.5 204.364Z" />
<path fill-rule="evenodd" clip-rule="evenodd" d="M191.133 97.7461H207.25C234.131 97.7461 256 119.951 256 147.243C256 149.542 255.758 153.297 255.38 157.756C255.379 157.77 255.378 157.786 255.377 157.8C254.065 173.268 251.129 197.188 250.97 198.482C250.963 198.534 250.952 198.585 250.944 198.636L250.937 198.68C250.93 198.724 250.923 198.767 250.914 198.81C250.903 198.86 250.89 198.909 250.877 198.958L250.866 199.001C250.854 199.046 250.843 199.092 250.83 199.137L250.827 199.149C250.826 199.153 250.824 199.157 250.823 199.162C250.797 199.243 250.767 199.322 250.737 199.401C250.724 199.433 250.714 199.466 250.701 199.498C250.684 199.541 250.665 199.583 250.646 199.625C250.614 199.692 250.581 199.758 250.546 199.823C250.544 199.829 250.541 199.834 250.538 199.839L250.536 199.841C250.483 199.94 250.425 200.035 250.364 200.128C250.355 200.143 250.345 200.156 250.335 200.17C250.327 200.18 250.319 200.191 250.312 200.202C250.262 200.273 250.212 200.345 250.157 200.414C250.141 200.433 250.125 200.452 250.108 200.471C250.098 200.482 250.088 200.494 250.077 200.506L250.036 200.554C250.024 200.568 250.011 200.582 249.999 200.596C249.986 200.61 249.973 200.624 249.96 200.638C249.949 200.65 249.938 200.662 249.926 200.674C249.904 200.698 249.88 200.721 249.856 200.744L249.824 200.774C249.775 200.821 249.726 200.867 249.675 200.912C249.644 200.939 249.612 200.964 249.579 200.99L249.552 201.012L249.544 201.019C249.497 201.055 249.451 201.09 249.403 201.124C249.358 201.157 249.311 201.188 249.264 201.218C249.246 201.23 249.227 201.242 249.208 201.254C249.176 201.274 249.144 201.294 249.111 201.313C249.062 201.341 249.013 201.369 248.962 201.395C248.929 201.412 248.895 201.429 248.861 201.446C248.848 201.452 248.836 201.458 248.824 201.463L248.799 201.475L248.774 201.486C248.756 201.495 248.737 201.503 248.718 201.512C248.695 201.522 248.671 201.532 248.647 201.542C248.586 201.567 248.525 201.589 248.463 201.61C248.415 201.627 248.368 201.644 248.319 201.659C248.296 201.666 248.273 201.673 248.249 201.679C248.226 201.685 248.203 201.691 248.18 201.697C248.153 201.704 248.126 201.71 248.099 201.716C248.086 201.72 248.072 201.723 248.058 201.726C248.044 201.73 248.029 201.734 248.014 201.737C248.002 201.74 247.99 201.743 247.978 201.745C247.883 201.765 247.786 201.778 247.689 201.79C247.679 201.791 247.669 201.793 247.66 201.794C247.648 201.796 247.636 201.798 247.624 201.799C247.502 201.811 247.379 201.819 247.254 201.819L247.25 201.819L247.246 201.818H230.548C228.704 216.009 216.72 227 202.249 227C187.777 227 175.795 216.009 173.951 201.818H113.801C111.957 216.009 99.9749 227 85.5033 227C71.0308 227 59.0482 216.009 57.2047 201.818L40.5052 201.819C40.3842 201.819 40.2622 201.813 40.1392 201.801L40.1381 201.8L40.1352 201.8L40.1322 201.8C40.0207 201.788 39.9112 201.771 39.8022 201.75C39.7948 201.748 39.7872 201.747 39.7796 201.746C39.7721 201.745 39.7646 201.744 39.7572 201.743C39.6427 201.719 39.5307 201.689 39.4197 201.656C39.4144 201.654 39.4094 201.653 39.4043 201.652L39.3932 201.649C39.2957 201.618 39.2012 201.581 39.1072 201.543C39.0862 201.535 39.0642 201.529 39.0437 201.52C38.9903 201.497 38.9385 201.471 38.8866 201.444L38.8437 201.422C38.5242 201.262 38.2322 201.058 37.9736 200.818C37.9602 200.805 37.9466 200.793 37.933 200.781C37.9209 200.77 37.9088 200.759 37.8968 200.748C37.8854 200.738 37.8742 200.728 37.8631 200.717C37.8581 200.712 37.8531 200.707 37.8481 200.702C37.8406 200.695 37.8346 200.686 37.8271 200.679C37.4251 200.263 37.1171 199.755 36.9356 199.188L36.9341 199.183C36.9325 199.178 36.9307 199.173 36.9288 199.168L36.9246 199.157L36.9211 199.147C36.9115 199.115 36.9037 199.083 36.8959 199.05C36.8916 199.032 36.8873 199.014 36.8826 198.996L36.8706 198.951C36.8553 198.895 36.8401 198.839 36.8286 198.781C36.8256 198.766 36.8235 198.75 36.8214 198.734C36.8203 198.727 36.8193 198.719 36.8182 198.711C36.8174 198.706 36.8166 198.701 36.8156 198.696C36.7981 198.599 36.7816 198.502 36.7716 198.404C36.7681 198.373 36.7691 198.342 36.7661 198.311C36.7591 198.214 36.7521 198.118 36.7521 198.02C36.7521 198.016 36.7516 198.013 36.7516 198.01C36.7516 197.963 36.7547 197.917 36.7579 197.871L36.7595 197.845C36.7605 197.83 36.7614 197.816 36.7621 197.801C36.7633 197.78 36.7639 197.76 36.7646 197.74C36.7656 197.708 36.7666 197.676 36.7696 197.643L36.7711 197.629L36.7726 197.615L40.6472 157.012C40.6477 157.009 40.6477 157.005 40.6482 157.001L43.1542 130.744H30.5011C28.4296 130.744 26.7511 129.039 26.7511 126.936C26.7511 124.834 28.4296 123.129 30.5011 123.129H43.8807L48.4827 74.9032H3.75001C1.67851 74.9032 0 73.1985 0 71.0958C0 68.993 1.67851 67.2883 3.75001 67.2883H49.2097L51.7717 40.4404C51.7719 40.4386 51.7721 40.4367 51.7724 40.4349C51.7726 40.4338 51.7728 40.4327 51.773 40.4315C51.7735 40.4286 51.774 40.4257 51.7742 40.4227C51.7758 40.4061 51.7784 40.3899 51.781 40.3737C51.7833 40.3597 51.7856 40.3457 51.7872 40.3313C51.7997 40.2338 51.8122 40.1369 51.8312 40.0419C51.8325 40.0356 51.8342 40.0294 51.836 40.0232C51.837 40.0194 51.8381 40.0156 51.839 40.0118C51.8396 40.0093 51.8402 40.0069 51.8407 40.0044C52.2102 38.259 53.7437 36.9995 55.5052 37H100.505C102.57 37 104.255 38.7058 104.255 40.8075C104.255 42.9041 102.57 44.615 100.505 44.615H58.9087L56.7447 67.2883H95.5054C97.5769 67.2883 99.2554 68.993 99.2554 71.0958C99.2554 73.1985 97.5769 74.9032 95.5054 74.9032H56.0177L51.4157 123.129H75.4993C77.5708 123.129 79.2493 124.834 79.2493 126.936C79.2493 129.039 77.5708 130.744 75.4993 130.744H50.6887L48.5092 153.588H178.814L180.697 131.636C180.698 131.629 180.698 131.623 180.699 131.616L188.162 44.615H115.505C113.435 44.615 111.755 42.9041 111.755 40.8075C111.755 38.7058 113.435 37 115.505 37H192.25C192.294 37 192.337 37.0051 192.381 37.0066C192.403 37.0074 192.424 37.0079 192.446 37.0083C192.49 37.0092 192.533 37.0102 192.577 37.0142C192.581 37.0146 192.584 37.015 192.588 37.0155L192.592 37.0163C192.598 37.017 192.602 37.0178 192.608 37.0183L192.621 37.0196C192.641 37.0216 192.66 37.0241 192.68 37.0268C192.698 37.0295 192.717 37.0324 192.736 37.0353L192.79 37.0437L192.84 37.0508C192.888 37.0577 192.937 37.0646 192.985 37.0741C193.017 37.0805 193.049 37.0887 193.08 37.097C193.099 37.1018 193.117 37.1067 193.136 37.1112L193.16 37.1171C193.225 37.1328 193.29 37.1486 193.353 37.168C193.385 37.1782 193.416 37.1914 193.449 37.202C193.536 37.2315 193.622 37.262 193.706 37.2975C193.717 37.3026 193.728 37.3087 193.74 37.3137C195.085 37.9042 196.001 39.2662 196.001 40.807L196.001 40.8125L196 40.8197C196 40.8239 196 40.828 196 40.8324C195.999 40.9334 195.998 41.0344 195.989 41.137L191.133 97.7461ZM205.821 105.362H190.479L188.52 128.205H203.861L205.821 105.362ZM64.4518 198.01C64.4518 209.796 73.8958 219.385 85.5043 219.385C97.1124 219.385 106.556 209.796 106.556 198.01C106.556 186.224 97.1124 176.635 85.5043 176.635C73.8963 176.635 64.4518 186.224 64.4518 198.01ZM181.197 198.01C181.197 209.796 190.641 219.385 202.249 219.385C213.857 219.385 223.301 209.796 223.301 198.01C223.301 186.224 213.857 176.635 202.249 176.635C190.641 176.635 181.197 186.224 181.197 198.01ZM230.549 194.201H243.932C244.721 187.617 246.485 172.582 247.576 160.871C238.986 159.433 233.932 153.542 229.406 148.262C223.92 141.862 218.738 135.818 207.249 135.818H187.868L185.988 157.724C185.988 157.733 185.986 157.741 185.985 157.751C185.979 157.814 185.968 157.876 185.959 157.939C185.95 158 185.943 158.061 185.932 158.121C185.923 158.167 185.912 158.212 185.901 158.257L185.89 158.303C185.885 158.322 185.88 158.342 185.875 158.361C185.87 158.384 185.864 158.407 185.859 158.429C185.857 158.436 185.855 158.443 185.854 158.449C185.851 158.46 185.848 158.471 185.845 158.482C185.828 158.538 185.809 158.592 185.79 158.647L185.779 158.68C185.769 158.709 185.758 158.738 185.748 158.767C185.74 158.788 185.732 158.809 185.724 158.829C185.704 158.88 185.681 158.928 185.659 158.978L185.642 159.015C185.62 159.064 185.597 159.112 185.572 159.16C185.563 159.179 185.553 159.198 185.542 159.217C185.531 159.237 185.519 159.258 185.507 159.278L185.498 159.295C185.464 159.355 185.429 159.414 185.393 159.471C185.365 159.514 185.336 159.555 185.307 159.597C185.297 159.61 185.288 159.624 185.278 159.637C185.271 159.648 185.263 159.659 185.255 159.67C185.232 159.7 185.21 159.731 185.187 159.76C185.179 159.771 185.17 159.781 185.162 159.791C185.154 159.802 185.145 159.812 185.137 159.822C185.121 159.841 185.105 159.861 185.088 159.88C185.045 159.93 185.002 159.98 184.957 160.027C184.92 160.066 184.882 160.105 184.844 160.142L184.819 160.165C184.807 160.177 184.794 160.189 184.782 160.201C184.774 160.208 184.767 160.215 184.759 160.221L184.735 160.244L184.705 160.27C184.681 160.291 184.657 160.312 184.633 160.332L184.605 160.356L184.577 160.378C184.567 160.387 184.556 160.395 184.545 160.403C184.536 160.411 184.526 160.418 184.516 160.426C184.488 160.447 184.46 160.468 184.432 160.488L184.418 160.498C184.376 160.528 184.334 160.559 184.291 160.587C184.268 160.602 184.244 160.617 184.221 160.631C184.203 160.642 184.186 160.653 184.168 160.663C184.158 160.669 184.148 160.675 184.138 160.681C184.088 160.711 184.038 160.74 183.987 160.768C183.96 160.782 183.932 160.796 183.904 160.809C183.878 160.822 183.851 160.834 183.824 160.847L183.822 160.848L183.813 160.852C183.765 160.875 183.717 160.898 183.668 160.918C183.652 160.925 183.635 160.932 183.618 160.938C183.597 160.947 183.575 160.954 183.554 160.962L183.481 160.988L183.444 161.001C183.408 161.014 183.372 161.027 183.335 161.039C183.269 161.059 183.201 161.076 183.133 161.092L183.112 161.097C183.094 161.102 183.075 161.107 183.057 161.111C183.034 161.117 183.012 161.123 182.989 161.128C182.893 161.147 182.796 161.161 182.698 161.173C182.688 161.174 182.679 161.175 182.67 161.177L182.666 161.178C182.662 161.178 182.657 161.179 182.652 161.18C182.644 161.181 182.637 161.182 182.629 161.183C182.506 161.196 182.376 161.201 182.251 161.201H47.7827L44.6332 194.201H57.2052C59.0482 180.01 71.0318 169.018 85.5043 169.018C99.9769 169.018 111.959 180.009 113.802 194.201H173.952C175.795 180.01 187.778 169.018 202.25 169.018C216.723 169.018 228.706 180.009 230.549 194.201ZM235.062 143.264C239.216 148.109 242.644 152.087 248.217 153.24C248.395 150.745 248.5 148.671 248.5 147.244C248.5 126.241 233.192 108.804 213.31 105.818L211.37 128.433C223.526 129.811 229.868 137.205 235.062 143.264Z" />
<path d="M15.9194 97H35.0806C37.2457 97 39 98.7909 39 101C39 103.209 37.2457 105 35.0806 105H15.9194C13.7543 105 12 103.209 12 101C12 98.7909 13.7543 97 15.9194 97Z" />
</svg>
