<svg width="256" height="256" viewBox="0 0 256 256"  xmlns="http://www.w3.org/2000/svg">
<path d="M178.912 195.882L60.1178 77.0883C55.4155 72.3861 55.4155 64.82 60.1178 60.1178C64.82 55.4155 72.3861 55.4155 77.0883 60.1178L195.882 178.912C200.585 183.614 200.585 191.18 195.882 195.882C191.18 200.585 183.614 200.585 178.912 195.882Z" />
<path d="M195.882 77.0883L77.0883 195.882C72.3861 200.585 64.82 200.585 60.1178 195.882C55.4155 191.18 55.4155 183.614 60.1178 178.912L178.912 60.1177C183.614 55.4155 191.18 55.4155 195.882 60.1177C200.585 64.82 200.585 72.386 195.882 77.0883Z" />
</svg>
