<svg width="256" height="256" viewBox="0 0 256 256"  xmlns="http://www.w3.org/2000/svg">
<path fill-rule="evenodd" clip-rule="evenodd" d="M75.5 58C71.7138 58 68.0937 58.926 65.2885 60.6335C62.5542 62.2978 60 65.1384 60 69C60 72.8616 62.5542 75.7022 65.2885 77.3665C68.0937 79.074 71.7138 80 75.5 80C79.2862 80 82.9063 79.074 85.7115 77.3665C88.4458 75.7022 91 72.8616 91 69C91 65.1384 88.4458 62.2978 85.7115 60.6335C82.9063 58.926 79.2862 58 75.5 58ZM68 69C68 68.9956 68.0201 68.3362 69.4481 67.467C70.8051 66.641 72.9349 66 75.5 66C78.0651 66 80.1949 66.641 81.5519 67.467C82.9799 68.3362 83 68.9956 83 69C83 69.0044 82.9799 69.6638 81.5519 70.533C80.1949 71.359 78.0651 72 75.5 72C72.9349 72 70.8051 71.359 69.4481 70.533C68.0201 69.6638 68 69.0044 68 69Z" />
<path fill-rule="evenodd" clip-rule="evenodd" d="M36 69C36 60.8412 41.1 53.9943 48.2227 49.3795C55.3848 44.7393 65.04 42 75.5 42C76.8389 42 78.1647 42.0449 79.4737 42.1329C79.8012 42.0462 80.1452 42 80.5 42H216.5C218.709 42 220.5 43.7909 220.5 46V170.5C220.5 171.561 220.079 172.578 219.328 173.328L187.828 204.828C187.078 205.579 186.061 206 185 206H113.692C111.739 211.086 107.751 215.398 102.777 218.62C95.6152 223.261 85.96 226 75.5 226C65.04 226 55.3848 223.261 48.2227 218.62C41.1 214.006 36 207.159 36 199V69ZM44 69C44 64.4563 46.847 59.8032 52.5727 56.0936C58.2591 52.4094 66.3539 50 75.5 50C84.6461 50 92.7409 52.4094 98.4273 56.0936C104.153 59.8032 107 64.4563 107 69C107 73.5437 104.153 78.1968 98.4273 81.9064C92.7409 85.5906 84.6461 88 75.5 88C66.3539 88 58.2591 85.5906 52.5727 81.9064C46.847 78.1968 44 73.5437 44 69ZM115 69C115 61.1993 110.338 54.5978 103.703 50H212.5V166.5H185C182.791 166.5 181 168.291 181 170.5V198H115V69ZM107 85.398V199C107 203.544 104.153 208.197 98.4273 211.906C92.7409 215.591 84.6461 218 75.5 218C66.3539 218 58.2591 215.591 52.5727 211.906C46.847 208.197 44 203.544 44 199V85.398C45.2974 86.5664 46.7148 87.6435 48.2227 88.6205C55.3848 93.2607 65.04 96 75.5 96C85.96 96 95.6152 93.2607 102.777 88.6205C104.285 87.6435 105.703 86.5664 107 85.398ZM206.843 174.5H189V192.343L206.843 174.5Z" />
</svg>
