<svg width="64" height="64" viewBox="0 0 64 64"  xmlns="http://www.w3.org/2000/svg">
<path d="M1.06684 43.0869H4.352C4.9375 47.1659 8.71701 49.9977 12.7934 49.4119C16.0699 48.9407 18.6441 46.3651 19.1146 43.0869H44.8854C45.4644 47.1668 49.2392 50.0043 53.3168 49.425C56.826 48.9264 59.4996 46.0251 59.7118 42.485L63.6897 38.5054C63.8889 38.3047 64.0004 38.0333 64 37.7506V28.1456C64 27.9032 63.9175 27.6679 63.7665 27.4785L59.9262 22.676L61.76 19.0173C62.023 18.4897 61.809 17.8492 61.2817 17.586C61.1675 17.5287 61.0443 17.4926 60.9175 17.4796L55.0985 16.8655L44.6762 15.7656C37.8368 15.0069 30.9145 15.8793 24.477 18.3116C20.7695 19.839 17.3168 21.9221 14.237 24.4904L12.1975 26.1914L10.7422 26.9852L4.01606 29.5999C3.97309 29.6164 3.93142 29.6355 3.89106 29.6577C1.49262 30.967 0 33.4822 0 36.2159V42.0199C0 42.6092 0.477431 43.0869 1.06684 43.0869ZM11.7335 47.3561C8.78776 47.3561 6.40017 44.9668 6.40017 42.0199C6.40017 39.0725 8.78776 36.6836 11.7335 36.6836C14.6788 36.6836 17.0668 39.0725 17.0668 42.0199C17.0634 44.9655 14.6775 47.3526 11.7335 47.3561ZM52.2669 47.3561C49.3212 47.3561 46.9332 44.9668 46.9332 42.0199C46.9332 39.0725 49.3212 36.6836 52.2669 36.6836C55.2122 36.6836 57.6003 39.0725 57.6003 42.0199C57.5964 44.9655 55.2109 47.3526 52.2669 47.3561ZM61.8668 32.4144H58.4332L57.8997 30.28H61.8668V32.4144ZM55.5456 19.059L59.1571 19.4399L57.7118 22.3321C57.526 22.7047 57.5734 23.1511 57.8338 23.4764L61.5668 28.1456H56.5334C55.944 28.1456 55.467 28.6237 55.467 29.213C55.467 29.2998 55.4774 29.3867 55.4987 29.4709L56.5651 33.7398C56.6836 34.2153 57.1102 34.5488 57.5998 34.5488H61.8663V37.3085L59.3919 39.7838C59.3919 39.773 59.3824 39.7626 59.3793 39.7517C59.2739 39.4291 59.1467 39.1142 58.9983 38.8094C58.9661 38.7434 58.9366 38.676 58.9023 38.6096C58.7487 38.3121 58.5755 38.0251 58.3841 37.7506C58.3455 37.695 58.303 37.6438 58.2635 37.5895C58.0781 37.3372 57.8767 37.0975 57.6606 36.8712C57.6319 36.8404 57.605 36.8061 57.5742 36.7761C57.3359 36.5373 57.082 36.3145 56.8138 36.1091C56.7517 36.0622 56.691 36.0162 56.6293 35.9714C56.355 35.7712 56.0677 35.5897 55.7695 35.4282C55.73 35.4069 55.6875 35.39 55.6467 35.3696C55.3628 35.2254 55.0699 35.0994 54.77 34.993C54.7101 34.9713 54.6528 34.947 54.5929 34.9266C54.263 34.8198 53.9262 34.7355 53.5846 34.6747C53.5122 34.6621 53.4388 34.6526 53.3715 34.6417C53.0061 34.5831 52.6367 34.5518 52.2665 34.5488C52.02 34.5488 51.7756 34.5627 51.5356 34.5861C51.4557 34.5935 51.3776 34.6087 51.299 34.6196C51.1389 34.6396 50.9787 34.6608 50.8242 34.6921C50.7313 34.7103 50.6419 34.7347 50.5499 34.7559C50.4115 34.7894 50.2726 34.8224 50.1363 34.8628C50.0412 34.8906 49.9497 34.9236 49.8568 34.9557C49.7274 35.0004 49.5985 35.0452 49.4727 35.0964C49.3811 35.1337 49.2904 35.1746 49.1997 35.2158C49.0781 35.2705 48.9588 35.3227 48.8403 35.3891C48.7517 35.436 48.6641 35.4829 48.5777 35.5328C48.4627 35.598 48.3507 35.6675 48.2396 35.7391C48.1554 35.7925 48.0734 35.8459 47.9922 35.9033C47.8854 35.9801 47.7791 36.06 47.6723 36.1425C47.5955 36.202 47.5187 36.2607 47.4449 36.3236C47.3381 36.4122 47.2413 36.5065 47.1419 36.6003C47.0738 36.6632 47.0056 36.7249 46.9405 36.7913C46.8338 36.8977 46.7422 37.0046 46.645 37.1114C46.5907 37.1744 46.5382 37.2343 46.4818 37.2981C46.3685 37.4371 46.263 37.5808 46.1619 37.725C46.1328 37.768 46.0998 37.8062 46.0712 37.8488C45.9431 38.039 45.8238 38.2348 45.7135 38.4372C45.6819 38.4945 45.6562 38.5553 45.6263 38.6144C45.5503 38.7616 45.4757 38.9097 45.4128 39.0625C45.3789 39.1437 45.3498 39.2267 45.3168 39.3101C45.2648 39.4447 45.2101 39.5789 45.1675 39.7178C45.1376 39.8095 45.1133 39.9046 45.0877 39.9984C45.0503 40.1321 45.0139 40.2641 44.9809 40.3996C44.9583 40.5 44.9414 40.6003 44.9232 40.7028C44.9084 40.784 44.888 40.863 44.8763 40.9451H33.3663L36.6645 27.7517L50.1866 27.0781C50.5417 27.0603 50.8646 26.8667 51.0477 26.5618L55.5456 19.059ZM39.1832 17.6715C39.4327 17.6715 39.681 17.6555 39.9297 17.6555C41.4405 17.6542 42.9501 17.7319 44.4523 17.8891L53.2066 18.8137L49.5117 24.9737L37.2053 25.5843L39.1832 17.6715ZM15.602 26.1306C18.5152 23.7013 21.7817 21.7302 25.2886 20.2862C29.0213 18.8319 32.9614 17.9803 36.9614 17.7632L34.9792 25.6985L14.9258 26.6995L15.602 26.1306ZM2.13325 36.2159C2.13108 34.2856 3.17231 32.5047 4.85547 31.5606L11.4136 29.0111L34.4332 27.8629L31.1667 40.9525H19.1241C19.1124 40.8704 19.0924 40.7913 19.0773 40.7106C19.0595 40.6037 19.0421 40.5078 19.02 40.4075C18.99 40.272 18.9536 40.1395 18.9132 40.0062C18.8876 39.912 18.8633 39.8173 18.8333 39.7252C18.7886 39.5867 18.7361 39.4521 18.684 39.3174C18.6506 39.2345 18.622 39.1511 18.5877 39.0699C18.5217 38.9175 18.447 38.769 18.3746 38.6218C18.3446 38.5631 18.319 38.5023 18.2869 38.4446C18.1775 38.2435 18.0586 38.0472 17.9297 37.8566C17.901 37.814 17.8676 37.7754 17.839 37.7328C17.7322 37.5865 17.6259 37.4423 17.5191 37.3059C17.4666 37.2417 17.4123 37.1822 17.3559 37.1192C17.2587 37.0124 17.1628 36.8982 17.0603 36.7987C16.9952 36.7327 16.9271 36.6706 16.8589 36.6081C16.7595 36.5138 16.6606 36.42 16.556 36.3314C16.4822 36.2685 16.4054 36.2099 16.3286 36.1499C16.2218 36.0678 16.115 35.9879 16.0087 35.9111C15.9275 35.8542 15.8455 35.8042 15.7613 35.7465C15.6545 35.6753 15.5382 35.6058 15.4227 35.5407C15.3364 35.4907 15.2491 35.4434 15.1606 35.3965C15.0421 35.3357 14.9227 35.2779 14.8012 35.2236C14.7105 35.1819 14.6198 35.1416 14.5282 35.1042C14.4023 35.053 14.273 35.0082 14.1441 34.9631C14.0512 34.9314 13.9596 34.8979 13.8646 34.8706C13.7279 34.8298 13.5894 34.7968 13.4505 34.7638C13.3589 34.7425 13.2695 34.7177 13.1766 34.6995C13.0208 34.6686 12.862 34.6474 12.7018 34.627C12.6228 34.6165 12.5451 34.6013 12.4653 34.594C12.224 34.5631 11.9796 34.5492 11.7335 34.5492C11.487 34.5492 11.2426 34.5631 11.0026 34.5866C10.9227 34.594 10.8446 34.6092 10.7661 34.6196C10.6059 34.64 10.4457 34.6613 10.2912 34.6921C10.1984 34.7103 10.1089 34.7351 10.0169 34.7564C9.87847 34.7894 9.73958 34.8224 9.6033 34.8632C9.50825 34.891 9.41623 34.924 9.32378 34.9557C9.19444 35.0009 9.06554 35.0456 8.93967 35.0968C8.84766 35.1342 8.75738 35.1746 8.66667 35.2163C8.54514 35.2705 8.42578 35.3231 8.30729 35.3891C8.21875 35.436 8.13108 35.4829 8.04471 35.5333C7.92969 35.5984 7.81771 35.6679 7.7066 35.7391C7.6224 35.7925 7.54036 35.8459 7.4592 35.9037C7.35243 35.9806 7.24566 36.0605 7.13932 36.1425C7.0625 36.2025 6.98568 36.2611 6.91189 36.3241C6.80512 36.4127 6.70833 36.5065 6.60894 36.6003C6.57813 36.628 6.54601 36.655 6.51736 36.6836H2.13325V36.2159ZM2 39H4.9C4.86267 39.0851 4.81293 39.2341 4.77995 39.3174C4.72743 39.4521 4.67318 39.5863 4.63064 39.7252C4.60069 39.8169 4.57595 39.912 4.55035 40.0058C4.51302 40.1391 4.477 40.2715 4.44358 40.407C4.42144 40.5073 4.40451 40.6076 4.38628 40.7101C4.37109 40.7913 4.35113 40.8704 4.33941 40.9525L2 41V39Z" />
</svg>
