<svg width="512" height="512" viewBox="0 0 512 512"  xmlns="http://www.w3.org/2000/svg">
<path fill-rule="evenodd" clip-rule="evenodd" d="M44.3925 95.3576C40.2615 97.2016 36.0465 101.918 34.8725 106.01C33.3845 111.198 33.5585 256.445 35.0555 259.257C37.8335 264.472 43.4425 265.482 47.4375 261.486L49.8925 259.032V184.486V109.941H204.393H358.893V183.507C358.893 237.518 359.202 257.653 360.056 259.257C362.834 264.472 368.443 265.482 372.438 261.486C374.503 259.422 374.893 258.072 374.893 252.986V246.941L424.143 246.947C454.051 246.95 474.814 247.347 477.011 247.957C482.09 249.368 486.758 252.742 490.601 257.78C495.967 264.816 495.787 264.941 480.348 264.941C467.299 264.941 466.712 265.031 464.348 267.396C462.01 269.733 461.893 270.432 461.893 282.03C461.893 297.433 462.962 301.078 469.359 307.475C475.183 313.299 479.56 314.941 489.259 314.941H495.893V332.941V350.941H485.608H475.322L472.225 344.691C453.739 307.386 400.038 307.403 381.546 344.72C379.504 348.842 377.912 350.899 376.914 350.707C375.603 350.455 375.324 345.975 374.893 318.212C374.344 282.878 374.481 283.609 368.17 282.346C365.486 281.81 364.485 282.195 361.933 284.747L358.893 287.787V319.364V350.941H275.94H192.987L190.906 346.237C182.048 326.213 159.643 313.878 137.719 316.955C121.903 319.174 105.978 330.687 99.3505 344.693L96.3925 350.945L73.3925 350.693L50.3925 350.441V341.441V332.441L69.5865 332.17L88.7815 331.898L90.8365 329.285C93.5465 325.84 93.4335 322.682 90.4795 319.247L88.0655 316.441H46.3925H4.71953L2.30553 319.247C-0.65447 322.688 -0.76047 325.841 1.96553 329.306L4.03753 331.941H18.9655H33.8925L33.9145 342.191C33.9315 349.984 34.3765 353.4 35.7735 356.441C40.0705 365.8 43.6215 366.842 71.4175 366.897L93.4415 366.941L94.6605 374.604C101.374 416.793 153.703 432.469 182.308 400.86C188.016 394.552 193.685 383.072 194.472 376.225C194.775 373.594 195.227 370.429 195.477 369.191L195.931 366.941H285.704H375.477L377.036 375.191C379.069 385.949 382.81 393.657 389.514 400.898C400.449 412.709 410.822 417.246 426.893 417.246C442.962 417.246 453.338 412.709 464.269 400.902C471.136 393.485 474.654 386.302 476.682 375.558L478.282 367.082L492.677 366.762L507.071 366.441L509.526 363.584L511.981 360.727L511.687 312.084C511.401 264.755 511.334 263.297 509.215 258.127C504.286 246.102 492.99 235.688 481.751 232.808C478.377 231.943 476.357 230.813 475.787 229.471C475.312 228.354 472.208 216.507 468.889 203.143L462.854 178.845L465.978 176.216L469.102 173.587L468.696 163.014C468.347 153.922 467.908 151.701 465.558 147.157C462.33 140.916 456.471 134.78 451.184 132.106C444.112 128.527 437.742 127.941 405.928 127.941H375.06L374.727 116.191C374.428 105.686 374.139 104.084 371.992 101.074C370.671 99.2226 367.746 96.8696 365.492 95.8456C361.55 94.0556 355.385 93.9856 204.393 94.0016C75.4115 94.0156 46.8575 94.2576 44.3925 95.3576ZM443.591 146.19C447.861 148.525 451.855 153.932 452.572 158.348L453.155 161.941H414.024H374.893V152.89V143.84L407.643 144.14C436.578 144.406 440.766 144.645 443.591 146.19ZM232.69 207.671L195.872 244.401L176.632 225.227C164.383 213.02 156.391 205.812 154.636 205.387C149.008 204.026 143.653 210.533 145.912 215.986C146.522 217.459 157.27 228.851 169.797 241.303C190.525 261.905 192.879 263.941 195.97 263.941C199.109 263.941 202.449 260.858 240.129 223.177C277.253 186.054 280.893 182.121 280.893 179.132C280.893 174.749 277.106 170.941 272.746 170.941C269.822 170.941 265.934 174.506 232.69 207.671ZM452.688 204.191C456.128 218.078 458.931 229.779 458.918 230.191C458.904 230.603 439.993 230.941 416.893 230.941H374.893V204.941V178.941H410.663H446.433L452.688 204.191ZM495.893 289.941V298.941H489.529C483.987 298.941 482.825 298.601 480.529 296.305C478.233 294.009 477.893 292.847 477.893 287.305V280.941H486.893H495.893V289.941ZM19.8155 284.864C16.2085 288.471 16.0445 292.184 19.3475 295.486L21.8015 297.941H75.7655C105.446 297.941 130.458 297.661 131.348 297.32C133.171 296.62 135.893 291.885 135.893 289.414C135.893 288.519 134.578 286.472 132.97 284.864L130.047 281.941H76.3925H22.7385L19.8155 284.864ZM210.201 316.939C206.774 318.338 204.608 322.366 205.384 325.899C206.763 332.178 204.084 331.941 273.543 331.941H336.748L338.82 329.306C341.546 325.841 341.44 322.688 338.48 319.247L336.067 316.441L274.23 316.243C239.644 316.132 211.427 316.439 210.201 316.939ZM152.393 333.458C161.067 334.87 171.235 342.81 175.781 351.721C180.248 360.477 180.27 373.339 175.835 382.078C162.609 408.134 126.493 408.188 113.685 382.17C110.727 376.16 110.397 374.62 110.433 366.962C110.466 359.765 110.898 357.561 113.215 352.776C118.127 342.63 128.312 334.742 138.825 332.94C143.369 332.162 144.76 332.215 152.393 333.458ZM432.419 333.03C447.792 335.872 459.531 348.189 461.442 363.484C462.733 373.817 457.119 387.426 448.87 393.959C428.698 409.936 399.71 400.061 393.332 375.04C388.508 356.118 401.624 336.3 421.119 333.053C424.02 332.57 426.423 332.122 426.459 332.058C426.496 331.994 429.178 332.431 432.419 333.03ZM136.134 352.878C123.86 360.579 126.636 378.788 140.728 383.01C148.733 385.408 158.973 379.362 160.476 371.349C162.632 359.858 156.617 351.797 145.417 351.17C140.674 350.904 138.7 351.267 136.134 352.878ZM419.042 352.637C409.12 357.526 407.687 372.914 416.508 379.853C423.384 385.261 432.309 384.725 438.503 378.531C444.24 372.794 444.874 363.936 440.035 357.141C435.861 351.278 426.066 349.177 419.042 352.637Z" />
</svg>
