<svg width="256" height="256" viewBox="0 0 256 256"  xmlns="http://www.w3.org/2000/svg">
<path fill-rule="evenodd" clip-rule="evenodd" d="M219.172 59.9697C220.734 58.4076 223.266 58.4076 224.828 59.9697L240.828 75.9697C242.391 77.5318 242.391 80.0644 240.828 81.6265L224.828 97.6265C223.266 99.1886 220.734 99.1886 219.172 97.6265C217.609 96.0644 217.609 93.5318 219.172 91.9697L228.343 82.7981H185.5C183.291 82.7981 181.5 81.0072 181.5 78.7981C181.5 76.589 183.291 74.7981 185.5 74.7981H228.343L219.172 65.6265C217.609 64.0644 217.609 61.5318 219.172 59.9697Z" />
<path fill-rule="evenodd" clip-rule="evenodd" d="M39.3284 59.4697C37.7663 57.9076 35.2337 57.9076 33.6716 59.4697L17.6716 75.4697C16.1095 77.0318 16.1095 79.5644 17.6716 81.1265L33.6716 97.1265C35.2337 98.6886 37.7663 98.6886 39.3284 97.1265C40.8905 95.5644 40.8905 93.0318 39.3284 91.4697L30.1569 82.2981H63C65.2091 82.2981 67 80.5072 67 78.2981C67 76.089 65.2091 74.2981 63 74.2981H30.1569L39.3284 65.1265C40.8905 63.5644 40.8905 61.0318 39.3284 59.4697Z" />
<path fill-rule="evenodd" clip-rule="evenodd" d="M139.705 65.2528C130.29 55.5344 114.78 55.2884 105.061 64.7034C95.3429 74.1183 95.0969 89.6289 104.512 99.3472C106.049 100.934 106.009 103.466 104.422 105.003C102.835 106.541 100.303 106.5 98.766 104.914C86.2768 92.022 86.6031 71.4467 99.4948 58.9575C112.387 46.4683 132.962 46.7946 145.451 59.6864C153.397 67.8887 156.151 79.2017 153.793 89.5483C153.302 91.7022 151.158 93.0504 149.005 92.5595C146.851 92.0686 145.502 89.9246 145.993 87.7707C147.776 79.95 145.69 71.431 139.705 65.2528Z" />
<path fill-rule="evenodd" clip-rule="evenodd" d="M118.48 77.5982C119.98 76.9818 121.704 77.3324 122.845 78.486L195.845 152.329C196.979 153.476 197.313 155.193 196.691 156.682C196.069 158.171 194.614 159.141 193 159.141H166.441L181.264 193.398C182.136 195.414 181.22 197.755 179.213 198.644L162.705 205.955C161.731 206.387 160.624 206.412 159.631 206.024C158.638 205.636 157.84 204.868 157.416 203.89L141.985 168.33L122.629 185.207C121.447 186.238 119.772 186.483 118.344 185.833C116.916 185.184 116 183.761 116 182.192V81.2981C116 79.6761 116.98 78.2146 118.48 77.5982ZM124 91.0339V173.397L140.849 158.706C141.81 157.868 143.114 157.538 144.359 157.819C145.603 158.1 146.639 158.958 147.147 160.129L163.151 197.009L172.347 192.936L156.681 156.729C156.146 155.493 156.269 154.071 157.009 152.945C157.748 151.819 159.005 151.141 160.352 151.141H183.421L124 91.0339Z" />
</svg>
