<svg class="icon-roll" viewBox="0 0 32 32" version="1.1" xmlns="http://www.w3.org/2000/svg" xmlns:xlink="http://www.w3.org/1999/xlink">
    <g stroke="none" stroke-width="1" fill="none" fill-rule="evenodd">
        <g transform="translate(-15.000000, -274.000000)" fill="#000000" fill-rule="nonzero">
            <g id="icon-roll" transform="translate(15.000000, 274.000000)">
                <path d="M6.80851064,0 C2.99028853,0 0,2.09425999 0,4.76592553 C0,7.43759107 2.99028853,9.53191489 6.80851064,9.53191489 C10.6267327,9.53191489 13.6170213,7.43759107 13.6170213,4.76592553 C13.6169574,2.09425999 10.6266689,0 6.80851064,0 Z M6.80851064,8.170231 C3.85632837,8.170231 1.36174043,6.61105731 1.36174043,4.76598936 C1.36174043,2.92092141 3.8563922,1.36174772 6.80851064,1.36174772 C9.76062907,1.36174772 12.2552809,2.92085758 12.2552809,4.76592553 C12.2552809,6.61099348 9.76062907,8.170231 6.80851064,8.170231 Z" ></path>
                <path d="M6.80851064,2.72340426 C5.2820332,2.72340426 4.08510638,3.62078723 4.08510638,4.76595745 C4.08510638,5.91112766 5.2820332,6.80851064 6.80851064,6.80851064 C8.33498807,6.80851064 9.53191489,5.91112766 9.53191489,4.76595745 C9.53191489,3.62078723 8.33492425,2.72340426 6.80851064,2.72340426 Z M6.80851064,5.44682979 C5.98875109,5.44682979 5.44684043,5.03697872 5.44684043,4.76595745 C5.44684043,4.495 5.98881491,4.08508511 6.80851064,4.08508511 C7.62827019,4.08508511 8.17018085,4.49493617 8.17018085,4.76595745 C8.17018085,5.03697872 7.62820636,5.44682979 6.80851064,5.44682979 Z" ></path>
                <path d="M12.9361511,4.08516869 C12.5603225,4.08516869 12.2552809,4.38294766 12.2552809,4.7498283 L12.2552809,27.3475697 C12.2552809,29.1487617 9.76062907,30.6707431 6.80851064,30.6707431 C3.8563922,30.6707431 1.36174043,29.1486994 1.36174043,27.3475697 L1.36174043,4.74976599 C1.36174043,4.38288535 1.05669883,4.08510638 0.680870213,4.08510638 C0.3050416,4.08510638 0,4.38288535 0,4.74976599 L0,27.3475073 C0,29.9555502 2.99028853,32 6.80851064,32 C10.6267327,32 13.6170213,29.9555502 13.6170213,27.3475073 L13.6170213,4.74976599 C13.6169574,4.38288535 13.3119797,4.08516869 12.9361511,4.08516869 Z" ></path>
                <path d="M31.8074924,21.9863712 C31.5508155,21.720855 31.1335306,21.720855 30.8768537,21.9863712 L25.8038458,27.2340808 L12.9134855,27.2340808 C12.550189,27.2340808 12.2553191,27.5391053 12.2553191,27.9149128 C12.2553191,28.2907202 12.550189,28.5957447 12.9134855,28.5957447 L26.0763798,28.5957447 C26.251426,28.5957447 26.4186361,28.5235575 26.542347,28.3955864 L31.8074924,22.9491225 C32.0641692,22.6834787 32.0641692,22.2518873 31.8074924,21.9863712 Z" ></path>
                <path d="M31.3365253,0 L6.79107206,0 C6.42487981,0 6.12765957,0.297717325 6.12765957,0.664598784 C6.12765957,1.03148024 6.42487981,1.32925988 6.79107206,1.32925988 L30.673175,1.32925988 L30.673175,21.2684696 L26.0294121,21.2684696 C25.6632198,21.2684696 25.3659996,21.5662492 25.3659996,21.9331307 L25.3659996,27.2502325 C25.3659996,27.617114 25.6632198,27.9148936 26.0294121,27.9148936 C26.3956043,27.9148936 26.6928245,27.617114 26.6928245,27.2502325 L26.6928245,22.5977295 L31.3365875,22.5977295 C31.7027798,22.5977295 32,22.2999498 32,21.9330684 L32,0.664598784 C31.9999378,0.297717325 31.7027176,0 31.3365253,0 Z" ></path>
            </g>
        </g>
    </g>
</svg>
