<svg class="icon-ship" viewBox="0 0 43 32" version="1.1" xmlns="http://www.w3.org/2000/svg" xmlns:xlink="http://www.w3.org/1999/xlink">
    <g id="Page-1" stroke="none" stroke-width="1" fill="none" fill-rule="evenodd">
        <g id="frontpage-mobile" transform="translate(-15.000000, -399.000000)" fill="#000000" fill-rule="nonzero">
            <g id="icon-ship" transform="translate(15.000000, 399.000000)">
                <path d="M34.8113555,10.2574468 L32.1042031,10.2574468 L32.9198594,0.767319149 C32.9213711,0.75012766 32.921623,0.733191489 32.921707,0.716255319 C32.921707,0.714808511 32.921875,0.713446809 32.921875,0.712 C32.921875,0.711744681 32.921875,0.711574468 32.921875,0.711319149 C32.921875,0.453021277 32.7680996,0.225361702 32.5420977,0.126382979 C32.540166,0.125531915 32.5383184,0.124510638 32.5363867,0.123659574 C32.5223613,0.117702128 32.507832,0.112595745 32.4932187,0.107659574 C32.4877598,0.10587234 32.4825527,0.103659574 32.4770937,0.101957447 C32.465168,0.0982978723 32.4529062,0.0954042553 32.4407285,0.0924255319 C32.4321621,0.0903829787 32.4239316,0.0879148936 32.4152812,0.086212766 C32.4046152,0.0840851064 32.3935293,0.0827234043 32.3826113,0.081106383 C32.3723652,0.0795744681 32.3622871,0.077787234 32.351957,0.0768510638 C32.3501934,0.0766808511 32.3485977,0.0763404255 32.346834,0.0761702128 C32.335748,0.0751489362 32.3248301,0.0753191489 32.3138281,0.074893617 C32.3064375,0.0746382979 32.2992148,0.073787234 32.2918242,0.073787234 L32.2839297,0.073787234 C32.2832578,0.073787234 32.2825859,0.073787234 32.281998,0.073787234 L19.4012305,0.073787234 C19.0535352,0.073787234 18.7713477,0.359744681 18.7713477,0.712085106 C18.7713477,1.06357447 19.0535352,1.35038298 19.4012305,1.35038298 L31.605252,1.35038298 L30.3517012,15.9354894 C30.3515332,15.9365957 30.3515332,15.9377021 30.3513652,15.9388085 L30.0350801,19.6188936 L8.14799609,19.6188936 L8.51408398,15.7892766 L12.6814727,15.7892766 C13.0294199,15.7892766 13.3113555,15.5034894 13.3113555,15.1509787 C13.3113555,14.7984681 13.0294199,14.5126809 12.6814727,14.5126809 L8.63619727,14.5126809 L9.40918945,6.428 L16.0418555,6.428 C16.3898027,6.428 16.6717383,6.14221277 16.6717383,5.78970213 C16.6717383,5.43719149 16.3898027,5.15140426 16.0418555,5.15140426 L9.53130273,5.15140426 L9.89478711,1.35038298 L16.8816992,1.35038298 C17.2285547,1.35038298 17.511582,1.06357447 17.511582,0.712085106 C17.511582,0.359744681 17.2285547,0.073787234 16.8816992,0.073787234 L9.32310547,0.073787234 C9.32276953,0.073787234 9.32251758,0.0738723404 9.32218164,0.0738723404 C9.02630469,0.073787234 8.76964844,0.284851064 8.70758398,0.577446809 C8.70716406,0.579574468 8.7064082,0.581617021 8.70598828,0.583744681 C8.70279687,0.599659574 8.70069727,0.615914894 8.69859766,0.632255319 C8.69800977,0.637446809 8.69691797,0.642382979 8.69641406,0.647574468 C8.69633008,0.648595745 8.69607812,0.649531915 8.69599414,0.650553191 L8.2656582,5.15140426 L0.629882812,5.15140426 C0.281935547,5.15140426 0,5.43719149 0,5.78970213 C0,6.14221277 0.281935547,6.428 0.629882812,6.428 L8.14354492,6.428 L7.37055273,14.5126809 L5.12321484,14.5126809 C4.77526758,14.5126809 4.49333203,14.7984681 4.49333203,15.1509787 C4.49333203,15.5034894 4.77526758,15.7892766 5.12321484,15.7892766 L7.24852344,15.7892766 L6.82759375,20.1910638 C6.82750977,20.1917447 6.82750977,20.1924255 6.82742578,20.1930213 L6.17663086,26.9997447 C6.17654687,27.0005106 6.17646289,27.0013617 6.17637891,27.0020426 L6.17612695,27.0045106 C6.17528711,27.0133617 6.17537109,27.0220426 6.17486719,27.0308936 C6.1742793,27.0426383 6.17310352,27.0541277 6.17310352,27.0660426 C6.17310352,27.0665532 6.1731875,27.0670638 6.1731875,27.0676596 C6.1731875,27.0840851 6.17436328,27.1002553 6.17553906,27.1164255 C6.17604297,27.121617 6.175875,27.1268936 6.17646289,27.132 C6.17814258,27.1485106 6.18091406,27.164766 6.18385352,27.1809362 C6.18469336,27.1857021 6.18511328,27.1905532 6.18603711,27.195234 C6.18847266,27.2074894 6.19191602,27.2193191 6.19510742,27.2313191 C6.19729102,27.2397447 6.19905469,27.2483404 6.20157422,27.2565957 C6.20233008,27.2588936 6.20333789,27.2611064 6.20400977,27.2634894 C6.23449609,27.3584681 6.28623047,27.4437447 6.35375391,27.5133617 C6.35501367,27.5146383 6.35602148,27.5160851 6.35728125,27.5172766 C6.364,27.5240851 6.37130664,27.5302128 6.37836133,27.5366809 C6.42178125,27.5770213 6.47082812,27.611234 6.52449414,27.6380426 C6.53566406,27.6436596 6.54666602,27.6495319 6.55808789,27.654383 C6.56153125,27.6559149 6.56522656,27.6569362 6.56875391,27.6582979 C6.58454297,27.6646809 6.60041602,27.6708085 6.61679297,27.676 C6.61830469,27.6764255 6.61973242,27.6766809 6.62124414,27.6771915 C6.63988867,27.6828085 6.65870117,27.6877447 6.67793359,27.6917447 C6.68045312,27.6922553 6.68305664,27.6924255 6.68549219,27.6929362 C6.70380078,27.6964255 6.72219336,27.6994043 6.74092187,27.7012766 C6.7413418,27.7012766 6.74167773,27.7013617 6.74209766,27.7014468 C6.76275781,27.7034894 6.78325,27.7045106 6.80357422,27.7045106 C6.80382617,27.7045106 6.80416211,27.7044255 6.80449805,27.7044255 L9.60856836,27.7044255 C9.91821875,30.0834043 11.9309043,31.9259574 14.361832,31.9259574 C16.7925918,31.9259574 18.8052773,30.0834043 19.1149277,27.7044255 L29.2181641,27.7044255 C29.5278984,30.0834043 31.5405,31.9259574 33.9713437,31.9259574 C36.4021035,31.9259574 38.414957,30.0834043 38.7246914,27.7044255 L41.5294336,27.7044255 C41.5298535,27.7044255 41.5303574,27.7045106 41.5307773,27.7045106 C41.5517734,27.7045106 41.5724336,27.703234 41.5929258,27.7011915 C41.5966211,27.7008511 41.6001484,27.7000851 41.6038437,27.6996596 C41.6202207,27.6977021 41.6365137,27.6954043 41.6524707,27.6921702 C41.6593574,27.6908085 41.6659922,27.6889362 41.6727949,27.6873191 C41.6851406,27.6844255 41.6975703,27.6813617 41.7096641,27.6777021 C41.7178945,27.675234 41.725873,27.6723404 41.7339355,27.6695319 C41.7442656,27.6659574 41.7545957,27.6622128 41.7647578,27.6580426 C41.7734922,27.6545532 41.7818066,27.6507234 41.7902891,27.6468936 C41.7995273,27.6425532 41.8087656,27.6381277 41.817752,27.6334468 C41.8263184,27.6290213 41.8345488,27.6244255 41.8427793,27.6196596 C41.8514297,27.6145532 41.8599961,27.6092766 41.8684785,27.6038298 C41.876373,27.5987234 41.8842676,27.5935319 41.8918262,27.5880851 C41.9003926,27.5820426 41.9085391,27.5756596 41.9168535,27.5691915 C41.9237402,27.5636596 41.9307109,27.5582128 41.9374297,27.5524255 C41.9460801,27.5450213 41.9542266,27.5372766 41.962457,27.5293617 C41.968168,27.5238298 41.9741309,27.518383 41.9796738,27.5125957 C41.9884082,27.5035745 41.9967227,27.4940426 42.0050371,27.4844255 C42.0094883,27.479234 42.0141074,27.4742128 42.0183906,27.4689362 C42.0276289,27.4573617 42.0360273,27.4454468 42.0444258,27.4334468 C42.0472812,27.4292766 42.0504727,27.4253617 42.0532441,27.4211064 C42.0634902,27.4055319 42.0731484,27.3895319 42.0820508,27.3730213 C42.0827227,27.372 42.0833945,27.3710638 42.0838145,27.3699574 C42.0933047,27.3522553 42.1020391,27.3341277 42.1098496,27.3154043 C42.1120332,27.3100426 42.1137129,27.3045106 42.1158125,27.2991489 C42.1209355,27.2859574 42.1259746,27.272766 42.1302578,27.2590638 C42.1330293,27.2502128 42.1350449,27.2411064 42.1374805,27.2321702 C42.140252,27.2215319 42.1431914,27.2109787 42.145543,27.2001702 C42.1476426,27.1905532 42.1489863,27.1806809 42.150582,27.1708936 C42.1520098,27.1622979 42.1538574,27.1538723 42.1549492,27.1451064 C42.1816563,26.9282553 42.6748965,22.9181277 42.8951875,20.3251064 C42.8954395,20.3226383 42.8955234,20.3200851 42.8957754,20.317617 C42.9591836,19.5701277 42.999832,18.9406809 42.999832,18.5553191 C42.999832,13.9799149 39.3265234,10.2574468 34.8113555,10.2574468 Z M31.9944355,11.5342128 L34.5713281,11.5342128 L34.2421934,15.3636596 L31.6653008,15.3636596 L31.9944355,11.5342128 Z M14.362,30.6492766 C12.4121348,30.6492766 10.8258379,29.0417872 10.8258379,27.0659574 C10.8258379,25.0901277 12.4122188,23.4826383 14.362,23.4826383 C16.3117813,23.4826383 17.8980781,25.0901277 17.8980781,27.0659574 C17.8980781,29.0417872 16.3117813,30.6492766 14.362,30.6492766 Z M33.9713437,30.6492766 C32.0215625,30.6492766 30.4353496,29.0417872 30.4353496,27.0659574 C30.4353496,25.0901277 32.0216465,23.4826383 33.9713437,23.4826383 C35.921209,23.4826383 37.5075059,25.0901277 37.5075059,27.0659574 C37.5075059,29.0417872 35.921209,30.6492766 33.9713437,30.6492766 Z M40.9728691,26.4274043 L38.7248594,26.4274043 C38.415293,24.0482553 36.4025234,22.205617 33.9715117,22.205617 C31.540668,22.205617 29.5278984,24.0483404 29.218332,26.4274043 L19.1151797,26.4274043 C18.8056133,24.0482553 16.7929277,22.205617 14.362,22.205617 C11.9310723,22.205617 9.91821875,24.0483404 9.60865234,26.4274043 L7.49694922,26.4274043 L8.0259668,20.8951489 L30.6123047,20.8951489 L30.6123047,20.8954894 C30.6126406,20.8954894 30.6128926,20.8954894 30.6132285,20.8954894 C30.6343086,20.8954894 30.6552207,20.8942979 30.6758809,20.8921702 C30.6797441,20.8918298 30.6835234,20.8909787 30.6873867,20.8904681 C30.7038477,20.8885106 30.7202246,20.8861277 30.7363496,20.8828936 C30.7433203,20.8814468 30.750123,20.8794894 30.7570098,20.8777872 C30.7696074,20.8747234 30.7822051,20.8717447 30.7944668,20.868 C30.8028652,20.8654468 30.8108438,20.862383 30.8189902,20.8594894 C30.8295723,20.8557447 30.8401543,20.8520851 30.8504004,20.8478298 C30.8592188,20.8441702 30.8677012,20.8400851 30.8762676,20.836 C30.8855898,20.8316596 30.8949121,20.8273191 30.9038984,20.8225532 C30.9124648,20.8179574 30.9208633,20.8130213 30.9293457,20.8080851 C30.9379961,20.8029787 30.9465625,20.7977872 30.9549609,20.7923404 C30.9631074,20.7869787 30.970834,20.7813617 30.9786445,20.7757447 C30.986959,20.7697872 30.9950215,20.7636596 31.003084,20.7572766 C31.0103066,20.7514043 31.0174453,20.7453617 31.0245,20.7391489 C31.0324785,20.7321702 31.0402891,20.7250213 31.0478477,20.717617 C31.0542305,20.7114043 31.0606133,20.7050213 31.0668281,20.6984681 C31.0743867,20.6904681 31.0816934,20.6822128 31.088916,20.6737872 C31.094543,20.6671489 31.1000859,20.6605106 31.1054609,20.6537021 C31.1124316,20.644766 31.1190664,20.6355745 31.1256172,20.6262979 C31.1305723,20.6193191 31.1353594,20.6123404 31.1400625,20.6051915 C31.1461934,20.5955745 31.1520723,20.5857021 31.1576992,20.5756596 C31.1619824,20.5681702 31.1663496,20.5606809 31.1702129,20.5530213 C31.1755039,20.5429787 31.1800391,20.532766 31.1848262,20.5224681 C31.1885215,20.5142128 31.1923008,20.5061277 31.1956602,20.497617 C31.1997754,20.4875745 31.2032188,20.4772766 31.2068301,20.4669787 C31.2099375,20.4578723 31.2132129,20.448766 31.2159844,20.4394043 C31.2187559,20.4295319 31.2210234,20.4194043 31.223543,20.4093617 C31.2259785,20.399234 31.228666,20.3891915 31.2305977,20.3788936 C31.2325293,20.3688511 31.2337051,20.3586383 31.2352168,20.3484255 C31.2367285,20.3378723 31.2384922,20.3274894 31.2395,20.316766 C31.239668,20.315234 31.2400039,20.3137872 31.2400879,20.3122553 L31.5557852,16.6399149 L34.8111875,16.6399149 C36.7410645,16.6399149 37.6114785,17.6531915 38.5328711,18.7260426 C39.2931816,19.611234 40.1420117,20.5988936 41.5848633,20.8398298 C41.4016094,22.803234 41.1053965,25.3237447 40.9728691,26.4274043 Z M41.6925313,19.5606809 C40.7565254,19.3673191 40.1806445,18.7005106 39.4829863,17.8882553 C38.6104727,16.8725106 37.5452988,15.6329362 35.5033867,15.4019574 L35.8292461,11.6106383 C39.1688008,12.1111489 41.7400664,15.034383 41.7400664,18.5554894 C41.7400664,18.7947234 41.7224297,19.1422979 41.6925313,19.5606809 Z" id="Shape"></path>
                <path d="M14.362,24.7254468 C13.0885449,24.7254468 12.0524297,25.7753191 12.0524297,27.0658723 C12.0524297,28.3564255 13.0885449,29.4062979 14.362,29.4062979 C15.6354551,29.4062979 16.6715703,28.3564255 16.6715703,27.0658723 C16.6715703,25.7754043 15.6354551,24.7254468 14.362,24.7254468 Z M14.362,28.1297021 C13.7830957,28.1297021 13.3121953,27.6525106 13.3121953,27.0658723 C13.3121953,26.479234 13.7830957,26.0020426 14.362,26.0020426 C14.9409043,26.0020426 15.4118047,26.479234 15.4118047,27.0658723 C15.4118047,27.6525106 14.9408203,28.1297021 14.362,28.1297021 Z" id="Shape"></path>
                <path d="M33.9713437,24.7254468 C32.6978887,24.7254468 31.6617734,25.7753191 31.6617734,27.0658723 C31.6617734,28.3564255 32.6978887,29.4062979 33.9713437,29.4062979 C35.2447988,29.4062979 36.2809141,28.3564255 36.2809141,27.0658723 C36.2809141,25.7754043 35.2447988,24.7254468 33.9713437,24.7254468 Z M33.9713437,28.1297021 C33.3924395,28.1297021 32.9215391,27.6525106 32.9215391,27.0658723 C32.9215391,26.479234 33.3924395,26.0020426 33.9713437,26.0020426 C34.550248,26.0020426 35.0211484,26.479234 35.0211484,27.0658723 C35.0211484,27.6525106 34.550248,28.1297021 33.9713437,28.1297021 Z" id="Shape"></path>
                <path d="M5.96289062,10.257617 L2.88351953,10.257617 C2.53557227,10.257617 2.25363672,10.5434043 2.25363672,10.8959149 C2.25363672,11.2484255 2.53557227,11.5342128 2.88351953,11.5342128 L5.96289062,11.5342128 C6.31083789,11.5342128 6.59277344,11.2484255 6.59277344,10.8959149 C6.59277344,10.5434043 6.31083789,10.257617 5.96289062,10.257617 Z" id="Shape"></path>
            </g>
        </g>
    </g>
</svg>
