<svg viewBox="0 0 12 21" version="1.1" xmlns="http://www.w3.org/2000/svg" xmlns:xlink="http://www.w3.org/1999/xlink">
    <g stroke="none" stroke-width="1" fill="none" fill-rule="evenodd">
        <g id="post-tablet" transform="translate(-42.000000, -38.000000)" fill="#008AC9">
            <path d="M42.8333195,47.1054697 L51.46553,38.4732591 C52.0459986,37.8927905 52.9871241,37.8927905 53.5675927,38.4732591 C54.1480612,39.0537277 54.1480612,39.9948532 53.5675927,40.5753217 L45.6429144,48.5 L53.5675927,56.4246783 C54.1480612,57.0051468 54.1480612,57.9462723 53.5675927,58.5267409 C52.9871241,59.1072095 52.0459986,59.1072095 51.46553,58.5267409 L42.8333195,49.8945303 C42.6884736,49.8240956 42.5526966,49.7287337 42.4324073,49.6084445 C42.1275685,49.3036057 41.9828188,48.8993003 41.9981582,48.5 C41.9828188,48.1006997 42.1275685,47.6963943 42.4324073,47.3915555 C42.5526966,47.2712663 42.6884736,47.1759044 42.8333195,47.1054697 Z" id="Combined-Shape"></path>
        </g>
    </g>
</svg>
