<svg width="256" height="256" viewBox="0 0 256 256" xmlns="http://www.w3.org/2000/svg"  fill="none"><defs><clipPath id="a" class="frame-clip frame-clip-def"><rect rx="0" ry="0" width="256" height="256"/></clipPath></defs><g clip-path="url(#a)"><g class="fills"><rect width="256" height="256" class="frame-background" style="fill: rgb(255, 255, 255); fill-opacity: 1;" ry="0" rx="0"/></g><g class="frame-children"><path d="M197.523 219.307c9.518-2.082 18.037-7.967 23.351-16.133 2.896-4.45 4.821-8.976 5.637-13.249l.636-3.33 6.272-.278c4.658-.207 7.047-.569 9.283-1.407 5.562-2.087 9.605-6.077 11.913-11.758l1.215-2.991.141-57.364c.093-37.753-.042-58.353-.395-60.256-1.201-6.48-5.412-11.899-11.458-14.746l-3.385-1.594-70.513-.136c-77.805-.151-73.393-.323-78.756 3.068-3.297 2.085-5.44 4.61-7.366 8.681-1.498 3.166-1.615 3.849-1.805 10.498l-.202 7.112-13.607.008c-14.805.008-18.436.469-22.542 2.859-2.211 1.288-39.041 41.621-41.957 45.949-.79 1.171-1.961 3.41-2.602 4.975C.247 121.984.212 122.649.051 144.3c-.181 24.376-.004 26.5 2.625 31.422 3.176 5.947 8.626 9.395 16.484 10.43l4.481.59.357 2.845c.854 6.786 4.5 13.768 10.095 19.326 7.795 7.745 17.645 11.538 28.594 11.011 15.825-.76 29.258-11.385 34.048-26.931.601-1.95 1.092-4.219 1.092-5.043v-1.497H152.326l.836 4.217c1.554 7.833 6.525 15.986 12.738 20.893 4.103 3.24 11.511 6.725 16.373 7.703 4.792.963 10.957.98 15.25.041Zm-14.057-21.912c-3.388-1.595-6.311-4.444-8.149-7.944-1.78-3.39-1.699-9.578.172-13.083 1.842-3.453 4.719-6.114 8.426-7.796 2.65-1.202 3.54-1.353 6.768-1.145 6.052.39 10.67 3.459 13.354 8.875 6.488 13.094-7.373 27.306-20.571 21.093Zm-129.98-.038c-2.998-1.421-5.793-4.06-7.33-6.924-.943-1.757-1.165-3.005-1.165-6.566.001-3.756.211-4.822 1.445-7.324 1.731-3.509 4.694-6.296 8.567-8.057 2.442-1.111 3.39-1.264 6.57-1.057 13.365.867 19.995 16.049 11.304 25.884-1.854 2.097-4.405 3.808-7.266 4.871-2.786 1.035-9.103.604-12.125-.827Zm-26.461-72.453c-.572-.569-1.041-1.591-1.041-2.272 0-.896 4.351-6.035 15.748-18.602l15.749-17.364 10.802-.018c10.122-.017 10.868.047 11.844 1.017 1 .994 1.041 1.724 1.041 18.708 0 15.72-.095 17.779-.862 18.62-.812.892-2.324.946-26.55.946-24.995 0-25.718-.028-26.731-1.035Z" style="stroke-width: 0.264583; fill: rgb(0, 0, 0);" class="fills"/></g></g></svg>