<svg width="256" xmlns="http://www.w3.org/2000/svg" height="256" fill="none"><defs><clipPath id="a" class="frame-clip frame-clip-def"><rect rx="0" ry="0" width="256" height="256"/></clipPath></defs><g clip-path="url(#a)"><g class="fills"><rect rx="0" ry="0" width="256" height="256" class="frame-background"/></g><g class="frame-children"><path d="M134.977 119.838c6.304-.595 11.684 1.098 16.073 5.599a15.933 15.933 0 0 1 3.377 5.02c.383.851.741 1.052 1.724.829 10.504-2.617 19.213 2.1 22.94 12.308.302.792.558 1.044 1.452.944 13.732-1.689 23.268 9.2 19.861 22.678-3.583 14.233-7.125 28.496-10.749 42.698-7.483 29.496-35.318 46.255-64.797 38.983-8.758-2.162-17.504-4.253-26.193-6.68-19.119-5.318-31.391-17.72-36.893-36.759-5.576-19.282-10.979-38.627-16.484-57.92-2.401-8.407 1.985-15.664 10.483-17.612 13.801-3.156 26.885 4.536 30.906 18.121.44 1.462.891 2.995 1.696 4.474.187-.683.363-1.438.55-2.122 6.283-24.945 12.525-49.921 18.808-74.867 1.904-7.57 6.513-12.64 14.087-14.447 13.638-3.277 25.391 9.059 22.019 23.004-2.492 10.172-5.095 20.324-7.657 30.506-.32 1.723-.752 3.427-1.203 5.243Zm33.092 106.83c4.621-4.744 8.038-10.251 9.719-16.659 4.069-15.581 7.884-31.159 11.841-46.759.451-1.816.151-3.554-1.02-5.051-1.501-1.992-3.531-2.92-6.007-2.471-2.505.49-4.199 2.022-4.867 4.563-1.131 4.286-2.109 8.621-3.31 12.917-1.133 4.031-5.326 5.616-8.749 3.406-2.054-1.325-2.929-3.74-2.233-6.576 1.58-6.356 3.201-12.682 4.781-19.038.941-3.857-.868-7.404-4.334-8.696-4.007-1.502-8.275.786-9.425 5.183-1.67 6.479-3.198 12.937-4.909 19.386-.825 3.183-3.827 4.95-6.841 4.244-3.167-.756-4.92-3.692-4.228-7.038.292-1.427.696-2.836 1.059-4.274 1.649-6.622 3.308-13.172 4.957-19.793.754-3.173-.472-6.226-3.006-7.843-2.616-1.676-5.855-1.475-8.358.471-1.463 1.133-2.16 2.768-2.622 4.513-1.894 7.642-3.788 15.283-5.752 22.935-.697 2.837-2.511 4.532-5.007 4.839-4.213.496-7.202-3.163-6.093-7.591 3.867-15.477 7.775-30.924 11.641-46.401 2.464-9.876 4.968-19.722 7.431-29.598.903-3.632-.304-6.797-3.163-8.401-4.452-2.525-9.359-.141-10.754 5.277-7.098 28.2-14.184 56.472-21.282 84.672-1.188 4.622-2.265 9.263-3.495 13.855-1.034 3.725-4.85 5.398-8.086 3.706-1.735-.901-2.592-2.481-3.127-4.329-2.349-8.307-4.668-16.654-7.089-24.95-2.211-7.635-9.208-11.849-16.927-10.274-2.647.512-3.047 1.228-2.323 3.848 5.453 19.192 10.835 38.394 16.359 57.575 4.287 14.856 13.863 24.574 28.805 28.707a556.183 556.183 0 0 0 27.506 6.953c14.987 3.471 27.935-.756 38.908-11.308ZM230.571 42.311a8.178 8.178 0 0 0 0-11.611L209.533 9.695c-2.273-2.269-6.026-2.269-8.299.053-2.22 2.322-2.061 6.017.212 8.286L214.132 30.7h-65.756a5.795 5.795 0 0 0-5.815 5.806 5.794 5.794 0 0 0 5.815 5.805h65.756l-12.686 12.667c-2.167 2.163-2.432 5.699-.423 8.022a5.894 5.894 0 0 0 4.387 2.005c1.48 0 2.96-.58 4.123-1.689l21.038-21.005ZM25.595 42.311a8.177 8.177 0 0 1 0-11.611L46.632 9.695c2.273-2.269 6.026-2.269 8.299.053 2.22 2.322 2.062 6.017-.211 8.286L42.034 30.7h65.756a5.794 5.794 0 0 1 5.814 5.806 5.793 5.793 0 0 1-5.814 5.805H42.034L54.72 54.978c2.167 2.163 2.431 5.699.423 8.022a5.895 5.895 0 0 1-4.388 2.005c-1.48 0-2.96-.58-4.123-1.689L25.595 42.311Z" style="fill: rgb(0, 0, 0); fill-opacity: 1;" class="fills"/></g></g></svg>