<svg width="256" height="256" viewBox="0 0 256 256" fill="none" xmlns="http://www.w3.org/2000/svg">
<path fill-rule="evenodd" clip-rule="evenodd" d="M22.1971 51.6781C20.1315 52.5992 18.0239 54.9551 17.4369 56.999C16.6929 59.5905 16.7799 132.142 17.5284 133.547C18.9175 136.151 21.7221 136.656 23.7196 134.66L24.9472 133.434V96.1981V58.9626H102.2H179.453V95.7091C179.453 122.688 179.608 132.745 180.035 133.547C181.424 136.151 184.228 136.656 186.226 134.66C187.258 133.629 187.453 132.955 187.453 130.414V127.395L212.079 127.398C227.034 127.399 237.416 127.597 238.514 127.902C241.054 128.607 243.388 130.292 245.31 132.809C247.993 136.323 247.903 136.386 240.183 136.386C233.658 136.386 233.365 136.431 232.183 137.612C231.014 138.779 230.955 139.129 230.955 144.922C230.955 152.616 231.49 154.436 234.688 157.632C237.6 160.541 239.789 161.361 244.639 161.361H247.956V170.352V179.343H242.813H237.67L236.121 176.221C226.878 157.587 200.026 157.596 190.78 176.236C189.759 178.295 188.963 179.322 188.464 179.226C187.808 179.1 187.669 176.863 187.453 162.995C187.179 145.345 187.247 145.71 184.092 145.08C182.75 144.812 182.249 145.004 180.973 146.279L179.453 147.797V163.57V179.343H137.975H96.4971L95.4566 176.993C91.0274 166.991 79.8245 160.83 68.8621 162.367C60.9538 163.475 52.991 169.226 49.6771 176.222L48.198 179.345L36.6976 179.219L25.1972 179.093V174.598V170.102L34.7945 169.967L44.3924 169.831L45.4199 168.526C46.775 166.805 46.7185 165.228 45.2414 163.512L44.0344 162.11H23.1971H2.35985L1.15281 163.512C-0.327247 165.231 -0.380249 166.806 0.982802 168.536L2.01884 169.853H9.4831H16.9469L16.9579 174.972C16.9664 178.865 17.1889 180.571 17.8874 182.09C20.036 186.765 21.8116 187.286 35.7101 187.313L46.7225 187.335L47.332 191.163C50.6889 212.236 76.8544 220.067 91.1574 204.278C94.0115 201.127 96.8461 195.393 97.2396 191.973C97.3911 190.658 97.6171 189.077 97.7421 188.459L97.9691 187.335H142.857H187.745L188.525 191.456C189.542 196.83 191.412 200.68 194.764 204.297C200.232 210.196 205.419 212.463 213.454 212.463C221.489 212.463 226.677 210.196 232.143 204.299C235.577 200.594 237.336 197.006 238.35 191.639L239.15 187.406L246.348 187.246L253.545 187.085L254.772 185.658L256 184.231L255.853 159.934C255.71 136.293 255.677 135.565 254.617 132.982C252.152 126.976 246.504 121.774 240.884 120.335C239.197 119.903 238.187 119.339 237.902 118.668C237.665 118.11 236.113 112.193 234.453 105.517L231.436 93.3804L232.998 92.0672L234.56 90.754L234.357 85.4728C234.182 80.9313 233.963 79.8219 232.788 77.5521C231.174 74.4347 228.244 71.3698 225.6 70.0341C222.064 68.2464 218.879 67.9537 202.972 67.9537H187.537L187.37 62.0845C187.221 56.8372 187.076 56.037 186.003 54.5335C185.342 53.6087 183.88 52.4334 182.753 51.9219C180.782 51.0278 177.699 50.9928 102.2 51.0008C37.7072 51.0078 23.4296 51.1287 22.1971 51.6781ZM221.804 77.0691C223.939 78.2355 225.936 80.9363 226.294 83.1421L226.586 84.9368H207.02H187.453V80.4158V75.8953L203.829 76.0451C218.297 76.178 220.391 76.2974 221.804 77.0691ZM116.349 107.779L97.9396 126.126L88.3193 116.548C82.1946 110.451 78.1984 106.851 77.3209 106.638C74.5068 105.958 71.8292 109.209 72.9587 111.933C73.2637 112.668 78.6379 118.359 84.9017 124.578C95.266 134.869 96.4431 135.886 97.9886 135.886C99.5582 135.886 101.228 134.346 120.069 115.524C138.632 96.9814 140.452 95.0168 140.452 93.5238C140.452 91.3345 138.558 89.4323 136.378 89.4323C134.916 89.4323 132.972 91.2131 116.349 107.779ZM226.352 106.041C228.072 112.977 229.474 118.822 229.468 119.028C229.461 119.234 220.005 119.403 208.454 119.403H187.453V106.415V93.4284H205.339H223.225L226.352 106.041ZM247.956 148.873V153.369H244.774C242.002 153.369 241.421 153.199 240.273 152.052C239.125 150.905 238.955 150.325 238.955 147.557V144.378H243.456H247.956V148.873ZM9.90812 146.337C8.10455 148.139 8.02255 149.994 9.67411 151.643L10.9012 152.869H37.8842C52.725 152.869 65.2314 152.73 65.6764 152.559C66.588 152.21 67.949 149.844 67.949 148.61C67.949 148.163 67.2915 147.141 66.4875 146.337L65.0259 144.877H38.1977H11.3697L9.90812 146.337ZM105.104 162.359C103.391 163.058 102.308 165.07 102.696 166.834C103.385 169.971 102.046 169.853 136.777 169.853H168.38L169.416 168.536C170.779 166.806 170.726 165.231 169.246 163.512L168.04 162.11L137.12 162.011C119.826 161.956 105.717 162.109 105.104 162.359ZM76.1993 170.61C80.5365 171.316 85.6207 175.282 87.8938 179.733C90.1274 184.106 90.1384 190.531 87.9208 194.896C81.3075 207.911 63.2489 207.938 56.8446 194.942C55.3656 191.94 55.2006 191.171 55.2186 187.346C55.2351 183.751 55.4511 182.65 56.6096 180.26C59.0657 175.192 64.1584 171.252 69.4151 170.352C71.6872 169.963 72.3827 169.989 76.1993 170.61ZM216.218 170.396C223.904 171.816 229.774 177.968 230.73 185.608C231.375 190.77 228.568 197.568 224.443 200.831C214.357 208.811 199.862 203.879 196.673 191.381C194.261 181.929 200.819 172.03 210.567 170.408C212.018 170.167 213.219 169.943 213.237 169.911C213.256 169.879 214.597 170.097 216.218 170.396ZM68.0695 180.311C61.9323 184.157 63.3204 193.253 70.3666 195.362C74.3693 196.56 79.4895 193.539 80.241 189.537C81.319 183.797 78.3114 179.771 72.7112 179.457C70.3396 179.325 69.3526 179.506 68.0695 180.311ZM209.529 180.19C204.568 182.632 203.851 190.319 208.262 193.785C211.7 196.486 216.163 196.218 219.26 193.124C222.128 190.259 222.445 185.834 220.026 182.44C217.939 179.511 213.041 178.462 209.529 180.19Z" fill="black"/>
</svg>
