<svg width="256" height="256" viewBox="0 0 256 256" fill="none" xmlns="http://www.w3.org/2000/svg">
<path fill-rule="evenodd" clip-rule="evenodd" d="M134.435 40.3189C135.422 39.8994 136.535 39.8936 137.526 40.3026L223.526 75.8026C225.023 76.4206 226 77.8804 226 79.5V177C226 178.62 225.023 180.079 223.526 180.697L137.526 216.197C136.535 216.606 135.422 216.601 134.435 216.181L50.935 180.681C49.4585 180.053 48.5 178.604 48.5 177V161.5H12C9.79086 161.5 8 159.709 8 157.5C8 155.291 9.79086 153.5 12 153.5H48.5V140H33.5C31.2909 140 29.5 138.209 29.5 136C29.5 133.791 31.2909 132 33.5 132H48.5V118.5H4C1.79086 118.5 0 116.709 0 114.5C0 112.291 1.79086 110.5 4 110.5H48.5V79.5C48.5 77.8957 49.4585 76.4466 50.935 75.8189L134.435 40.3189ZM56.5 118.5H62.5C64.7091 118.5 66.5 116.709 66.5 114.5C66.5 112.291 64.7091 110.5 62.5 110.5H56.5V85.5138L132 117.161V206.453L56.5 174.354V161.5H71C73.2091 161.5 75 159.709 75 157.5C75 155.291 73.2091 153.5 71 153.5H56.5V140H92C94.2091 140 96 138.209 96 136C96 133.791 94.2091 132 92 132H56.5V118.5ZM140 206.521L218 174.324V85.4465L140 117.191V206.521ZM136.023 110.172L211.453 79.4738L179.006 66.0798L104.631 97.0143L136.023 110.172ZM94.256 92.6653L168.551 61.764L136.023 48.3368L62.7849 79.4739L94.256 92.6653Z" fill="black"/>
</svg>
