<svg width="256" height="256" viewBox="0 0 256 256" fill="none" xmlns="http://www.w3.org/2000/svg">
<path fill-rule="evenodd" clip-rule="evenodd" d="M74.5 55C65.8122 55 59 59.8328 59 66C59 72.1672 65.8122 77 74.5 77C83.1878 77 90 72.1672 90 66C90 59.8328 83.1874 55 74.5 55ZM74.5 69.6668C69.8344 69.6668 66.7502 67.4596 66.7502 66C66.7502 64.5408 69.8348 62.3332 74.5 62.3332C79.1656 62.3332 82.2498 64.5404 82.2498 66C82.2498 67.4596 79.1652 69.6668 74.5 69.6668Z" fill="black"/>
<path fill-rule="evenodd" clip-rule="evenodd" d="M36 65.8334C36 65.7902 36.0007 65.747 36.0022 65.7041C36.2234 50.9164 53.0208 39.3229 74.5942 39.0066C74.6691 39.0022 74.7446 39 74.8206 39H216.179C218.288 39 220 40.7171 220 42.8331V165.5C220 165.913 219.935 166.311 219.814 166.684C220.24 168.036 219.935 169.582 218.898 170.655L188.766 201.853C188.058 202.587 187.101 203 186.099 203H113.757C109.415 214.631 94.1621 223 75.5 223C53.3483 223 36 211.209 36 196.167V65.8334ZM209.523 169.333H189.436V190.13L209.523 169.333ZM181.794 195.2V165.5C181.794 163.384 183.506 161.667 185.615 161.667H212.359V46.6665H103.324C110.475 51.473 114.885 58.1748 114.998 65.7048C114.999 65.7475 115 65.7904 115 65.8334V195.2H181.794ZM107.1 82.3893V196.167C107.1 206.555 92.6269 215.333 75.5 215.333C58.3731 215.333 43.9002 206.555 43.9002 196.167V82.3893C51.0502 88.8761 62.4403 93 75.5 93C88.5597 93 99.9498 88.8761 107.1 82.3893ZM107.1 65.9998C107.1 55.5472 92.6269 46.7145 75.5 46.7145C58.3731 46.7145 43.9002 55.5475 43.9002 66.0002C43.9002 76.4528 58.3727 85.2858 75.5 85.2858C92.6269 85.2858 107.1 76.4525 107.1 65.9998Z" fill="black"/>
</svg>
