<svg width="256" height="256" viewBox="0 0 256 256" fill="none" xmlns="http://www.w3.org/2000/svg">
<path fill-rule="evenodd" clip-rule="evenodd" d="M61.5334 12.8714C60.3708 13.3992 59.2096 14.4054 58.5356 15.4687C57.9305 16.4237 49.6091 36.0261 40.0436 59.0298L22.6516 100.854L20.3491 101.523C17.574 102.33 14.5385 104.816 13.2063 107.376C12.4596 108.81 12.1879 110.273 12.0573 113.562C11.9062 117.375 12.0069 118.103 12.9377 119.907C13.5156 121.027 14.6823 122.404 15.53 122.967C17.0473 123.975 17.2896 123.991 31.2256 123.991C45.197 123.991 45.3997 123.978 46.9102 122.96C49.7919 121.019 50.5041 119.389 50.5009 114.742C50.4977 109.42 50.0056 107.771 47.6219 105.097L45.6696 102.906L48.4266 96.2208L51.184 89.5353L70.0085 89.5344L88.833 89.5334L92.127 97.5803L95.4211 105.627L94.395 107.667C93.5323 109.383 93.369 110.435 93.369 114.273C93.369 118.458 93.4697 118.992 94.576 120.664C96.7252 123.914 97.1475 123.991 112.762 123.991C126.378 123.991 126.596 123.977 128.105 122.96C128.947 122.393 130.086 121.26 130.637 120.443C132.736 117.33 132.41 110.252 129.987 106.324C128.635 104.133 124.603 101.319 122.815 101.319C122.273 101.319 121.625 101.064 121.374 100.752C121.123 100.441 113.019 81.2087 103.366 58.015C91.6566 29.8819 85.4105 15.4111 84.6018 14.5419C82.4517 12.2307 81.2506 11.9895 71.9508 12.0003C64.5635 12.009 63.1791 12.1246 61.5334 12.8714ZM177.966 12.2738C169.875 13.3022 162.869 15.2633 156.398 18.31C151.547 20.5945 150.192 21.8287 149.311 24.7671C148.846 26.3188 148.966 27.3385 150.273 32.9812C152.039 40.6045 152.463 41.5377 154.886 43.1406C157.394 44.8002 159.932 44.7263 164.495 42.8613C170.581 40.3742 174.419 39.5698 181.404 39.3176C186.491 39.1345 188.308 39.2383 190.341 39.8291C193.821 40.8403 194.295 41.6415 194.295 46.5106V50.4483L189.873 50.715C173.768 51.6844 165.385 53.934 157.851 59.3082C154.232 61.8897 149.103 67.302 147.006 70.7536C140.519 81.4295 139.493 95.2913 144.422 105.662C147.167 111.438 152.702 117.1 158.371 119.93L160.424 120.955L155.927 122.553L151.43 124.152L144.309 131.16C140.392 135.015 136.863 138.852 136.467 139.687C136.071 140.521 134.615 146.871 133.233 153.796L130.72 166.388L127.517 169.637C125.734 171.445 124.051 172.785 123.721 172.658C123.395 172.534 121.944 172.775 120.496 173.196C118 173.921 117.377 174.444 108.445 183.306C102.619 189.088 98.6838 193.362 98.1259 194.514C96.9878 196.864 96.9742 200.272 98.0937 202.664C98.6612 203.876 105.385 210.885 118.382 223.811C137.3 242.625 137.885 243.159 140.179 243.688C142.161 244.146 142.941 244.115 145.083 243.492C147.495 242.791 148.141 242.234 157.242 233.005C162.632 227.538 167.196 222.52 167.634 221.576C168.064 220.651 168.421 219.06 168.428 218.04C168.439 216.362 168.712 215.923 171.282 213.456C172.845 211.955 174.53 210.609 175.025 210.464C175.519 210.319 181.232 209.148 187.718 207.861C194.205 206.574 200.196 205.237 201.032 204.89C202.681 204.205 215.149 192.191 216.518 189.968C217.422 188.501 242.576 118.52 243.61 114.596C244.092 112.771 244.12 111.806 243.735 110.376C243.113 108.069 240.54 105.159 238.536 104.498C237.53 104.166 236.929 103.627 236.745 102.894C236.35 101.322 233.805 98.5715 232.079 97.8505C230.022 96.9912 227.534 97.0874 224.46 98.1448C223.01 98.6436 221.651 99.0517 221.44 99.0517C221.23 99.0517 221.058 88.2665 221.058 75.0849C221.058 61.9033 220.849 48.5448 220.593 45.3992C219.367 30.3027 214.158 20.7777 204.545 16.0564C198.892 13.279 194.825 12.4125 186.584 12.2284C182.717 12.1423 178.839 12.1627 177.966 12.2738ZM97.2473 63.4563C108.768 91.1436 115.71 107.276 116.322 107.781C116.851 108.217 117.945 108.574 118.753 108.574C120.802 108.574 123.016 109.421 123.543 110.405C123.787 110.862 123.987 112.371 123.987 113.759V116.283H112.42H100.853V114.219C100.853 112.1 101.635 110.073 102.836 109.076C104.507 107.69 104.194 106.338 99.733 95.6481C97.3516 89.9415 94.9453 84.7827 94.386 84.1837C92.1502 81.79 92.4668 81.8208 70.0085 81.8208C47.5788 81.8208 47.8637 81.7936 45.6519 84.161C44.3011 85.6075 36.8956 103.432 36.8956 105.237C36.8956 106.291 37.2716 106.996 38.2913 107.854C39.0588 108.499 39.9129 109.027 40.1896 109.027C40.4663 109.027 41.1653 109.471 41.7428 110.013C42.6069 110.825 42.7924 111.466 42.7924 113.641V116.283H31.2256H19.6587V113.814C19.6587 110.342 20.8608 108.992 24.2215 108.688C25.7701 108.549 27.0452 108.141 27.6444 107.596C28.2073 107.083 36.021 88.88 46.6957 63.2142L64.7921 19.7021L71.9631 19.8141L79.1341 19.9256L97.2473 63.4563ZM195.576 20.8176C204.471 22.9887 209.638 28.41 211.725 37.7614C213.004 43.4907 213.326 51.343 213.336 77.0977L213.347 102.075L193.427 109.179C182.471 113.086 172.928 116.279 172.221 116.276C167.298 116.25 160.366 113.055 156.2 108.889C150.114 102.805 147.765 94.266 149.655 85.0892C151.032 78.3991 154.045 73.0444 159.026 68.4338C166.369 61.6385 173.218 59.4483 189.938 58.5491L199.87 58.015L200.825 56.7358C201.673 55.5999 201.797 54.7157 201.937 48.8595C202.137 40.464 201.731 38.8724 198.583 35.7205C195.397 32.5282 193.199 31.8739 184.77 31.6068C176.936 31.3583 171.86 32.0938 165.041 34.4658C162.545 35.3346 160.174 36.1585 159.773 36.2968C159.177 36.5022 158.826 35.676 157.845 31.7651C157.186 29.1342 156.646 26.9019 156.646 26.8044C156.646 26.7064 158.263 25.888 160.239 24.9852C164.574 23.0045 170.184 21.3359 174.79 20.6566C176.662 20.3809 178.703 20.0662 179.326 19.9574C181.651 19.5515 192.809 20.1424 195.576 20.8176ZM66.787 34.7918C65.399 35.7246 64.6057 37.3579 58.8041 51.2292C54.9957 60.3348 52.3534 67.2571 52.3403 68.164C52.328 69.0074 52.7281 70.3609 53.2293 71.1712C54.8215 73.7472 55.6892 73.8855 70.2353 73.8855C81.7795 73.8855 83.5626 73.7908 84.8027 73.112C86.3917 72.2422 87.7094 69.8635 87.6781 67.9223C87.6663 67.2117 84.7551 59.6991 81.2088 51.2278C75.4145 37.3878 74.6044 35.72 73.2245 34.7905C71.2287 33.446 68.7883 33.4464 66.787 34.7918ZM74.4561 55.1809C76.7513 60.7302 78.6292 65.4233 78.6283 65.6102C78.6274 65.797 74.7486 65.9503 70.0085 65.9503C65.2684 65.9503 61.3887 65.797 61.3869 65.6102C61.3801 64.9631 69.7246 45.0918 70.0026 45.0918C70.1564 45.0918 72.1604 49.6317 74.4561 55.1809ZM183.188 70.5332C178.5 71.0261 172.061 72.8839 169.03 74.6174C163.828 77.5924 160.742 82.0566 159.778 88.0031C158.474 96.0377 162.244 103.644 169.223 107.057C171.381 108.112 172.54 108.352 176.19 108.499C181.339 108.706 184.291 108.158 188.274 106.258C192.027 104.467 196.896 99.8974 198.72 96.4539C201.188 91.793 201.554 89.7479 201.538 80.718C201.523 72.1543 201.411 71.6147 199.428 70.5586C198.29 69.9528 188.844 69.9378 183.188 70.5332ZM193.759 83.7479C193.604 89.1616 193.469 89.9814 192.399 92.0324C190.921 94.8641 187.239 98.3593 184.415 99.6108C182.095 100.639 176.837 101.18 174.12 100.67C172.253 100.32 169.217 97.8052 168.101 95.6849C167.117 93.8149 167.197 88.3336 168.24 86.1353C169.993 82.4434 174.878 79.7114 181.594 78.6667C186.089 77.9679 186.997 77.8813 190.598 77.8078L193.931 77.7398L193.759 83.7479ZM229.526 105.628C229.609 105.879 221.657 114.099 211.854 123.896L194.031 141.708L191.782 140.707C188.384 139.195 183.616 139.302 179.901 140.974C176.617 142.452 173.411 145.61 171.926 148.832C170.521 151.879 170.521 158.225 171.926 161.272C175.44 168.895 184.791 172.583 192.11 169.233C199.723 165.749 203.277 157.752 200.658 150.001L199.641 146.992L217.267 129.362C233.384 113.241 236.517 110.47 236.14 112.671C236.077 113.036 230.247 129.557 223.184 149.384L210.342 185.433L204.7 191.266C201.597 194.474 198.446 197.376 197.697 197.715C196.949 198.054 191.029 199.378 184.543 200.656C178.056 201.934 172.074 203.26 171.248 203.604C170.423 203.947 168.475 205.449 166.919 206.942L164.09 209.657L147.895 193.462C138.987 184.554 131.698 177.056 131.698 176.8C131.698 176.543 132.837 175.218 134.228 173.855C135.619 172.492 137.053 170.816 137.414 170.132C137.774 169.447 139.205 163.229 140.592 156.314C141.979 149.4 143.287 143.43 143.5 143.049C143.712 142.668 146.445 139.813 149.574 136.706L155.262 131.056L191.676 118.018C211.703 110.847 228.378 105.024 228.731 105.077C229.085 105.13 229.443 105.378 229.526 105.628ZM20.9846 129.398L19.6587 130.723V147.105C19.6587 164.296 19.798 165.596 21.7204 166.333C23.2984 166.939 25.1609 166.597 26.2564 165.502C27.3368 164.422 27.37 164.191 27.37 157.793V151.198H71.7893H116.209L116.356 157.737C116.495 163.935 116.56 164.339 117.602 165.446C119.063 166.999 121.601 167.055 123.001 165.566C123.978 164.526 123.987 164.349 123.987 147.407V130.298L122.874 129.185C121.432 127.744 119.439 127.737 117.775 129.165C116.504 130.258 116.503 130.265 116.356 136.874L116.209 143.489H71.7893H27.37L27.3554 137.028C27.3405 130.292 27.174 129.627 25.2453 128.599C23.6477 127.749 22.3998 127.983 20.9846 129.398ZM189.079 147.974C193.404 149.969 195.025 154.356 192.945 158.433C191.652 160.965 189.65 162.228 186.614 162.426C177.968 162.987 175.242 151.566 183.164 147.969C185.476 146.919 186.795 146.92 189.079 147.974ZM142.232 198.689C152.405 208.847 160.729 217.476 160.729 217.862C160.729 218.249 159.653 219.627 158.339 220.924L155.95 223.283L136.77 204.106L117.59 184.929L120.081 182.573C121.451 181.278 122.834 180.218 123.153 180.218C123.473 180.218 132.058 188.53 142.232 198.689ZM131.467 209.688L150.509 228.727L147.114 232.165C145.246 234.055 143.337 235.812 142.87 236.069C142.132 236.475 139.592 234.111 123.479 218.021C112.192 206.75 104.936 199.171 104.936 198.652C104.936 197.9 111.482 190.647 112.161 190.647C112.305 190.647 120.993 199.215 131.467 209.688Z" fill="black"/>
</svg>
