<svg width="256" height="256" viewBox="0 0 256 256" fill="none" xmlns="http://www.w3.org/2000/svg">
    <path d="M134.977 119.838C141.281 119.243 146.661 120.936 151.05 125.437C152.486 126.879 153.632 128.583 154.427 130.457C154.81 131.308 155.168 131.509 156.151 131.286C166.655 128.669 175.364 133.386 179.091 143.594C179.393 144.386 179.649 144.638 180.543 144.538C194.275 142.849 203.811 153.738 200.404 167.216C196.821 181.449 193.279 195.712 189.655 209.914C182.172 239.41 154.337 256.169 124.858 248.897C116.1 246.735 107.354 244.644 98.665 242.217C79.546 236.899 67.274 224.497 61.772 205.458C56.196 186.176 50.793 166.831 45.288 147.538C42.887 139.131 47.273 131.874 55.771 129.926C69.572 126.77 82.656 134.462 86.677 148.047C87.117 149.509 87.568 151.042 88.373 152.521C88.56 151.838 88.736 151.083 88.923 150.399C95.206 125.454 101.448 100.478 107.731 75.532C109.635 67.962 114.244 62.892 121.818 61.085C135.456 57.808 147.209 70.144 143.837 84.089C141.345 94.261 138.742 104.413 136.18 114.595C135.86 116.318 135.428 118.022 134.977 119.838ZM168.069 226.668C172.69 221.924 176.107 216.417 177.788 210.009C181.857 194.428 185.672 178.85 189.629 163.25C190.08 161.434 189.78 159.696 188.609 158.199C187.108 156.207 185.078 155.279 182.602 155.728C180.097 156.218 178.403 157.75 177.735 160.291C176.604 164.577 175.626 168.912 174.425 173.208C173.292 177.239 169.099 178.824 165.676 176.614C163.622 175.289 162.747 172.874 163.443 170.038C165.023 163.682 166.644 157.356 168.224 151C169.165 147.143 167.356 143.596 163.89 142.304C159.883 140.802 155.615 143.09 154.465 147.487C152.795 153.966 151.267 160.424 149.556 166.873C148.731 170.056 145.729 171.823 142.715 171.117C139.548 170.361 137.795 167.425 138.487 164.079C138.779 162.652 139.183 161.243 139.546 159.805C141.195 153.183 142.854 146.633 144.503 140.012C145.257 136.839 144.031 133.786 141.497 132.169C138.881 130.493 135.642 130.694 133.139 132.64C131.676 133.773 130.979 135.408 130.517 137.153C128.623 144.795 126.729 152.436 124.765 160.088C124.068 162.925 122.254 164.62 119.758 164.927C115.545 165.423 112.556 161.764 113.665 157.336C117.532 141.859 121.44 126.412 125.306 110.935C127.77 101.059 130.274 91.213 132.737 81.337C133.64 77.705 132.433 74.54 129.574 72.936C125.122 70.411 120.215 72.795 118.82 78.213C111.722 106.413 104.636 134.685 97.538 162.885C96.35 167.507 95.273 172.148 94.043 176.74C93.009 180.465 89.193 182.138 85.957 180.446C84.222 179.545 83.365 177.965 82.83 176.117C80.481 167.81 78.162 159.463 75.741 151.167C73.53 143.532 66.533 139.318 58.814 140.893C56.167 141.405 55.767 142.121 56.491 144.741C61.944 163.933 67.326 183.135 72.85 202.316C77.137 217.172 86.713 226.89 101.655 231.023C110.763 233.574 119.935 235.893 129.161 237.976C144.148 241.447 157.096 237.22 168.069 226.668ZM230.571 42.311C231.337 41.5508 231.945 40.6464 232.36 39.65C232.776 38.6536 232.989 37.5849 232.989 36.5055C232.989 35.4261 232.776 34.3574 232.36 33.361C231.945 32.3646 231.337 31.4602 230.571 30.7L209.533 9.695C207.26 7.426 203.507 7.426 201.234 9.748C199.014 12.07 199.173 15.765 201.446 18.034L214.132 30.7H148.376C147.612 30.6974 146.856 30.8457 146.15 31.1364C145.444 31.4271 144.802 31.8546 144.261 32.3941C143.721 32.9337 143.293 33.5747 143.001 34.2803C142.709 34.986 142.56 35.7424 142.561 36.506C142.56 37.2696 142.709 38.0259 143.001 38.7315C143.293 39.4371 143.721 40.0781 144.262 40.6175C144.802 41.157 145.444 41.5843 146.15 41.875C146.856 42.1656 147.612 42.3138 148.376 42.311H214.132L201.446 54.978C199.279 57.141 199.014 60.677 201.023 63C201.572 63.6247 202.246 64.1263 203.002 64.4718C203.758 64.8174 204.579 64.9991 205.41 65.005C206.89 65.005 208.37 64.425 209.533 63.316L230.571 42.311ZM25.595 42.311C24.8287 41.5508 24.2204 40.6465 23.8053 39.6501C23.3902 38.6537 23.1765 37.5849 23.1765 36.5055C23.1765 35.4261 23.3902 34.3573 23.8053 33.3609C24.2204 32.3645 24.8287 31.4602 25.595 30.7L46.632 9.695C48.905 7.426 52.658 7.426 54.931 9.748C57.151 12.07 56.993 15.765 54.72 18.034L42.034 30.7H107.79C108.554 30.6974 109.31 30.8457 110.016 31.1364C110.722 31.4272 111.364 31.8546 111.904 32.3942C112.444 32.9337 112.873 33.5748 113.165 34.2804C113.456 34.9861 113.606 35.7424 113.604 36.506C113.606 37.2695 113.456 38.0258 113.165 38.7314C112.873 39.437 112.444 40.078 111.904 40.6175C111.364 41.157 110.722 41.5843 110.016 41.8749C109.31 42.1656 108.554 42.3138 107.79 42.311H42.034L54.72 54.978C56.887 57.141 57.151 60.677 55.143 63C54.5944 63.6248 53.9198 64.1264 53.1635 64.4719C52.4073 64.8175 51.5865 64.9992 50.755 65.005C49.275 65.005 47.795 64.425 46.632 63.316L25.595 42.311Z" fill="black"/>
</svg>
