<svg width="256" height="256" viewBox="0 0 256 256" fill="none" xmlns="http://www.w3.org/2000/svg">
<path d="M112.5 70C115 62 130.767 62.9999 132.5 72.9999L119.5 128C123.667 111.167 131.7 76 134.5 66C138 53.5 157.2 59 155 70C153.772 76.1383 147.508 101.457 143 119.5C151.5 109.5 164.5 118.5 162.5 127.5C162.389 128 160 137.5 160 137.5L162 133.5C165.5 127 183.37 129 180 142C176.5 155.5 173 166.5 167 186.5C161.75 204 137 210 132 209C122 207 111 204.133 103 202C95.5 200 89.6389 193.5 87.5 190C82 181 53.5 134 48.5 126C43.5 118 60.0001 110.5 67.0001 119C72.6001 125.8 86.5 141.833 92.5 148.5L112.5 70Z" fill="white"/>
<path d="M143 119.5C147.508 101.457 153.772 76.1383 155 70C157.2 59 138 53.5 134.5 66C131.7 76 123.667 111.167 119.5 128L132.5 72.9999C130.767 62.9999 115 62 112.5 70L92.5 148.5C86.5 141.833 72.6001 125.8 67.0001 119C60.0001 110.5 43.5 118 48.5 126C53.5 134 82 181 87.5 190C89.6389 193.5 95.5 200 103 202C111 204.133 122 207 132 209C137 210 161.75 204 167 186.5C173 166.5 176.5 155.5 180 142C183.37 129 165.5 127 162 133.5L160 137.5C160 137.5 162.389 128 162.5 127.5C164.5 118.5 151.5 109.5 143 119.5ZM143 119.5C141.633 124.972 140.508 128.505 139.5 132.5L143 119.5Z" stroke="#797979" stroke-width="8" stroke-linecap="round" stroke-linejoin="round"/>
<path d="M189.5 63.5H242M242 63.5L226 47.5M242 63.5L226 79.5" stroke="#797979" stroke-width="8" stroke-linecap="round" stroke-linejoin="round"/>
<path d="M77 63H16.5M16.5 63L32.5 47M16.5 63L32.5 79" stroke="#797979" stroke-width="8" stroke-linecap="round" stroke-linejoin="round"/>
</svg>
