<svg width="256" height="256" viewBox="0 0 256 256" fill="none" xmlns="http://www.w3.org/2000/svg">
<path d="M4.26736 171.674H17.408C19.75 187.927 34.868 199.21 51.1736 196.876C64.2796 194.998 74.5764 184.736 76.4584 171.674H179.542C181.858 187.93 196.957 199.236 213.267 196.928C227.304 194.941 237.998 183.381 238.847 169.276L254.759 153.42C255.556 152.62 256.002 151.539 256 150.413V112.143C256 111.177 255.67 110.239 255.066 109.485L239.705 90.3497L247.04 75.772C248.092 73.6699 247.236 71.1179 245.127 70.0692C244.67 69.8409 244.177 69.6971 243.67 69.6453L220.394 67.1985L178.705 62.8161C151.347 59.7931 123.658 63.2691 97.908 72.9603C83.078 79.046 69.2672 87.3459 56.948 97.5789L48.79 104.356L42.9688 107.519L16.0642 117.937C15.8924 118.003 15.7257 118.079 15.5642 118.167C5.97048 123.384 0 133.406 0 144.298V167.423C0 169.771 1.90972 171.674 4.26736 171.674ZM46.934 188.684C35.151 188.684 25.6007 179.165 25.6007 167.423C25.6007 155.679 35.151 146.161 46.934 146.161C58.7152 146.161 68.2672 155.679 68.2672 167.423C68.2536 179.159 58.71 188.671 46.934 188.684ZM209.068 188.684C197.285 188.684 187.733 179.165 187.733 167.423C187.733 155.679 197.285 146.161 209.068 146.161C220.849 146.161 230.401 155.679 230.401 167.423C230.386 179.159 220.844 188.671 209.068 188.684ZM247.467 129.151H233.733L231.599 120.647H247.467V129.151ZM222.182 75.9382L236.628 77.4558L230.847 88.9795C230.104 90.464 230.294 92.2427 231.335 93.5388L246.267 112.143H226.134C223.776 112.143 221.868 114.048 221.868 116.396C221.868 116.741 221.91 117.088 221.995 117.423L226.26 134.432C226.734 136.327 228.441 137.655 230.399 137.655H247.465V148.651L237.568 158.514C237.568 158.471 237.53 158.429 237.517 158.386C237.096 157.1 236.587 155.846 235.993 154.631C235.864 154.368 235.746 154.1 235.609 153.835C234.995 152.65 234.302 151.506 233.536 150.413C233.382 150.191 233.212 149.987 233.054 149.771C232.312 148.765 231.507 147.81 230.642 146.909C230.528 146.786 230.42 146.649 230.297 146.53C229.344 145.578 228.328 144.691 227.255 143.872C227.007 143.685 226.764 143.502 226.517 143.324C225.42 142.526 224.271 141.803 223.078 141.159C222.92 141.074 222.75 141.007 222.587 140.926C221.451 140.351 220.28 139.849 219.08 139.425C218.84 139.339 218.611 139.242 218.372 139.161C217.052 138.735 215.705 138.399 214.338 138.157C214.049 138.107 213.755 138.069 213.486 138.026C212.024 137.792 210.547 137.667 209.066 137.655C208.08 137.655 207.102 137.711 206.142 137.804C205.823 137.833 205.51 137.894 205.196 137.937C204.556 138.017 203.915 138.102 203.297 138.226C202.925 138.299 202.568 138.396 202.2 138.481C201.646 138.614 201.09 138.745 200.545 138.906C200.165 139.017 199.799 139.149 199.427 139.277C198.91 139.455 198.394 139.633 197.891 139.837C197.524 139.986 197.162 140.149 196.799 140.313C196.312 140.531 195.835 140.739 195.361 141.003C195.007 141.19 194.656 141.377 194.311 141.576C193.851 141.836 193.403 142.113 192.958 142.398C192.622 142.611 192.294 142.824 191.969 143.052C191.542 143.358 191.116 143.677 190.689 144.005C190.382 144.242 190.075 144.476 189.78 144.727C189.352 145.08 188.965 145.456 188.568 145.829C188.295 146.08 188.022 146.326 187.762 146.59C187.335 147.014 186.969 147.44 186.58 147.866C186.363 148.117 186.153 148.355 185.927 148.61C185.474 149.163 185.052 149.736 184.648 150.311C184.531 150.482 184.399 150.634 184.285 150.804C183.772 151.562 183.295 152.342 182.854 153.148C182.728 153.377 182.625 153.619 182.505 153.854C182.201 154.441 181.903 155.031 181.651 155.64C181.516 155.963 181.399 156.294 181.267 156.626C181.059 157.162 180.84 157.697 180.67 158.251C180.55 158.616 180.453 158.995 180.351 159.369C180.201 159.901 180.056 160.427 179.924 160.967C179.833 161.367 179.766 161.767 179.693 162.175C179.634 162.499 179.552 162.814 179.505 163.141H133.465L146.658 110.573L200.746 107.889C202.167 107.818 203.458 107.047 204.191 105.832L222.182 75.9382ZM156.733 70.4099C157.731 70.4099 158.724 70.3461 159.719 70.3461C165.762 70.3409 171.8 70.6505 177.809 71.2769L212.826 74.9608L198.047 99.5046L148.821 101.937L156.733 70.4099ZM62.408 104.114C74.0608 94.4349 87.1268 86.5813 101.154 80.8278C116.085 75.0333 131.846 71.6403 147.846 70.7752L139.917 102.392L59.7032 106.381L62.408 104.114ZM8.533 144.298C8.52432 136.607 12.6892 129.511 19.4219 125.749L45.6544 115.591L137.733 111.016L124.667 163.17H76.4964C76.4496 162.843 76.3696 162.528 76.3092 162.206C76.238 161.78 76.1684 161.398 76.08 160.999C75.96 160.459 75.8144 159.931 75.6528 159.4C75.5504 159.024 75.4532 158.647 75.3332 158.28C75.1544 157.728 74.9444 157.192 74.736 156.655C74.6024 156.325 74.488 155.993 74.3508 155.669C74.0868 155.062 73.788 154.47 73.4984 153.884C73.3784 153.65 73.276 153.408 73.1476 153.178C72.71 152.376 72.2344 151.594 71.7188 150.835C71.604 150.665 71.4704 150.511 71.356 150.342C70.9288 149.759 70.5036 149.184 70.0764 148.641C69.8664 148.385 69.6492 148.148 69.4236 147.897C69.0348 147.471 68.6512 147.016 68.2412 146.62C67.9808 146.357 67.7084 146.109 67.4356 145.86C67.038 145.485 66.6424 145.111 66.224 144.758C65.9288 144.507 65.6216 144.274 65.3144 144.035C64.8872 143.708 64.46 143.389 64.0348 143.083C63.71 142.857 63.382 142.657 63.0452 142.427C62.618 142.144 62.1528 141.867 61.6908 141.607C61.3456 141.408 60.9964 141.22 60.6424 141.033C60.1684 140.791 59.6908 140.56 59.2048 140.344C58.842 140.178 58.4792 140.017 58.1128 139.868C57.6092 139.664 57.092 139.486 56.5764 139.306C56.2048 139.18 55.8384 139.046 55.4584 138.938C54.9116 138.775 54.3576 138.643 53.802 138.512C53.4356 138.427 53.078 138.328 52.7064 138.256C52.0832 138.133 51.448 138.048 50.8072 137.967C50.4912 137.925 50.1804 137.865 49.8612 137.835C48.896 137.712 47.9184 137.657 46.934 137.657C45.948 137.657 44.9704 137.712 44.0104 137.806C43.6908 137.835 43.3784 137.896 43.0644 137.937C42.4236 138.019 41.7828 138.104 41.1648 138.226C40.7936 138.299 40.4356 138.398 40.0676 138.483C39.5139 138.614 38.9583 138.745 38.4132 138.908C38.033 139.019 37.6649 139.15 37.2951 139.277C36.7778 139.457 36.2622 139.635 35.7587 139.839C35.3906 139.988 35.0295 140.149 34.6667 140.315C34.1806 140.531 33.7031 140.74 33.2292 141.003C32.875 141.19 32.5243 141.377 32.1788 141.578C31.7188 141.837 31.2708 142.114 30.8264 142.398C30.4896 142.611 30.1614 142.824 29.8368 143.054C29.4097 143.36 28.9826 143.679 28.5573 144.005C28.25 144.244 27.9427 144.478 27.6476 144.729C27.2205 145.082 26.8333 145.456 26.4358 145.829C26.3125 145.94 26.184 146.047 26.0694 146.161H8.533V144.298ZM8 155.391H19.6C19.4507 155.73 19.2517 156.323 19.1198 156.655C18.9097 157.192 18.6927 157.727 18.5226 158.28C18.4028 158.645 18.3038 159.024 18.2014 159.398C18.0521 159.929 17.908 160.457 17.7743 160.997C17.6858 161.396 17.618 161.796 17.5451 162.204C17.4844 162.528 17.4045 162.843 17.3576 163.17L8 163.359V155.391Z" fill="black"/>
</svg>
