<svg width="256" height="256" viewBox="0 0 256 256" fill="none" xmlns="http://www.w3.org/2000/svg">
<path d="M179 66.5H231.5M231.5 66.5L215.5 50.5M231.5 66.5L215.5 82.5" stroke="#797979" stroke-width="8" stroke-linecap="round" stroke-linejoin="round"/>
<path d="M78.5 66H26M26 66L42 50M26 66L42 82" stroke="#797979" stroke-width="8" stroke-linecap="round" stroke-linejoin="round"/>
<path d="M68 125.599C63.875 110.599 89 111.599 93 127.099C96.2 139.499 98.1667 146.599 98.5 147.599C104.167 124.766 115.8 78.299 119 67.099C123 53.099 142.667 59.0989 140 71.099C138.427 78.1796 134.258 95.7492 129.962 112.099C138.5 103.099 147.809 109.099 150 118.599C161.809 112.099 170.5 120.599 168.5 129.099C168.343 129.768 168.187 130.436 168.034 131.099C174 124.099 189.03 127.099 186 139.599C182 156.099 182 158.099 176 179.099C170 200.099 147 207.099 135 205.099C123 203.099 119.5 202.099 106 198.099C96 195.136 85.5 186.099 82 174.099C79.2 164.499 71.6667 138.932 68 125.599Z" fill="white"/>
<path d="M129.962 112.099C134.258 95.7492 138.427 78.1796 140 71.099C142.667 59.0989 123 53.099 119 67.099C115.8 78.299 104.167 124.766 98.5 147.599C98.1667 146.599 96.2 139.499 93 127.099C89 111.599 63.875 110.599 68 125.599C71.6667 138.932 79.2 164.499 82 174.099C85.5 186.099 96 195.136 106 198.099C119.5 202.099 123 203.099 135 205.099C147 207.099 170 200.099 176 179.099C182 158.099 182 156.099 186 139.599C189.03 127.099 174 124.099 168.034 131.099C166.964 135.099 164.5 145.099 164.5 145.099C165.5 142.599 166.9 135.899 168.5 129.099C170.5 120.599 161.809 112.099 150 118.599M129.962 112.099C127.704 120.688 125.55 129.802 124 135.599L129.962 112.099ZM129.962 112.099C138.5 103.099 147.809 109.099 150 118.599M150 118.599C150.059 119.399 149.692 119.235 149.5 120.099C147.9 127.299 145.5 136.432 144.5 140.099L150 118.599Z" stroke="#797979" stroke-width="8" stroke-linecap="round" stroke-linejoin="round"/>
</svg>
