<svg width="256" height="256" viewBox="0 0 256 256" fill="none" xmlns="http://www.w3.org/2000/svg">
<path d="M128.248 18C65.009 18 16 64.2204 16 126.65C16 159.303 29.4174 187.522 51.2574 207.014C55.0284 210.406 54.2516 212.371 54.8929 233.313C54.9434 234.78 55.352 236.212 56.0831 237.485C56.8142 238.758 57.8456 239.832 59.0873 240.615C60.329 241.397 61.7434 241.864 63.2069 241.974C64.6705 242.085 66.1388 241.836 67.4839 241.248C91.3787 230.725 91.6858 229.894 95.7368 230.996C164.965 250.051 240 205.745 240 126.65C240 64.2204 191.492 18 128.248 18ZM195.647 101.611L162.679 153.807C161.434 155.77 159.798 157.454 157.871 158.755C155.945 160.055 153.771 160.944 151.485 161.365C149.199 161.786 146.851 161.73 144.588 161.201C142.325 160.673 140.195 159.682 138.333 158.292L112.103 138.659C110.931 137.78 109.504 137.304 108.039 137.304C106.573 137.304 105.147 137.78 103.974 138.659L68.5813 165.504C63.8574 169.086 57.6703 163.427 60.8542 158.427L93.8219 106.232C95.0664 104.268 96.7031 102.583 98.6293 101.283C100.556 99.9816 102.73 99.0927 105.016 98.6717C107.302 98.2506 109.65 98.3064 111.913 98.8356C114.177 99.3648 116.306 100.356 118.168 101.747L144.389 121.375C145.562 122.254 146.988 122.73 148.454 122.73C149.919 122.73 151.345 122.254 152.518 121.375L187.929 94.5568C192.644 90.9528 198.831 96.6072 195.647 101.611Z" fill="black"/>
</svg>
