<svg width="256" height="256" viewBox="0 0 256 256" fill="none" xmlns="http://www.w3.org/2000/svg">
<path fill-rule="evenodd" clip-rule="evenodd" d="M32.7528 68.0754C33.2587 66.2578 34.9164 65 36.806 65H219.194C221.084 65 222.741 66.2578 223.247 68.0754L249.846 163.625C250.433 165.737 249.296 167.945 247.233 168.696C228.537 175.5 179.285 191 128 191C76.7259 191 26.8378 175.507 8.72182 168.679C6.6851 167.912 5.57146 165.719 6.15439 163.625L32.7528 68.0754ZM40.0032 73.4L15.3005 162.14C30.7753 167.647 61.6354 176.843 96.4258 180.752L80.088 165.8H48.0695C45.7461 165.8 43.8626 163.92 43.8626 161.6C43.8626 159.28 45.7461 157.4 48.0695 157.4H115.379C117.703 157.4 119.586 159.28 119.586 161.6C119.586 163.92 117.703 165.8 115.379 165.8H92.5394L109.808 181.604C109.942 181.726 110.065 181.855 110.179 181.989C116.07 182.383 122.028 182.6 128 182.6C146.1 182.6 163.98 180.606 180.291 177.746L168.326 165.8H136.414C134.09 165.8 132.207 163.92 132.207 161.6C132.207 159.28 134.09 157.4 136.414 157.4H203.724C206.047 157.4 207.931 159.28 207.931 161.6C207.931 163.92 206.047 165.8 203.724 165.8H180.225L189.871 175.43C190.008 175.567 190.133 175.711 190.247 175.86C211.756 171.488 229.749 165.917 240.69 162.107L215.997 73.4H164.503L157.147 91.7598C156.508 93.3544 154.961 94.4 153.241 94.4H102.759C101.039 94.4 99.4917 93.3544 98.8528 91.7598L91.4968 73.4H40.0032ZM100.559 73.4L105.607 86H150.393L155.441 73.4H100.559Z" fill="black"/>
</svg>
