<?xml version="1.0" standalone="no"?>
<!DOCTYPE svg PUBLIC "-//W3C//DTD SVG 20010904//EN"
 "http://www.w3.org/TR/2001/REC-SVG-20010904/DTD/svg10.dtd">
<svg version="1.0" xmlns="http://www.w3.org/2000/svg"
 width="700.000000pt" height="700.000000pt" viewBox="0 0 700.000000 700.000000"
 preserveAspectRatio="xMidYMid meet">
<metadata>
Created by potrace 1.11, written by Peter Selinger 2001-2013
</metadata>
<g transform="translate(0.000000,700.000000) scale(0.100000,-0.100000)"
fill="#000000" stroke="none">
<path d="M1603 6980 c-1 -11 -16 -88 -33 -173 -17 -84 -32 -162 -34 -173 -38
-187 -119 -595 -122 -614 -3 -14 -7 -32 -9 -40 -2 -8 -7 -30 -10 -48 -3 -18
-12 -64 -20 -102 -8 -38 -17 -84 -20 -102 -3 -18 -14 -76 -25 -128 -11 -52
-21 -106 -24 -120 -2 -14 -19 -95 -36 -180 -17 -85 -34 -168 -37 -185 -2 -16
-11 -61 -20 -100 -8 -38 -17 -81 -19 -95 -2 -14 -7 -38 -11 -55 -3 -16 -7 -37
-8 -45 -1 -8 -30 -154 -64 -323 -73 -359 -69 -342 -77 -387 -3 -19 -10 -48
-14 -65 -5 -16 -11 -46 -14 -65 -3 -19 -15 -80 -26 -135 -11 -55 -23 -111 -25
-125 -6 -32 -12 -62 -25 -125 -22 -106 -24 -101 23 -58 207 190 495 307 887
358 74 10 229 18 335 18 188 0 280 -9 480 -48 90 -18 240 -67 455 -150 380
-146 535 -189 767 -210 186 -17 508 -3 673 30 14 3 34 7 46 9 114 22 269 74
380 129 97 47 132 68 269 157 143 94 163 103 196 86 38 -19 51 -53 45 -127 -3
-36 -8 -72 -10 -80 -3 -8 -8 -25 -10 -39 -3 -14 -21 -106 -41 -205 -20 -99
-39 -191 -41 -203 -3 -13 -25 -121 -49 -240 -24 -120 -47 -232 -50 -249 -3
-18 -12 -61 -20 -95 -8 -35 -16 -74 -19 -88 -26 -146 -75 -265 -143 -348 -133
-162 -341 -301 -594 -395 -91 -34 -247 -83 -293 -91 -11 -2 -59 -11 -106 -19
-75 -14 -109 -19 -235 -33 -50 -6 -295 -5 -370 1 -83 6 -236 32 -270 45 -14 5
-25 8 -25 5 0 -2 -12 0 -27 5 -16 5 -75 23 -133 40 -58 17 -114 35 -125 40
-20 9 -87 34 -275 103 -182 67 -336 108 -495 133 -128 20 -457 26 -630 11
-162 -13 -482 -81 -509 -108 -6 -5 -17 -9 -25 -9 -23 0 -199 -91 -268 -138
-75 -51 -170 -137 -170 -154 0 -7 -10 -62 -22 -123 -13 -60 -25 -121 -27 -135
-2 -14 -7 -38 -11 -55 -4 -16 -8 -36 -9 -44 -2 -8 -10 -46 -18 -85 -9 -39 -18
-82 -20 -96 -3 -14 -10 -50 -16 -80 -6 -30 -13 -66 -16 -80 -4 -24 -40 -205
-48 -245 -43 -205 -87 -425 -91 -443 -2 -12 -6 -30 -9 -40 -7 -26 -18 -93 -20
-127 l-1 -30 905 -1 c546 0 910 3 918 9 6 5 12 19 12 30 0 23 84 363 104 420
l13 38 41 -55 c170 -224 447 -388 794 -470 112 -27 128 -30 263 -47 145 -19
568 -15 682 5 10 2 41 6 68 10 103 14 349 66 405 86 14 4 52 16 85 25 181 51
557 215 656 286 15 10 30 19 33 19 11 0 205 128 286 188 517 384 895 909 1097
1522 63 192 123 476 138 655 4 44 9 96 11 115 4 52 4 309 -1 355 -2 22 -7 69
-10 104 -8 76 -12 99 -29 181 -3 14 -8 35 -10 47 -3 12 -14 57 -26 100 -105
374 -305 687 -599 935 -342 289 -759 459 -1261 515 -87 10 -419 10 -500 0
-127 -15 -146 -18 -250 -38 -359 -72 -714 -233 -1014 -461 -27 -20 -28 -20
-23 -2 5 18 13 63 23 124 8 48 14 85 19 110 3 14 14 75 25 135 10 61 21 119
23 130 3 11 8 40 12 65 10 60 7 46 65 370 28 157 53 301 56 320 3 19 7 42 9
50 2 8 7 31 10 50 4 19 29 161 56 315 28 154 52 294 55 310 2 17 6 41 9 55 3
14 14 75 25 137 11 62 22 124 26 138 l6 25 -924 0 c-913 0 -924 0 -925 -20z"/>
</g>
</svg>
