<?xml version="1.0" standalone="no"?>
<!DOCTYPE svg PUBLIC "-//W3C//DTD SVG 20010904//EN"
 "http://www.w3.org/TR/2001/REC-SVG-20010904/DTD/svg10.dtd">
<svg version="1.0" xmlns="http://www.w3.org/2000/svg"
 width="700.000000pt" height="700.000000pt" viewBox="0 0 700.000000 700.000000"
 preserveAspectRatio="xMidYMid meet">
<metadata>
Created by potrace 1.11, written by Peter Selinger 2001-2013
</metadata>
<g transform="translate(0.000000,700.000000) scale(0.100000,-0.100000)"
fill="#000000" stroke="none">
<path d="M3298 6995 c-2 -1 -41 -5 -88 -9 -100 -7 -225 -22 -295 -36 -27 -5
-61 -12 -75 -14 -431 -79 -908 -273 -1275 -519 -69 -46 -297 -217 -305 -228
-3 -3 -25 -23 -50 -44 -85 -70 -220 -205 -361 -361 -168 -186 -384 -518 -513
-789 -94 -195 -207 -516 -241 -683 -2 -9 -8 -37 -14 -62 -11 -49 -13 -63 -35
-195 -34 -204 -40 -302 -40 -570 0 -233 11 -378 39 -545 6 -32 24 -129 29
-155 48 -244 156 -562 273 -802 449 -928 1279 -1611 2270 -1868 72 -19 142
-36 155 -39 13 -2 50 -9 83 -15 33 -6 71 -13 85 -16 14 -3 52 -8 85 -11 33 -3
63 -8 66 -9 15 -10 227 -20 409 -20 188 0 341 8 430 21 144 21 295 48 345 61
33 8 67 16 75 18 109 22 388 117 549 187 121 53 308 148 353 179 14 11 29 19
33 19 24 0 383 257 495 355 119 104 294 279 365 365 21 25 41 47 44 50 4 3 45
55 91 115 332 436 547 915 654 1456 14 70 28 155 32 190 3 35 8 67 10 70 9 17
19 214 18 399 0 188 -6 331 -19 420 -3 19 -7 56 -10 81 -3 25 -7 54 -9 65 -2
10 -11 60 -21 109 -98 525 -337 1052 -670 1480 -43 55 -81 102 -84 105 -4 3
-31 34 -61 69 -111 129 -291 299 -450 426 -414 330 -924 569 -1447 679 -99 21
-244 44 -393 61 -55 7 -526 16 -532 10z m-1314 -2565 c-3 -22 -13 -75 -36
-180 -11 -52 -22 -104 -24 -115 -7 -38 -54 -250 -60 -267 -9 -30 9 -20 35 17
59 88 207 156 336 157 190 0 331 -95 394 -267 28 -75 35 -125 35 -245 0 -164
-29 -285 -102 -425 -111 -213 -302 -331 -517 -320 -157 8 -274 76 -335 197
-29 55 -31 52 -54 -57 -9 -44 -19 -90 -22 -102 -4 -23 -7 -23 -160 -23 l-157
0 6 33 c3 17 13 66 22 107 9 41 19 86 21 100 3 14 10 45 15 70 6 25 13 56 15
70 3 14 23 108 45 210 22 102 43 199 45 215 3 17 9 46 14 65 5 19 12 51 15 70
3 19 10 51 15 71 6 20 28 123 51 230 22 107 42 203 45 214 2 11 6 31 9 44 14
75 30 137 36 141 4 3 76 5 161 5 129 0 153 -3 152 -15z m1776 -411 c65 -31
122 -85 146 -139 10 -22 20 -40 23 -40 3 0 23 20 43 43 51 60 136 116 216 143
95 33 224 29 302 -7 70 -33 126 -89 158 -159 22 -47 26 -69 27 -150 0 -52 -4
-113 -8 -135 -15 -77 -138 -661 -149 -710 -7 -27 -11 -53 -10 -57 1 -5 -72 -8
-163 -8 l-165 0 5 23 c9 42 27 122 31 142 2 11 29 140 61 285 80 375 79 437
-11 504 -36 27 -145 29 -193 3 -91 -49 -134 -122 -168 -292 -9 -44 -20 -96
-25 -115 -5 -19 -11 -48 -14 -65 -2 -16 -23 -118 -46 -225 -23 -107 -44 -210
-47 -227 l-6 -33 -159 0 c-155 0 -159 1 -153 20 3 11 9 32 11 47 3 16 34 165
70 333 75 352 85 433 60 488 -34 75 -125 107 -221 77 -110 -35 -164 -119 -201
-315 -3 -14 -9 -44 -15 -68 -5 -23 -12 -59 -15 -80 -3 -20 -8 -40 -10 -43 -2
-4 -12 -49 -23 -100 -16 -81 -55 -261 -66 -309 -2 -8 -4 -23 -4 -32 -1 -16
-16 -18 -165 -18 -152 0 -165 1 -161 18 25 116 47 221 51 239 5 25 122 577
129 608 2 11 6 32 9 46 3 14 19 90 36 168 16 79 30 144 30 145 0 1 68 1 152 1
98 0 153 -4 155 -11 2 -6 -5 -49 -16 -95 -11 -46 -18 -85 -16 -87 1 -2 12 12
24 31 29 47 100 111 152 137 77 40 112 48 199 47 69 -2 96 -7 140 -28z m1935
8 c43 -14 45 -17 34 -67 -6 -25 -12 -52 -14 -60 -27 -133 -40 -180 -48 -180
-5 0 -34 7 -64 16 -38 11 -77 14 -122 11 -171 -14 -259 -109 -306 -332 -19
-93 -57 -273 -60 -285 -2 -8 -13 -60 -24 -115 -12 -55 -27 -125 -34 -155 l-12
-55 -163 -3 c-89 -1 -162 0 -162 4 0 4 11 57 24 118 32 144 83 384 89 416 3
14 24 111 46 215 23 105 43 199 45 210 4 20 42 203 51 240 4 19 11 20 152 19
189 -2 174 0 164 -27 -5 -13 -12 -39 -15 -58 -3 -19 -8 -44 -10 -56 -3 -13 -1
-23 5 -23 5 0 9 4 9 10 0 17 73 91 115 118 22 14 58 31 80 38 46 15 176 16
220 1z"/>
<path d="M2047 3769 c-171 -38 -292 -239 -281 -466 11 -237 264 -330 435 -159
125 124 172 373 99 517 -21 40 -70 86 -107 100 -36 13 -103 17 -146 8z"/>
</g>
</svg>
