<?xml version="1.0" encoding="UTF-8"?>
<svg width="60px" height="60px" viewBox="0 0 60 60" version="1.1" xmlns="http://www.w3.org/2000/svg" xmlns:xlink="http://www.w3.org/1999/xlink">
    <!-- Generator: Sketch 50 (54983) - http://www.bohemiancoding.com/sketch -->
    <title>bimmer-sticker-store-logo-inverse-circ</title>
    <desc>Created with Sketch.</desc>
    <defs>
        <circle id="path-1" cx="30" cy="30" r="30"></circle>
        <linearGradient x1="37.279239%" y1="33.1768202%" x2="82.2997021%" y2="86.8666651%" id="linearGradient-3">
            <stop stop-color="#008AC9" stop-opacity="0.0949388587" offset="0%"></stop>
            <stop stop-color="#008AC9" stop-opacity="0.378453351" offset="84.7588512%"></stop>
            <stop stop-color="#008AC9" stop-opacity="0.220165308" offset="100%"></stop>
        </linearGradient>
    </defs>
    <g id="bimmer-sticker-store-logo-inverse-circ" stroke="none" stroke-width="1" fill="none" fill-rule="evenodd">
        <mask id="mask-2" fill="white">
            <use xlink:href="#path-1"></use>
        </mask>
        <use id="base" fill="#FFFFFF" xlink:href="#path-1"></use>
        <circle id="transfer" stroke-opacity="0.366338315" stroke="#008AC9" fill="url(#linearGradient-3)" mask="url(#mask-2)" cx="19" cy="19" r="38.5"></circle>
        <path d="M18.7382812,36.1660156 C17.1464844,36.1660156 15.828125,35.2773438 15.4570312,33.9980469 L15.3886719,33.9980469 L14.96875,36 L12.2734375,36 L15.28125,21.9082031 L18.0546875,21.9082031 L16.9511719,27.0546875 L17.0097656,27.0546875 C17.625,26.0097656 18.8457031,25.3359375 20.1835938,25.3359375 C22.4394531,25.3359375 23.875,26.9277344 23.875,29.5839844 C23.875,33.1582031 21.8144531,36.1660156 18.7382812,36.1660156 Z M18.1914062,33.8125 C19.8515625,33.8125 21.0234375,32.0839844 21.0234375,29.9648438 C21.0234375,28.5292969 20.28125,27.6210938 19.0214844,27.6210938 C17.3515625,27.6210938 16.1015625,29.4179688 16.1015625,31.5371094 C16.1015625,32.8847656 16.9414062,33.8125 18.1914062,33.8125 Z M24.2363281,36 L26.4628906,25.5019531 L29.1484375,25.5019531 L28.7871094,27.171875 L28.8457031,27.171875 C29.4414062,26.0585938 30.6328125,25.2675781 31.9609375,25.2675781 C33.3476562,25.2675781 34.3535156,26.078125 34.65625,27.1425781 L34.7050781,27.1425781 C35.4277344,26.0878906 36.5996094,25.2675781 38.2011719,25.2675781 C39.890625,25.2675781 41.1308594,26.4785156 41.1308594,28.1875 C41.1308594,28.5683594 41.0820312,28.9882812 40.9941406,29.4277344 L39.6074219,36 L36.8339844,36 L38.1230469,29.8574219 C38.1914062,29.5644531 38.2207031,29.3007812 38.2207031,29.0566406 C38.2207031,28.2167969 37.6738281,27.6015625 36.7558594,27.6015625 C35.7792969,27.6015625 34.890625,28.3535156 34.6171875,29.6035156 L33.2695312,36 L30.5839844,36 L31.8730469,29.8574219 C31.9414062,29.5644531 31.9707031,29.3007812 31.9707031,29.0566406 C31.9707031,28.2167969 31.4238281,27.6015625 30.5058594,27.6015625 C29.5292969,27.6015625 28.6308594,28.3925781 28.3769531,29.6035156 L27.0195312,36 L24.2363281,36 Z M41.4433594,36 L43.6796875,25.5019531 L46.375,25.5019531 L46.0820312,26.9667969 L46.140625,26.9667969 C46.6972656,26 47.6445312,25.3457031 48.8652344,25.3457031 C49.421875,25.3457031 49.8710938,25.453125 50.1933594,25.609375 L49.6464844,28.1679688 C49.2851562,28.0019531 48.7675781,27.8554688 48.2011719,27.8554688 C46.7070312,27.8554688 45.8085938,28.6953125 45.4472656,30.3164062 L44.2363281,36 L41.4433594,36 Z" id="bmr" fill="#008AC9" mask="url(#mask-2)"></path>
    </g>
</svg>