<?xml version="1.0" encoding="utf-8"?>
<!-- Generator: Adobe Illustrator 22.1.0, SVG Export Plug-In . SVG Version: 6.00 Build 0)  -->
<svg version="1.1" id="Layer_1" xmlns="http://www.w3.org/2000/svg" xmlns:xlink="http://www.w3.org/1999/xlink" x="0px" y="0px"
	 viewBox="0 0 1212.5 257" style="enable-background:new 0 0 1212.5 257;" xml:space="preserve">
<style type="text/css">
	.st0{fill:#212B36;}
	.st1{fill:#009EE6;}
	.st2{opacity:0.59;fill:#007EB8;enable-background:new    ;}
	.st3{display:none;opacity:0.59;fill:#009EE6;enable-background:new    ;}
</style>
<path class="st0" d="M295.9,168.2c14.6,0,24.9-9.2,24.9-22.2c0-7.2-4.6-12.7-12-14.1V131c8.7-1,15.3-8.6,15.3-18c0-9-7.7-15-19.1-15
	h-29.1l-14.1,70.2H295.9z M290.3,110.1h8.8c5.2,0,8.2,2.4,8.2,6.7c0,5.4-4.4,9.4-10.7,9.4H287L290.3,110.1z M281.2,155.2l3.6-18.1
	h10c5.9,0,9.3,2.8,9.3,7.6c0,6.2-4.8,10.5-11.6,10.5H281.2z"/>
<path class="st0" d="M322.8,168.2H339l10.9-54.2h-16.2L322.8,168.2z M344.9,106.8c4.8,0,8.6-3.9,8.6-9c0-5-3.8-9-8.6-9
	c-4.7,0-8.6,4-8.6,9S340.2,106.8,344.9,106.8z"/>
<path class="st0" d="M347,168.2h16.2l6.4-32c1.1-5.8,4.7-9.3,8.8-9.3c3.8,0,6.2,2.9,6.2,7c0,1.2-0.1,2.3-0.4,3.7l-6,30.7h15.5
	l6.3-31.9c1.1-5.9,4.7-9.4,8.8-9.4c3.8,0,6.2,2.9,6.2,7c0,1.2-0.1,2.3-0.4,3.7l-6,30.7h16.2l6.6-33.1c0.5-2.3,0.7-4.5,0.7-6.5
	c0-8.7-5.8-15.3-14.2-15.3c-7.5,0-12.7,3.6-16.5,9.8h-0.9c-1.5-5.3-5.9-9.8-13-9.8c-6.1,0-11.5,3.9-14.8,10h-0.9l1.9-9.1h-15.8
	L347,168.2z"/>
<path class="st0" d="M431.7,168.2h16.2l6.4-32c1.1-5.8,4.7-9.3,8.8-9.3c3.8,0,6.2,2.9,6.2,7c0,1.2-0.1,2.3-0.4,3.7l-6,30.7h15.5
	l6.3-31.9c1.1-5.9,4.7-9.4,8.8-9.4c3.8,0,6.2,2.9,6.2,7c0,1.2-0.1,2.3-0.4,3.7l-6,30.7h16.2l6.6-33.1c0.5-2.3,0.7-4.5,0.7-6.5
	c0-8.7-5.8-15.3-14.2-15.3c-7.5,0-12.7,3.6-16.5,9.8H485c-1.5-5.3-5.9-9.8-13-9.8c-6.1,0-11.5,3.9-14.8,10h-0.9l1.9-9.1h-15.8
	L431.7,168.2z"/>
<path class="st0" d="M536.3,135c1.5-6,5.9-10,11.3-10c5,0,8.3,3.6,8.3,8.3c0,0.6-0.1,1.5-0.2,1.8h-19.4V135z M543.4,169.4
	c13,0,22.4-6.9,24.9-17.5H553c-1.2,3.2-4.3,5.1-8.7,5.1c-5.6,0-9.7-3.8-9.7-11.1c0-0.2,0-0.8,0-1h35.1c0.5-2.7,0.9-6.9,0.9-9.1
	c0-13.8-9.6-23-22.7-23c-16.7,0-28.2,13.4-28.2,33.2C519.8,160.6,529.2,169.4,543.4,169.4z"/>
<path class="st0" d="M570.6,168.2h16.3l5.9-29c1.5-7.5,5.4-11.4,11.5-11.4c2.8,0,6.1,0.7,8.4,1.8l3.2-15c-1.8-0.9-4.1-1.3-6.8-1.3
	c-5.3,0-9.8,3.2-12.2,8.5H596l1.5-7.6h-15.8L570.6,168.2z"/>
<path class="st0" d="M732.4,114.8l-2.7,12.8h-10.4l-4.3,21.5c-0.1,0.9-0.3,1.8-0.3,2.5c0,3,1.8,4.4,5.3,4.4c1.5,0,3.1-0.1,4.3-0.3
	l-2.4,12c-1.6,0.4-4.7,0.7-8.4,0.7c-9.5,0-15.7-4.4-15.7-11.7c0-1.4,0.2-3.1,0.5-4.7l4.8-24.3l-5.8,0.2c-9,0-14.9-3.7-18-10
	c-2.2-4.6-3.4-8.2-11.8-8.2c-5.6,0-10,3.2-10,7.5c0,3.5,2.3,6,8,7.8l7.2,2.2c11.4,3.6,16.4,9.3,16.4,19.1c0,14.4-11.6,23.8-29,23.8
	c-15.8,0-26.5-8.4-26.8-22.1h16c0.6,5.2,5.8,8.6,11.9,8.6c6.6,0,11.1-3.2,11.1-7.9c0-3.5-2.3-5.5-8.8-7.6l-7.1-2.3
	c-10.1-3.2-15.9-10.2-15.9-19.7c0-13.3,11.6-23.1,27.4-23.1c12.2,0,21.3,5.6,24.7,14.4c1.3,2.1,3.5,4.3,6.6,4.3h6.4l2.7-13.1h16.3
	l-2.7,13.1L732.4,114.8L732.4,114.8z"/>
<path class="st0" d="M727.7,168.2h16.2l10.9-54.2h-16.2L727.7,168.2z M749.9,106.8c4.8,0,8.6-3.9,8.6-9c0-5-3.8-9-8.6-9
	c-4.7,0-8.6,4-8.6,9C741.2,102.9,745.2,106.8,749.9,106.8z"/>
<path class="st0" d="M784.1,112.8c-17.5,0-28.9,14.5-28.9,33.9c0,13.9,8.9,22.8,23.1,22.8c14.6,0,23.6-9.4,25.1-20.7h-15.2
	c-1.4,4.9-4.7,7.4-9.1,7.4c-4.1,0-8-3.1-8-10.6c0-11,4.6-19.6,11.9-19.6c4.4,0,7.7,2.6,7.7,7.4h15.1c0-0.7,0-1.4,0-2
	C805.5,122.3,797.8,112.8,784.1,112.8z"/>
<path class="st0" d="M821,168.2l3.3-16.5l4.6-4.6l9.6,21.1H856l-14.2-30.4l23.4-23.8h-18.3l-18.1,19.5h-0.9l7.9-39.8h-16.2
	l-14.9,74.4L821,168.2L821,168.2z"/>
<path class="st0" d="M874.7,135.1c1.5-6,5.9-10,11.3-10c5,0,8.3,3.6,8.3,8.3c0,0.6-0.1,1.5-0.2,1.8h-19.4V135.1z M881.8,169.5
	c13,0,22.4-6.9,24.9-17.5h-15.2c-1.2,3.2-4.3,5.1-8.7,5.1c-5.6,0-9.7-3.8-9.7-11.1c0-0.2,0-0.8,0-1h35.1c0.5-2.7,0.9-6.9,0.9-9.1
	c0-13.8-9.6-23-22.7-23c-16.7,0-28.2,13.4-28.2,33.2C858.2,160.6,867.6,169.5,881.8,169.5z"/>
<path class="st0" d="M909.1,168.2h16.3l5.9-29c1.5-7.5,5.4-11.4,11.5-11.4c2.8,0,6.1,0.7,8.4,1.8l3.2-15c-1.8-0.9-4.1-1.3-6.8-1.3
	c-5.3,0-9.8,3.2-12.2,8.5h-0.9l1.5-7.6h-16L909.1,168.2z"/>
<path class="st0" d="M1090.5,156.3c-4.8,0-7.6-4.1-7.6-11.1c0-10.7,5.5-19.2,12.2-19.2c4.8,0,7.5,4.2,7.5,11.4
	C1102.6,147.6,1097.1,156.3,1090.5,156.3z M1095.8,112.8c-16.9,0-29.7,14-29.7,32.5c0,14.6,9.4,24.2,23.8,24.2
	c16.9,0,29.6-13.9,29.6-32.5C1119.5,122.3,1110.1,112.8,1095.8,112.8z"/>
<path class="st0" d="M1119.4,168.2h16.3l5.9-29c1.5-7.5,5.4-11.4,11.5-11.4c2.8,0,6.1,0.7,8.4,1.8l3.2-15c-1.8-0.9-4.1-1.3-6.8-1.3
	c-5.3,0-9.8,3.2-12.2,8.5h-0.9l1.5-7.6h-15.8L1119.4,168.2z"/>
<path class="st0" d="M1178.2,135.1c1.5-6,5.9-10,11.3-10c5,0,8.3,3.6,8.3,8.3c0,0.6-0.1,1.5-0.2,1.8h-19.4V135.1z M1185.2,169.5
	c13,0,22.4-6.9,24.9-17.5h-15.2c-1.2,3.2-4.3,5.1-8.7,5.1c-5.6,0-9.7-3.8-9.7-11.1c0-0.2,0-0.8,0-1h35.1c0.5-2.7,0.9-6.9,0.9-9.1
	c0-13.8-9.6-23-22.7-23c-16.7,0-28.2,13.4-28.2,33.2C1161.6,160.6,1171.1,169.5,1185.2,169.5z"/>
<path class="st0" d="M1067,114.8l-2.7,12.8h-10.4l-4.3,21.5c-0.1,0.9-0.3,1.8-0.3,2.5c0,3,1.8,4.4,5.3,4.4c1.5,0,3.1-0.1,4.3-0.3
	l-2.4,12c-1.6,0.4-4.7,0.7-8.4,0.7c-9.5,0-15.7-4.4-15.7-11.7c0-1.4,0.2-3.1,0.5-4.7l4.8-24.3l-5.8,0.2c-9,0-14.9-3.7-18-10
	c-2.2-4.6-3.4-8.2-11.8-8.2c-5.6,0-10,3.2-10,7.5c0,3.5,2.3,6,8,7.8l7.2,2.2c11.4,3.6,16.4,9.3,16.4,19.1c0,14.4-11.6,23.8-29,23.8
	c-15.8,0-26.5-8.4-26.8-22.1h16c0.6,5.2,5.8,8.6,11.9,8.6c6.6,0,11.1-3.2,11.1-7.9c0-3.5-2.3-5.5-8.8-7.6l-7.1-2.3
	c-10.1-3.2-15.9-10.2-15.9-19.7c0-13.3,11.6-23.1,27.4-23.1c12.2,0,21.3,5.6,24.7,14.4c1.3,2.1,3.5,4.3,6.6,4.3h6.4l2.7-13.1h16.3
	l-2.7,13.1L1067,114.8L1067,114.8z"/>
<path class="st1" d="M137.9,58C107.9,58,89,75,89,75l13.3-75H43.7L21.5,111.6c8-8.5,22.2-13.3,40.6-13.3c26.6,0,34.2,13.3,59.9,13.3
	c21.1,0,30-5.3,40.3-12.5c3.7-2.6,6.2-0.8,4.4,6.2c-0.3,1.3-7.3,37.1-8,39.4c-4.2,14.4-27.3,24.2-48.4,24.2
	c-25.7,0-33.2-12.8-59.8-12.8c-18.1,0-31.4,3.9-40.2,12.9L0,220c0,0,15.4,0,58.5,0c1.2-7.2,4-16,4-16s9.6,19,44.7,19
	c45.6,0,90.1-31.7,99.1-82C216.3,85.5,176.6,58,137.9,58z"/>
<path class="st2" d="M176,108.8h-9.9c-2.3,11.4-7,34.2-7.5,36c-4.1,14-26,23.7-46.6,24.2h33.6c12.7,0,23.7-9.1,26.3-21.7l7-34.9
	C179.2,110.6,177.8,108.8,176,108.8z"/>
<path class="st3" d="M140.4,170.4h-31.7v-60.2h62.1c1.8,0,3.2,1.7,2.9,3.5l-7,34.9C164.1,161.3,153.1,170.4,140.4,170.4z"/>
</svg>
