<svg width="222" height="55" viewBox="0 0 222 55" fill="none" xmlns="http://www.w3.org/2000/svg">
<path d="M22.9362 16.2004C17.9574 16.2004 14.8085 19.0467 14.8085 19.0467L17.0213 6.48444H7.2766L3.57447 25.1673C4.91489 23.7549 7.2766 22.9416 10.3191 22.9416C14.7447 22.9416 16 25.1673 20.2766 25.1673C23.7872 25.1673 25.2766 24.2899 26.9787 23.07C27.5957 22.642 28 22.9416 27.7021 24.0973C27.6596 24.3113 26.4894 30.3035 26.3617 30.6887C25.6596 33.107 21.8298 34.7335 18.3191 34.7335C14.0426 34.7335 12.7872 32.5934 8.3617 32.5934C5.34043 32.5934 3.12766 33.2354 1.68085 34.7549L0 43.2938C0 43.2938 2.55319 43.2938 9.7234 43.2938C9.91489 42.0953 10.383 40.6187 10.383 40.6187C10.383 40.6187 11.9787 43.8074 17.8298 43.8074C25.4255 43.8074 32.8085 38.5 34.3192 30.0895C35.9787 20.8016 29.383 16.2004 22.9362 16.2004Z" fill="white"/>
<path opacity="0.59" d="M29.2765 24.6965H27.6382C27.2552 26.6012 26.468 30.4105 26.3829 30.7101C25.702 33.0428 22.0637 34.6693 18.6382 34.7549H24.2339C26.3403 34.7549 28.1701 33.2354 28.6169 31.1167L29.7871 25.2743C29.8084 24.9961 29.5744 24.6965 29.2765 24.6965Z" fill="black" fill-opacity="0.12"/>
<path d="M50.468 31.8016C50.5956 32.9144 51.7871 33.6634 53.1701 33.6634C54.6594 33.6634 55.702 32.9786 55.702 31.9728C55.702 31.2237 55.1701 30.7957 53.702 30.3463L52.085 29.8541C49.7871 29.1693 48.468 27.6712 48.468 25.6167C48.468 22.749 51.1063 20.6518 54.702 20.6518C58.2552 20.6518 60.6382 22.6206 60.6595 25.4669H57.1275C57.0424 24.3755 55.9999 23.5623 54.5743 23.5623C53.2977 23.5623 52.2977 24.2471 52.2977 25.1673C52.2977 25.9164 52.8084 26.4728 54.1063 26.858L55.7446 27.3502C58.319 28.1206 59.4892 29.3619 59.4892 31.4592C59.4892 34.5623 56.8509 36.5953 52.8935 36.5953C49.2978 36.5953 46.8509 34.7977 46.7871 31.823L50.468 31.8016Z" fill="#212B36"/>
<path d="M61.4681 33.6634C61.4681 33.3638 61.5106 33 61.5745 32.6576L62.6596 27.4144H60.8511L61.4468 24.6537H63.2553L63.8511 21.8288H67.5532L66.9362 24.6537H69.3617L68.766 27.4144H66.383L65.4043 32.037C65.383 32.2296 65.3404 32.4436 65.3404 32.572C65.3404 33.214 65.7447 33.5136 66.5319 33.5136C66.8724 33.5136 67.2341 33.4922 67.5106 33.4494L66.9575 36.0389C66.5958 36.1245 65.8936 36.1887 65.0426 36.1887C62.8724 36.1887 61.4681 35.2471 61.4681 33.6634Z" fill="#212B36"/>
<path d="M70.7659 24.5039H74.4681L72 36.1673H68.2979L70.7659 24.5039ZM71.383 21.0156C71.383 19.9455 72.2766 19.0681 73.3404 19.0681C74.4255 19.0681 75.2978 19.9241 75.2978 21.0156C75.2978 22.107 74.4255 22.9416 73.3404 22.9416C72.2766 22.9416 71.383 22.0856 71.383 21.0156Z" fill="#212B36"/>
<path d="M86.0851 28.249C86.0851 28.3774 86.0851 28.5486 86.0851 28.6984H82.6596C82.6383 27.6498 81.8937 27.0934 80.8937 27.0934C79.2554 27.0934 78.1915 28.9339 78.1915 31.3093C78.1915 32.9144 79.0851 33.5778 80.0213 33.5778C81.0213 33.5778 81.7873 33.0428 82.0851 31.9942H85.5319C85.1702 34.4338 83.1277 36.4455 79.8085 36.4455C76.5745 36.4455 74.5532 34.5195 74.5532 31.5233C74.5532 27.3716 77.1277 24.2257 81.1277 24.2257C84.2341 24.2257 86 26.2802 86.0851 28.249Z" fill="#212B36"/>
<path d="M85.8086 36.1673L89.2128 20.1381H92.8937L91.0852 28.7198H91.298L95.4256 24.5253H99.5746L94.2554 29.6615L97.4894 36.2101H93.4682L91.2767 31.6517L90.2341 32.6362L89.4894 36.2101H85.8086V36.1673Z" fill="#212B36"/>
<path d="M97.9788 31.3949C97.9788 27.1362 100.596 24.2257 104.404 24.2257C107.383 24.2257 109.553 26.2159 109.553 29.1907C109.553 29.6615 109.468 30.5603 109.34 31.1595H101.362C101.362 31.2023 101.362 31.3307 101.362 31.3735C101.362 32.9572 102.298 33.7704 103.575 33.7704C104.575 33.7704 105.255 33.3424 105.553 32.679H109.021C108.468 34.9689 106.319 36.4455 103.362 36.4455C100.128 36.4455 97.9788 34.5409 97.9788 31.3949ZM106.149 29.0195C106.17 28.9553 106.192 28.784 106.192 28.6342C106.192 27.607 105.447 26.858 104.298 26.858C103.064 26.858 102.064 27.7354 101.745 29.0195H106.149Z" fill="#212B36"/>
<path d="M112.043 24.5039H115.638L115.298 26.1517H115.489C116.043 25.0175 117.064 24.3327 118.277 24.3327C118.894 24.3327 119.404 24.4183 119.83 24.6109L119.106 27.8424C118.574 27.607 117.83 27.4572 117.192 27.4572C115.809 27.4572 114.936 28.2918 114.596 29.9183L113.255 36.1673H109.553L112.043 24.5039Z" fill="#212B36"/>
<path d="M126.957 31.8016C127.085 32.9144 128.277 33.6634 129.66 33.6634C131.149 33.6634 132.191 32.9786 132.191 31.9728C132.191 31.2237 131.66 30.7957 130.192 30.3463L128.574 29.8541C126.277 29.1693 124.957 27.6712 124.957 25.6167C124.957 22.749 127.596 20.6518 131.191 20.6518C134.745 20.6518 137.128 22.6206 137.149 25.4669H133.617C133.532 24.3755 132.489 23.5623 131.064 23.5623C129.787 23.5623 128.787 24.2471 128.787 25.1673C128.787 25.9164 129.298 26.4728 130.596 26.858L132.234 27.3502C134.809 28.1206 135.979 29.3619 135.979 31.4592C135.979 34.5623 133.34 36.5953 129.383 36.5953C125.787 36.5953 123.34 34.7977 123.277 31.823L126.957 31.8016Z" fill="#212B36"/>
<path d="M137.957 33.6634C137.957 33.3638 138 33 138.064 32.6576L139.149 27.4144H137.319L137.915 24.6537H139.723L140.319 21.8288H144.021L143.404 24.6537H145.808L145.213 27.4144H142.83L141.851 32.037C141.83 32.2296 141.787 32.4436 141.787 32.572C141.787 33.214 142.191 33.5136 142.979 33.5136C143.319 33.5136 143.681 33.4922 143.957 33.4494L143.404 36.0389C143.042 36.1245 142.34 36.1887 141.489 36.1887C139.383 36.1887 137.957 35.2471 137.957 33.6634Z" fill="#212B36"/>
<path d="M157.426 29.4475C157.426 33.4494 154.532 36.4455 150.702 36.4455C147.426 36.4455 145.277 34.3911 145.277 31.2451C145.277 27.2432 148.192 24.2471 152.043 24.2471C155.298 24.2257 157.426 26.2802 157.426 29.4475ZM153.574 29.5117C153.574 27.9708 152.957 27.0506 151.872 27.0506C150.34 27.0506 149.085 28.8911 149.085 31.1809C149.085 32.679 149.745 33.5778 150.83 33.5778C152.34 33.5992 153.574 31.7374 153.574 29.5117Z" fill="#212B36"/>
<path d="M159.872 24.5039H163.468L163.128 26.1517H163.319C163.872 25.0175 164.894 24.3327 166.106 24.3327C166.723 24.3327 167.234 24.4183 167.66 24.6109L166.936 27.8424C166.404 27.607 165.66 27.4572 165.021 27.4572C163.638 27.4572 162.766 28.2918 162.426 29.9183L161.085 36.1673H157.383L159.872 24.5039Z" fill="#212B36"/>
<path d="M167 31.3949C167 27.1362 169.617 24.2257 173.426 24.2257C176.404 24.2257 178.574 26.2159 178.574 29.1907C178.574 29.6615 178.489 30.5603 178.362 31.1595H170.383C170.383 31.2023 170.383 31.3307 170.383 31.3735C170.383 32.9572 171.319 33.7704 172.596 33.7704C173.596 33.7704 174.277 33.3424 174.574 32.679H178.043C177.489 34.9689 175.34 36.4455 172.383 36.4455C169.149 36.4455 167 34.5409 167 31.3949ZM175.17 29.0195C175.191 28.9553 175.213 28.784 175.213 28.6342C175.213 27.607 174.468 26.858 173.319 26.858C172.085 26.858 171.085 27.7354 170.766 29.0195H175.17Z" fill="#212B36"/>
<path d="M193.362 36.1673H183.149L186.34 21.037H190.17L187.66 33H194.043L193.362 36.1673Z" fill="#212B36"/>
<path d="M205.298 36.1673H195.085L198.277 21.037H202.106L199.575 33H205.958L205.298 36.1673Z" fill="#212B36"/>
<path d="M218.298 26.4514C218.255 24.9105 217.128 23.8619 215.511 23.8619C213.064 23.8619 211.191 26.4514 211.191 29.9397C211.191 32.0584 212.277 33.3638 214.043 33.3638C215.596 33.3638 216.936 32.4008 217.404 30.9669H221.106C220.489 34.3482 217.574 36.5739 213.745 36.5739C209.83 36.5739 207.298 34.0486 207.298 30.1537C207.298 24.5681 210.808 20.6303 215.745 20.6303C219.277 20.6303 222 22.9844 222 26.0447C222 26.2587 222 26.43 221.957 26.644H218.298C218.298 26.6226 218.298 26.5798 218.298 26.4514Z" fill="#212B36"/>
</svg>
