<?xml version="1.0" encoding="utf-8"?>
<!-- Generator: Adobe Illustrator 25.0.0, SVG Export Plug-In . SVG Version: 6.00 Build 0)  -->
<svg version="1.1" id="Layer_1" xmlns="http://www.w3.org/2000/svg" xmlns:xlink="http://www.w3.org/1999/xlink" x="0px" y="0px"
	 viewBox="0 0 1043.4 257" style="enable-background:new 0 0 1043.4 257;" xml:space="preserve">
<style type="text/css">
	.st0{fill:#009EE6;}
	.st1{opacity:0.59;fill:#007EB8;enable-background:new    ;}
	.st2{display:none;opacity:0.59;fill:#009EE6;enable-background:new    ;}
	.st3{fill:#212B36;}
</style>
<g>
	<path class="st0" d="M107.8,75.7C84.4,75.7,69.6,89,69.6,89L80,30.3H34.2l-17.4,87.3c6.3-6.6,17.4-10.4,31.7-10.4
		c20.8,0,26.7,10.4,46.8,10.4c16.5,0,23.5-4.1,31.5-9.8c2.9-2,4.8-0.6,3.4,4.8c-0.2,1-5.7,29-6.3,30.8
		c-3.3,11.3-21.3,18.9-37.8,18.9c-20.1,0-26-10-46.8-10c-14.2,0-24.6,3-31.4,10.1L0,202.3c0,0,12,0,45.7,0
		c0.9-5.6,3.1-12.5,3.1-12.5s7.5,14.9,35,14.9c35.7,0,70.4-24.8,77.5-64.1C169.1,97.2,138.1,75.7,107.8,75.7z"/>
	<path class="st1" d="M137.6,115.4h-7.7c-1.8,8.9-5.5,26.7-5.9,28.1c-3.2,10.9-20.3,18.5-36.4,18.9h26.3c9.9,0,18.5-7.1,20.6-17
		l5.5-27.3C140.1,116.8,139,115.4,137.6,115.4z"/>
</g>
<path class="st2" d="M140.4,170.4h-31.7v-60.2h62.1c1.8,0,3.2,1.7,2.9,3.5l-7,34.9C164.1,161.3,153.1,170.4,140.4,170.4z"/>
<g>
	<path class="st3" d="M237.2,148.6c0.6,5.2,6.2,8.7,12.7,8.7c7,0,11.9-3.2,11.9-7.9c0-3.5-2.5-5.5-9.4-7.6l-7.6-2.3
		c-10.8-3.2-17-10.2-17-19.8c0-13.4,12.4-23.2,29.3-23.2c16.7,0,27.9,9.2,28,22.5h-16.6c-0.4-5.1-5.3-8.9-12-8.9
		c-6,0-10.7,3.2-10.7,7.5c0,3.5,2.4,6.1,8.5,7.9l7.7,2.3c12.1,3.6,17.6,9.4,17.6,19.2c0,14.5-12.4,24-31,24
		c-16.9,0-28.4-8.4-28.7-22.3L237.2,148.6L237.2,148.6z"/>
	<path class="st3" d="M288.9,157.3c0-1.4,0.2-3.1,0.5-4.7l5.1-24.5H286l2.8-12.9h8.5l2.8-13.2h17.4l-2.9,13.2H326l-2.8,12.9H312
		l-4.6,21.6c-0.1,0.9-0.3,1.9-0.3,2.5c0,3,1.9,4.4,5.6,4.4c1.6,0,3.3-0.1,4.6-0.3l-2.6,12.1c-1.7,0.4-5,0.7-9,0.7
		C295.5,169.1,288.9,164.7,288.9,157.3z"/>
	<path class="st3" d="M332.6,114.5H350L338.4,169H321L332.6,114.5z M335.5,98.2c0-5,4.2-9.1,9.2-9.1c5.1,0,9.2,4,9.2,9.1
		s-4.1,9-9.2,9C339.7,107.2,335.5,103.2,335.5,98.2z"/>
	<path class="st3" d="M404.6,132c0,0.6,0,1.4,0,2.1h-16.1c-0.1-4.9-3.6-7.5-8.3-7.5c-7.7,0-12.7,8.6-12.7,19.7
		c0,7.5,4.2,10.6,8.6,10.6c4.7,0,8.3-2.5,9.7-7.4H402c-1.7,11.4-11.3,20.8-26.9,20.8c-15.2,0-24.7-9-24.7-23
		c0-19.4,12.1-34.1,30.9-34.1C395.9,113.2,404.2,122.8,404.6,132z"/>
	<path class="st3" d="M403.3,169l16-74.9h17.3l-8.5,40.1h1l19.4-19.6H468l-25,24l15.2,30.6h-18.9L429,147.9l-4.9,4.6l-3.5,16.7
		h-17.3L403.3,169L403.3,169z"/>
	<path class="st3" d="M460.5,146.7c0-19.9,12.3-33.5,30.2-33.5c14,0,24.2,9.3,24.2,23.2c0,2.2-0.4,6.4-1,9.2h-37.5c0,0.2,0,0.8,0,1
		c0,7.4,4.4,11.2,10.4,11.2c4.7,0,7.9-2,9.3-5.1h16.3c-2.6,10.7-12.7,17.6-26.6,17.6C470.6,170.3,460.5,161.4,460.5,146.7z
		 M498.9,135.6c0.1-0.3,0.2-1.1,0.2-1.8c0-4.8-3.5-8.3-8.9-8.3c-5.8,0-10.5,4.1-12,10.1H498.9z"/>
	<path class="st3" d="M526.6,114.5h16.9l-1.6,7.7h0.9c2.6-5.3,7.4-8.5,13.1-8.5c2.9,0,5.3,0.4,7.3,1.3l-3.4,15.1
		c-2.5-1.1-6-1.8-9-1.8c-6.5,0-10.6,3.9-12.2,11.5l-6.3,29.2h-17.4L526.6,114.5z"/>
	<path class="st3" d="M596.7,148.6c0.6,5.2,6.2,8.7,12.7,8.7c7,0,11.9-3.2,11.9-7.9c0-3.5-2.5-5.5-9.4-7.6l-7.6-2.3
		c-10.8-3.2-17-10.2-17-19.8c0-13.4,12.4-23.2,29.3-23.2c16.7,0,27.9,9.2,28,22.5H628c-0.4-5.1-5.3-8.9-12-8.9
		c-6,0-10.7,3.2-10.7,7.5c0,3.5,2.4,6.1,8.5,7.9l7.7,2.3c12.1,3.6,17.6,9.4,17.6,19.2c0,14.5-12.4,24-31,24
		c-16.9,0-28.4-8.4-28.7-22.3L596.7,148.6L596.7,148.6z"/>
	<path class="st3" d="M648.4,157.3c0-1.4,0.2-3.1,0.5-4.7l5.1-24.5h-8.6l2.8-12.9h8.5l2.8-13.2h17.4l-2.9,13.2h11.3l-2.8,12.9h-11.2
		l-4.6,21.6c-0.1,0.9-0.3,1.9-0.3,2.5c0,3,1.9,4.4,5.6,4.4c1.6,0,3.3-0.1,4.6-0.3l-2.6,12.1c-1.7,0.4-5,0.7-9,0.7
		C655.1,169.1,648.4,164.7,648.4,157.3z"/>
	<path class="st3" d="M739.9,137.6c0,18.7-13.6,32.7-31.6,32.7c-15.4,0-25.5-9.6-25.5-24.3c0-18.7,13.7-32.7,31.8-32.7
		C729.9,113.2,739.9,122.8,739.9,137.6z M721.8,137.9c0-7.2-2.9-11.5-8-11.5c-7.2,0-13.1,8.6-13.1,19.3c0,7,3.1,11.2,8.2,11.2
		C716,157,721.8,148.3,721.8,137.9z"/>
	<path class="st3" d="M751.4,114.5h16.9l-1.6,7.7h0.9c2.6-5.3,7.4-8.5,13.1-8.5c2.9,0,5.3,0.4,7.3,1.3l-3.4,15.1
		c-2.5-1.1-6-1.8-9-1.8c-6.5,0-10.6,3.9-12.2,11.5l-6.3,29.2h-17.4L751.4,114.5z"/>
	<path class="st3" d="M784.9,146.7c0-19.9,12.3-33.5,30.2-33.5c14,0,24.2,9.3,24.2,23.2c0,2.2-0.4,6.4-1,9.2h-37.5c0,0.2,0,0.8,0,1
		c0,7.4,4.4,11.2,10.4,11.2c4.7,0,7.9-2,9.3-5.1h16.3c-2.6,10.7-12.7,17.6-26.6,17.6C795,170.3,784.9,161.4,784.9,146.7z
		 M823.3,135.6c0.1-0.3,0.2-1.1,0.2-1.8c0-4.8-3.5-8.3-8.9-8.3c-5.8,0-10.5,4.1-12,10.1H823.3z"/>
	<path class="st3" d="M908.8,169h-48l15-70.7h18L882,154.2h30L908.8,169z"/>
	<path class="st3" d="M964.9,169h-48l15-70.7h18L938,154.2h30L964.9,169z"/>
	<path class="st3" d="M1026,123.6c-0.2-7.2-5.5-12.1-13.1-12.1c-11.5,0-20.3,12.1-20.3,28.4c0,9.9,5.1,16,13.4,16
		c7.3,0,13.6-4.5,15.8-11.2h17.4c-2.9,15.8-16.6,26.2-34.6,26.2c-18.4,0-30.3-11.8-30.3-30c0-26.1,16.5-44.5,39.7-44.5
		c16.6,0,29.4,11,29.4,25.3c0,1,0,1.8-0.2,2.8H1026C1026,124.4,1026,124.2,1026,123.6z"/>
</g>
</svg>
