<?xml version="1.0" encoding="UTF-8"?>
<svg width="269px" height="60px" viewBox="0 0 269 60" version="1.1" xmlns="http://www.w3.org/2000/svg" xmlns:xlink="http://www.w3.org/1999/xlink">
    <!-- Generator: Sketch 50 (54983) - http://www.bohemiancoding.com/sketch -->
    <title>bimmer-sticker-store-logo-invert</title>
    <desc>Created with Sketch.</desc>
    <defs>
        <circle id="path-1" cx="30" cy="30" r="30"></circle>
        <linearGradient x1="37.279239%" y1="33.1768202%" x2="82.2997021%" y2="86.8666651%" id="linearGradient-3">
            <stop stop-color="#008AC9" stop-opacity="0.0949388587" offset="0%"></stop>
            <stop stop-color="#008AC9" stop-opacity="0.378453351" offset="84.7588512%"></stop>
            <stop stop-color="#008AC9" stop-opacity="0.220165308" offset="100%"></stop>
        </linearGradient>
    </defs>
    <g id="bimmer-sticker-store-logo-invert" stroke="none" stroke-width="1" fill="none" fill-rule="evenodd">
        <path d="M80.265625,36 L73.4785156,36 L76.4765625,21.9082031 L82.2382812,21.9082031 C84.7675781,21.9082031 86.2714844,23.1777344 86.2714844,24.9550781 C86.2714844,26.8007812 84.9335938,28.1972656 83.078125,28.6074219 L83.0683594,28.6757812 C84.5917969,28.96875 85.5878906,30.0820312 85.5878906,31.5175781 C85.5878906,34.125 83.4003906,36 80.265625,36 Z M78.9570312,24.0175781 L78.1757812,27.6308594 L80.5,27.6308594 C82.1699219,27.6308594 83.2929688,26.7519531 83.2929688,25.53125 C83.2929688,24.5644531 82.5605469,24.0175781 81.1835938,24.0175781 L78.9570312,24.0175781 Z M76.8671875,33.734375 L79.7089844,33.734375 C81.4472656,33.734375 82.5898438,32.7871094 82.5898438,31.4394531 C82.5898438,30.3457031 81.8085938,29.7207031 80.2753906,29.7207031 L77.7363281,29.7207031 L76.8671875,33.734375 Z M86.3789062,36 L88.6054688,25.5019531 L91.4082031,25.5019531 L89.1816406,36 L86.3789062,36 Z M90.5683594,24.3789062 C89.7089844,24.3789062 89.0449219,23.7246094 89.0449219,22.875 C89.0449219,22.0253906 89.7089844,21.3613281 90.5683594,21.3613281 C91.4179688,21.3613281 92.0820312,22.0253906 92.0820312,22.875 C92.0820312,23.7246094 91.4179688,24.3789062 90.5683594,24.3789062 Z M91.1152344,36 L93.3417969,25.5019531 L96.0273438,25.5019531 L95.6660156,27.171875 L95.7246094,27.171875 C96.3203125,26.0585938 97.5117188,25.2675781 98.8398438,25.2675781 C100.226562,25.2675781 101.232422,26.078125 101.535156,27.1425781 L101.583984,27.1425781 C102.306641,26.0878906 103.478516,25.2675781 105.080078,25.2675781 C106.769531,25.2675781 108.009766,26.4785156 108.009766,28.1875 C108.009766,28.5683594 107.960938,28.9882812 107.873047,29.4277344 L106.486328,36 L103.712891,36 L105.001953,29.8574219 C105.070312,29.5644531 105.099609,29.3007812 105.099609,29.0566406 C105.099609,28.2167969 104.552734,27.6015625 103.634766,27.6015625 C102.658203,27.6015625 101.769531,28.3535156 101.496094,29.6035156 L100.148438,36 L97.4628906,36 L98.7519531,29.8574219 C98.8203125,29.5644531 98.8496094,29.3007812 98.8496094,29.0566406 C98.8496094,28.2167969 98.3027344,27.6015625 97.3847656,27.6015625 C96.4082031,27.6015625 95.5097656,28.3925781 95.2558594,29.6035156 L93.8984375,36 L91.1152344,36 Z M108.322266,36 L110.548828,25.5019531 L113.234375,25.5019531 L112.873047,27.171875 L112.931641,27.171875 C113.527344,26.0585938 114.71875,25.2675781 116.046875,25.2675781 C117.433594,25.2675781 118.439453,26.078125 118.742188,27.1425781 L118.791016,27.1425781 C119.513672,26.0878906 120.685547,25.2675781 122.287109,25.2675781 C123.976562,25.2675781 125.216797,26.4785156 125.216797,28.1875 C125.216797,28.5683594 125.167969,28.9882812 125.080078,29.4277344 L123.693359,36 L120.919922,36 L122.208984,29.8574219 C122.277344,29.5644531 122.306641,29.3007812 122.306641,29.0566406 C122.306641,28.2167969 121.759766,27.6015625 120.841797,27.6015625 C119.865234,27.6015625 118.976562,28.3535156 118.703125,29.6035156 L117.355469,36 L114.669922,36 L115.958984,29.8574219 C116.027344,29.5644531 116.056641,29.3007812 116.056641,29.0566406 C116.056641,28.2167969 115.509766,27.6015625 114.591797,27.6015625 C113.615234,27.6015625 112.716797,28.3925781 112.462891,29.6035156 L111.105469,36 L108.322266,36 Z M129.162109,29.6230469 L133.712891,29.6230469 C133.722656,29.5546875 133.732422,29.4277344 133.732422,29.3300781 C133.732422,28.2949219 133.068359,27.40625 131.75,27.40625 C130.451172,27.40625 129.494141,28.34375 129.162109,29.6230469 Z M130.910156,36.234375 C127.990234,36.234375 126.271484,34.3789062 126.271484,31.5078125 C126.271484,27.9726562 128.537109,25.2675781 131.847656,25.2675781 C134.552734,25.2675781 136.349609,27.015625 136.349609,29.7597656 C136.349609,30.2675781 136.310547,30.8925781 136.203125,31.390625 L128.878906,31.390625 C128.869141,31.5078125 128.859375,31.6152344 128.859375,31.7226562 C128.859375,33.109375 129.689453,34.0664062 131.017578,34.0664062 C132.130859,34.0664062 132.941406,33.5 133.263672,32.6601562 L135.890625,32.6601562 C135.353516,34.75 133.439453,36.234375 130.910156,36.234375 Z M136.740234,36 L138.976562,25.5019531 L141.671875,25.5019531 L141.378906,26.9667969 L141.4375,26.9667969 C141.994141,26 142.941406,25.3457031 144.162109,25.3457031 C144.71875,25.3457031 145.167969,25.453125 145.490234,25.609375 L144.943359,28.1679688 C144.582031,28.0019531 144.064453,27.8554688 143.498047,27.8554688 C142.003906,27.8554688 141.105469,28.6953125 140.744141,30.3164062 L139.533203,36 L136.740234,36 Z M149.503906,31.8496094 L152.345703,31.8496094 C152.501953,33.0117188 153.664062,33.8320312 155.314453,33.8320312 C156.818359,33.8320312 157.892578,33.1875 157.892578,32.1035156 C157.892578,31.2539062 157.384766,30.7949219 155.851562,30.3261719 L154.640625,29.9453125 C152.296875,29.2226562 151.105469,28.0214844 151.105469,26.0976562 C151.105469,23.4414062 153.341797,21.6738281 156.486328,21.6738281 C159.738281,21.6738281 161.886719,23.2851562 161.896484,25.9609375 L159.132812,25.9609375 C159.083984,24.8378906 158.097656,24.0664062 156.525391,24.0664062 C154.972656,24.0664062 154.113281,24.8476562 154.113281,25.7460938 C154.113281,26.546875 154.689453,27.0644531 156.105469,27.484375 L157.345703,27.8652344 C159.787109,28.5976562 160.929688,29.7011719 160.929688,31.625 C160.929688,34.2519531 158.791016,36.234375 155.265625,36.234375 C151.896484,36.234375 149.5625,34.6132812 149.503906,31.8496094 Z M166.164062,36.1171875 C164.259766,36.1171875 163.029297,35.3652344 163.029297,33.8515625 C163.029297,33.5878906 163.048828,33.2167969 163.136719,32.8066406 L164.201172,27.8652344 L162.638672,27.8652344 L163.097656,25.6777344 L164.660156,25.6777344 L165.1875,23.1289062 L167.980469,23.1289062 L167.433594,25.6777344 L169.582031,25.6777344 L169.132812,27.8652344 L166.994141,27.8652344 L166.007812,32.3867188 C165.958984,32.6015625 165.929688,32.8554688 165.929688,33.03125 C165.929688,33.6855469 166.369141,33.9492188 167.208984,33.9492188 C167.570312,33.9492188 167.746094,33.9394531 167.912109,33.9003906 L167.472656,36 C167.150391,36.0683594 166.642578,36.1171875 166.164062,36.1171875 Z M168.9375,36 L171.164062,25.5019531 L173.966797,25.5019531 L171.740234,36 L168.9375,36 Z M173.126953,24.3789062 C172.267578,24.3789062 171.603516,23.7246094 171.603516,22.875 C171.603516,22.0253906 172.267578,21.3613281 173.126953,21.3613281 C173.976562,21.3613281 174.640625,22.0253906 174.640625,22.875 C174.640625,23.7246094 173.976562,24.3789062 173.126953,24.3789062 Z M180.070312,25.2675781 C182.804688,25.2675781 184.513672,26.9863281 184.513672,29.0664062 L184.513672,29.3886719 L181.837891,29.3886719 C181.818359,28.3828125 181.125,27.6308594 179.962891,27.6308594 C178.341797,27.6308594 177.208984,29.2519531 177.208984,31.5664062 C177.208984,32.9824219 177.960938,33.8613281 179.113281,33.8613281 C180.197266,33.8613281 180.998047,33.2167969 181.310547,32.1816406 L183.996094,32.1816406 C183.585938,34.5546875 181.574219,36.234375 179.015625,36.234375 C176.115234,36.234375 174.40625,34.3984375 174.40625,31.6835938 C174.40625,27.875 176.652344,25.2675781 180.070312,25.2675781 Z M187.414062,36 L184.621094,36 L187.628906,21.9082031 L190.412109,21.9082031 L188.78125,29.515625 L188.839844,29.515625 L193.185547,25.5019531 L196.486328,25.5019531 L191.554688,29.9941406 L194.523438,36 L191.486328,36 L189.318359,31.5859375 L188.15625,32.5820312 L187.414062,36 Z M198.322266,29.6230469 L202.873047,29.6230469 C202.882812,29.5546875 202.892578,29.4277344 202.892578,29.3300781 C202.892578,28.2949219 202.228516,27.40625 200.910156,27.40625 C199.611328,27.40625 198.654297,28.34375 198.322266,29.6230469 Z M200.070312,36.234375 C197.150391,36.234375 195.431641,34.3789062 195.431641,31.5078125 C195.431641,27.9726562 197.697266,25.2675781 201.007812,25.2675781 C203.712891,25.2675781 205.509766,27.015625 205.509766,29.7597656 C205.509766,30.2675781 205.470703,30.8925781 205.363281,31.390625 L198.039062,31.390625 C198.029297,31.5078125 198.019531,31.6152344 198.019531,31.7226562 C198.019531,33.109375 198.849609,34.0664062 200.177734,34.0664062 C201.291016,34.0664062 202.101562,33.5 202.423828,32.6601562 L205.050781,32.6601562 C204.513672,34.75 202.599609,36.234375 200.070312,36.234375 Z M205.900391,36 L208.136719,25.5019531 L210.832031,25.5019531 L210.539062,26.9667969 L210.597656,26.9667969 C211.154297,26 212.101562,25.3457031 213.322266,25.3457031 C213.878906,25.3457031 214.328125,25.453125 214.650391,25.609375 L214.103516,28.1679688 C213.742188,28.0019531 213.224609,27.8554688 212.658203,27.8554688 C211.164062,27.8554688 210.265625,28.6953125 209.904297,30.3164062 L208.693359,36 L205.900391,36 Z M218.664062,31.8496094 L221.505859,31.8496094 C221.662109,33.0117188 222.824219,33.8320312 224.474609,33.8320312 C225.978516,33.8320312 227.052734,33.1875 227.052734,32.1035156 C227.052734,31.2539062 226.544922,30.7949219 225.011719,30.3261719 L223.800781,29.9453125 C221.457031,29.2226562 220.265625,28.0214844 220.265625,26.0976562 C220.265625,23.4414062 222.501953,21.6738281 225.646484,21.6738281 C228.898438,21.6738281 231.046875,23.2851562 231.056641,25.9609375 L228.292969,25.9609375 C228.244141,24.8378906 227.257812,24.0664062 225.685547,24.0664062 C224.132812,24.0664062 223.273438,24.8476562 223.273438,25.7460938 C223.273438,26.546875 223.849609,27.0644531 225.265625,27.484375 L226.505859,27.8652344 C228.947266,28.5976562 230.089844,29.7011719 230.089844,31.625 C230.089844,34.2519531 227.951172,36.234375 224.425781,36.234375 C221.056641,36.234375 218.722656,34.6132812 218.664062,31.8496094 Z M235.324219,36.1171875 C233.419922,36.1171875 232.189453,35.3652344 232.189453,33.8515625 C232.189453,33.5878906 232.208984,33.2167969 232.296875,32.8066406 L233.361328,27.8652344 L231.798828,27.8652344 L232.257812,25.6777344 L233.820312,25.6777344 L234.347656,23.1289062 L237.140625,23.1289062 L236.59375,25.6777344 L238.742188,25.6777344 L238.292969,27.8652344 L236.154297,27.8652344 L235.167969,32.3867188 C235.119141,32.6015625 235.089844,32.8554688 235.089844,33.03125 C235.089844,33.6855469 235.529297,33.9492188 236.369141,33.9492188 C236.730469,33.9492188 236.90625,33.9394531 237.072266,33.9003906 L236.632812,36 C236.310547,36.0683594 235.802734,36.1171875 235.324219,36.1171875 Z M243.537109,33.9296875 C245.207031,33.9296875 246.4375,32.2402344 246.4375,30.0332031 C246.4375,28.5488281 245.65625,27.5722656 244.445312,27.5722656 C242.765625,27.5722656 241.535156,29.2421875 241.535156,31.46875 C241.535156,32.9433594 242.326172,33.9296875 243.537109,33.9296875 Z M244.542969,25.2675781 C247.394531,25.2675781 249.279297,27.1523438 249.279297,29.9648438 C249.279297,33.5585938 246.818359,36.234375 243.449219,36.234375 C240.597656,36.234375 238.712891,34.3496094 238.712891,31.5273438 C238.712891,27.9335938 241.173828,25.2675781 244.542969,25.2675781 Z M249.679688,36 L251.916016,25.5019531 L254.611328,25.5019531 L254.318359,26.9667969 L254.376953,26.9667969 C254.933594,26 255.880859,25.3457031 257.101562,25.3457031 C257.658203,25.3457031 258.107422,25.453125 258.429688,25.609375 L257.882812,28.1679688 C257.521484,28.0019531 257.003906,27.8554688 256.4375,27.8554688 C254.943359,27.8554688 254.044922,28.6953125 253.683594,30.3164062 L252.472656,36 L249.679688,36 Z M260.939453,29.6230469 L265.490234,29.6230469 C265.5,29.5546875 265.509766,29.4277344 265.509766,29.3300781 C265.509766,28.2949219 264.845703,27.40625 263.527344,27.40625 C262.228516,27.40625 261.271484,28.34375 260.939453,29.6230469 Z M262.6875,36.234375 C259.767578,36.234375 258.048828,34.3789062 258.048828,31.5078125 C258.048828,27.9726562 260.314453,25.2675781 263.625,25.2675781 C266.330078,25.2675781 268.126953,27.015625 268.126953,29.7597656 C268.126953,30.2675781 268.087891,30.8925781 267.980469,31.390625 L260.65625,31.390625 C260.646484,31.5078125 260.636719,31.6152344 260.636719,31.7226562 C260.636719,33.109375 261.466797,34.0664062 262.794922,34.0664062 C263.908203,34.0664062 264.71875,33.5 265.041016,32.6601562 L267.667969,32.6601562 C267.130859,34.75 265.216797,36.234375 262.6875,36.234375 Z" id="Bimmer-Sticker-Store" fill="#FFFFFF"></path>
        <mask id="mask-2" fill="white">
            <use xlink:href="#path-1"></use>
        </mask>
        <use id="base" fill="#FFFFFF" xlink:href="#path-1"></use>
        <circle id="transfer" stroke-opacity="0.366338315" stroke="#008AC9" fill="url(#linearGradient-3)" mask="url(#mask-2)" cx="19" cy="19" r="38.5"></circle>
        <path d="M18.7382812,36.1660156 C17.1464844,36.1660156 15.828125,35.2773438 15.4570312,33.9980469 L15.3886719,33.9980469 L14.96875,36 L12.2734375,36 L15.28125,21.9082031 L18.0546875,21.9082031 L16.9511719,27.0546875 L17.0097656,27.0546875 C17.625,26.0097656 18.8457031,25.3359375 20.1835938,25.3359375 C22.4394531,25.3359375 23.875,26.9277344 23.875,29.5839844 C23.875,33.1582031 21.8144531,36.1660156 18.7382812,36.1660156 Z M18.1914062,33.8125 C19.8515625,33.8125 21.0234375,32.0839844 21.0234375,29.9648438 C21.0234375,28.5292969 20.28125,27.6210938 19.0214844,27.6210938 C17.3515625,27.6210938 16.1015625,29.4179688 16.1015625,31.5371094 C16.1015625,32.8847656 16.9414062,33.8125 18.1914062,33.8125 Z M24.2363281,36 L26.4628906,25.5019531 L29.1484375,25.5019531 L28.7871094,27.171875 L28.8457031,27.171875 C29.4414062,26.0585938 30.6328125,25.2675781 31.9609375,25.2675781 C33.3476562,25.2675781 34.3535156,26.078125 34.65625,27.1425781 L34.7050781,27.1425781 C35.4277344,26.0878906 36.5996094,25.2675781 38.2011719,25.2675781 C39.890625,25.2675781 41.1308594,26.4785156 41.1308594,28.1875 C41.1308594,28.5683594 41.0820312,28.9882812 40.9941406,29.4277344 L39.6074219,36 L36.8339844,36 L38.1230469,29.8574219 C38.1914062,29.5644531 38.2207031,29.3007812 38.2207031,29.0566406 C38.2207031,28.2167969 37.6738281,27.6015625 36.7558594,27.6015625 C35.7792969,27.6015625 34.890625,28.3535156 34.6171875,29.6035156 L33.2695312,36 L30.5839844,36 L31.8730469,29.8574219 C31.9414062,29.5644531 31.9707031,29.3007812 31.9707031,29.0566406 C31.9707031,28.2167969 31.4238281,27.6015625 30.5058594,27.6015625 C29.5292969,27.6015625 28.6308594,28.3925781 28.3769531,29.6035156 L27.0195312,36 L24.2363281,36 Z M41.4433594,36 L43.6796875,25.5019531 L46.375,25.5019531 L46.0820312,26.9667969 L46.140625,26.9667969 C46.6972656,26 47.6445312,25.3457031 48.8652344,25.3457031 C49.421875,25.3457031 49.8710938,25.453125 50.1933594,25.609375 L49.6464844,28.1679688 C49.2851562,28.0019531 48.7675781,27.8554688 48.2011719,27.8554688 C46.7070312,27.8554688 45.8085938,28.6953125 45.4472656,30.3164062 L44.2363281,36 L41.4433594,36 Z" id="bmr" fill="#008AC9" mask="url(#mask-2)"></path>
    </g>
</svg>