<svg id="f44863ff-54d0-4707-add2-ef8c92f878b9" data-name="Layer 1" xmlns="http://www.w3.org/2000/svg" viewBox="0 0 164 48"><title>coming-soon</title><path d="M0,0,10,8V48L0,40Z" fill="#ddc151" fill-rule="evenodd"/><path d="M0,0H148.6c5,0,6.69,1.33,7.47,4.35,1.83,7.33,5.53,22.12,7.54,30.15,1,3.43.24,5.5-4.49,5.5H0Z" fill="#fedf61" fill-rule="evenodd"/><path d="M49.29,18.36c.32.12.64.25,1,.4l.59-1.48a6.4,6.4,0,0,0-1.23-.43,5.12,5.12,0,0,0-1.28-.17,4,4,0,0,0-2.19.57,3.57,3.57,0,0,0-1.36,1.56,5.35,5.35,0,0,0-.47,2.29,6.07,6.07,0,0,0,.41,2.31A3.25,3.25,0,0,0,46,25a4,4,0,0,0,2.19.54,5.86,5.86,0,0,0,1.23-.11,6.16,6.16,0,0,0,1.12-.33V23.52a9.43,9.43,0,0,1-1.14.34,4.7,4.7,0,0,1-1.05.12,1.83,1.83,0,0,1-1.63-.75,3.75,3.75,0,0,1-.51-2.12A3.61,3.61,0,0,1,46.74,19a1.83,1.83,0,0,1,1.59-.78A3,3,0,0,1,49.29,18.36Z" fill="#383838"/><path d="M59.44,18.75a3.28,3.28,0,0,0-1.34-1.53,4.29,4.29,0,0,0-2.29-.55,4.34,4.34,0,0,0-2.31.55,3.28,3.28,0,0,0-1.34,1.53,5.51,5.51,0,0,0-.44,2.31,5.6,5.6,0,0,0,.44,2.33,3.33,3.33,0,0,0,1.34,1.55,5.08,5.08,0,0,0,4.6,0,3.35,3.35,0,0,0,1.34-1.54,5.75,5.75,0,0,0,.44-2.32A5.76,5.76,0,0,0,59.44,18.75Zm-5.3.21a1.86,1.86,0,0,1,1.67-.78,1.83,1.83,0,0,1,1.66.78,3.89,3.89,0,0,1,.5,2.12,3.87,3.87,0,0,1-.5,2.11,2.17,2.17,0,0,1-3.33,0,3.78,3.78,0,0,1-.51-2.11A3.8,3.8,0,0,1,54.14,19Z" fill="#383838"/><path d="M67,25.37l2.2-6.71h0q0,.24,0,.72c0,.31,0,.65,0,1s0,.66,0,.94v4.05h1.69V16.8H68.34l-2.15,6.56h0l-2-6.56H61.65v8.57h1.62v-4c0-.29,0-.62,0-1s0-.71,0-1,0-.56,0-.72h0l2.07,6.72Z" fill="#383838"/><path d="M76.17,24.34l-1-.48V18.32l1-.48v-1h-3.9v1l1,.48v5.54l-1,.48v1h3.9Z" fill="#383838"/><path d="M85.23,16.8H83.6v4.06c0,.4,0,.8,0,1.19s0,.78,0,1.17h0L79.93,16.8H77.64v8.57h1.62v-4l-.06-1.22c0-.41,0-.82,0-1.23h0l3.73,6.48h2.3Z" fill="#383838"/><path d="M90.64,22.07h1.62v1.79l-.5.08a4,4,0,0,1-.65,0,2,2,0,0,1-2-1.38,4.53,4.53,0,0,1-.23-1.49,3.51,3.51,0,0,1,.32-1.53,2.36,2.36,0,0,1,.9-1,2.54,2.54,0,0,1,1.37-.36,4.11,4.11,0,0,1,1.06.13,5.27,5.27,0,0,1,.9.33l.6-1.45a5.82,5.82,0,0,0-1.2-.38,6.07,6.07,0,0,0-1.35-.15,5.09,5.09,0,0,0-2.44.54,3.62,3.62,0,0,0-1.52,1.53A5,5,0,0,0,87,21.08a4.68,4.68,0,0,0,1,3.28A3.77,3.77,0,0,0,91,25.49a9.2,9.2,0,0,0,1.65-.13A10.63,10.63,0,0,0,94,25V20.56h-3.4Z" fill="#383838"/><path d="M104,21.87a2.43,2.43,0,0,0-.71-.79,6.89,6.89,0,0,0-1.13-.65,11.72,11.72,0,0,1-1.21-.65.83.83,0,0,1-.41-.72.79.79,0,0,1,.28-.62,1.17,1.17,0,0,1,.79-.24,3.42,3.42,0,0,1,1,.13,10.54,10.54,0,0,1,1.06.37l.59-1.42a8.87,8.87,0,0,0-1.28-.44,5.2,5.2,0,0,0-1.27-.16,3.23,3.23,0,0,0-2.12.65,2.17,2.17,0,0,0-.78,1.79,2.2,2.2,0,0,0,.72,1.72,3.69,3.69,0,0,0,.67.49c.23.14.45.25.65.35l.85.42a2.2,2.2,0,0,1,.59.43.75.75,0,0,1,.23.55.84.84,0,0,1-.29.65,1.33,1.33,0,0,1-1,.26,3.94,3.94,0,0,1-1.3-.22c-.44-.15-.86-.31-1.27-.49V25a5.56,5.56,0,0,0,2.43.51,3.54,3.54,0,0,0,2.33-.68,2.21,2.21,0,0,0,.82-1.81A2.28,2.28,0,0,0,104,21.87Z" fill="#383838"/><path d="M113.15,18.75a3.28,3.28,0,0,0-1.34-1.53,4.29,4.29,0,0,0-2.29-.55,4.34,4.34,0,0,0-2.31.55,3.28,3.28,0,0,0-1.34,1.53,5.51,5.51,0,0,0-.44,2.31,5.6,5.6,0,0,0,.44,2.33,3.33,3.33,0,0,0,1.34,1.55,5.08,5.08,0,0,0,4.6,0,3.35,3.35,0,0,0,1.34-1.54,5.75,5.75,0,0,0,.44-2.32A5.76,5.76,0,0,0,113.15,18.75Zm-5.3.21a1.86,1.86,0,0,1,1.67-.78,1.83,1.83,0,0,1,1.66.78,3.89,3.89,0,0,1,.5,2.12,3.87,3.87,0,0,1-.5,2.11,2.17,2.17,0,0,1-3.33,0,3.78,3.78,0,0,1-.51-2.11A3.8,3.8,0,0,1,107.85,19Z" fill="#383838"/><path d="M122.7,18.75a3.28,3.28,0,0,0-1.34-1.53,4.29,4.29,0,0,0-2.29-.55,4.39,4.39,0,0,0-2.31.55,3.28,3.28,0,0,0-1.34,1.53,5.67,5.67,0,0,0-.44,2.31,5.76,5.76,0,0,0,.44,2.33,3.33,3.33,0,0,0,1.34,1.55,5.08,5.08,0,0,0,4.6,0,3.35,3.35,0,0,0,1.34-1.54,5.75,5.75,0,0,0,.44-2.32A5.76,5.76,0,0,0,122.7,18.75Zm-5.3.21a1.86,1.86,0,0,1,1.67-.78,1.83,1.83,0,0,1,1.66.78,3.89,3.89,0,0,1,.5,2.12,3.87,3.87,0,0,1-.5,2.11,2.17,2.17,0,0,1-3.33,0,3.78,3.78,0,0,1-.51-2.11A3.8,3.8,0,0,1,117.4,19Z" fill="#383838"/><path d="M132.51,16.8h-1.63v4.06c0,.4,0,.8,0,1.19s0,.78,0,1.17h0l-3.72-6.42h-2.29v8.57h1.62v-4l-.06-1.22c0-.41,0-.82,0-1.23h0l3.73,6.48h2.3Z" fill="#383838"/><path d="M136.33,16.8h-2l.3,5.73H136Zm-1.75,8.49a1.22,1.22,0,0,0,1.45,0,1.13,1.13,0,0,0,0-1.53,1.3,1.3,0,0,0-1.45,0,1.13,1.13,0,0,0,0,1.53Z" fill="#383838"/><path d="M35.76,18l-3.58-.33a.6.6,0,0,1-.51-.37l-1.29-3a.62.62,0,0,0-1.14,0l-1.27,3a.6.6,0,0,1-.51.37L23.88,18a.6.6,0,0,0-.35,1l2.7,2.31a.6.6,0,0,1,.19.59l-.81,3.23a.62.62,0,0,0,.92.66l3-1.7a.64.64,0,0,1,.63,0l3,1.7a.62.62,0,0,0,.92-.66L33.24,22a.58.58,0,0,1,.19-.59l2.7-2.31A.61.61,0,0,0,35.76,18Z" fill="#383838"/></svg>