<?xml version="1.0" encoding="UTF-8"?>
<svg width="128px" height="46px" viewBox="0 0 128 46" version="1.1" xmlns="http://www.w3.org/2000/svg" xmlns:xlink="http://www.w3.org/1999/xlink">
    <!-- Generator: Sketch 49.3 (51167) - http://www.bohemiancoding.com/sketch -->
    <title>icon-oracal</title>
    <desc>Created with Sketch.</desc>
    <defs></defs>
    <g id="icon-oracal" stroke="none" stroke-width="1" fill="none" fill-rule="evenodd">
        <g id="Shape">
            <path d="M36.1967213,39.2131148 L84,39.2131148 C84.7540984,42.2295082 86.5,44.5 89.7377049,46 L42.3803279,45.8491803 C37.704918,45.8491803 36.0621626,42.4425243 36.1967213,39.2131148 Z" fill="#188BC9" fill-rule="nonzero"></path>
            <path d="M51.5,37 L86,37 C86,41.2983607 89.5,45 94,45 C97.7704918,45 100.295082,42.9836066 101.803279,39.2131148 L113,6 C114.131148,2.96721311 114.888525,1.13114754 117,7.10542736e-15 L71.5,7.10542736e-15 C67.7071375,7.56991905e-15 65.6065574,1.50819672 64.4,4.52459016 C64.2491803,4.97704918 59.9491803,15.8021858 51.5,37 Z" fill="#188BC9" fill-rule="nonzero"></path>
            <path d="M128,6 L115.5,6 C117.083607,1.24918033 119.484604,3.08047132e-16 122,0 C125.36928,-4.12617833e-16 128,2.61095097 128,6 Z" fill="#188BC9" fill-rule="nonzero"></path>
            <path d="M90.2655738,9.12459016 L81.2918033,9.12459016 L79.7081967,12.9704918 C79.4819672,12.6688525 79.1803279,12.3672131 78.8786885,12.0655738 C77.9737705,11.3868852 77.0688525,10.6327869 76.0131148,10.104918 C73.7508197,9.04918033 71.2622951,8.59672131 68.8491803,8.52131148 C67.5672131,8.52131148 66.2852459,8.74754098 64.9278689,8.97377049 C63.7213115,9.27540984 62.5901639,9.72786885 61.3836066,10.3311475 C60.5540984,10.7836066 59.8,11.3114754 59.1213115,11.9147541 C58.442623,12.5180328 57.9147541,13.2721311 57.3868852,14.0262295 L55.3508197,9.04918033 L46.3770492,9.04918033 L44.3409836,14.0262295 C44.1147541,13.1967213 43.7377049,12.3672131 43.1344262,11.6131148 C42.304918,10.8590164 41.4754098,10.104918 40.5704918,9.72786885 C39.5901639,9.27540984 38.5344262,9.2 37.4032787,9.12459016 C34.3114754,9.12459016 31.2196721,9.12459016 28.1278689,9.12459016 L21.5672131,9.12459016 L21.5672131,10.9344262 C20.2852459,10.2557377 19.0032787,9.57704918 17.6459016,9.2 C16.2885246,8.82295082 14.8557377,8.74754098 13.4229508,8.59672131 C12.8196721,8.59672131 12.2163934,8.59672131 11.6885246,8.67213115 C10.1803279,9.04918033 8.82295082,9.27540984 7.54098361,9.80327869 C6.25901639,10.3311475 5.12786885,11.1606557 3.92131148,11.9901639 C3.16721311,12.8196721 2.33770492,13.5737705 1.80983607,14.5540984 C1.28196721,15.5344262 0.980327869,16.5901639 0.678688525,17.7213115 C0.603278689,18.7770492 0.603278689,19.8327869 0.829508197,20.8131148 C1.0557377,21.7934426 1.58360656,22.6983607 2.03606557,23.6786885 C2.63934426,24.5081967 3.31803279,25.2622951 4.07213115,25.9409836 C4.82622951,26.6196721 5.73114754,27.0721311 6.63606557,27.6 C7.99344262,28.1278689 9.35081967,28.7311475 10.7836066,28.957377 C12.2163934,29.1836066 13.6491803,29.1081967 15.157377,29.0327869 C17.3442623,28.7311475 19.4557377,28.052459 21.4918033,26.7704918 L21.4918033,27.7508197 L29.4098361,27.7508197 L29.4098361,21.4163934 L32.4262295,21.4163934 L36.1967213,27.7508197 L46.7540984,27.7508197 L47.4327869,25.9409836 L54.295082,25.9409836 L54.8229508,27.7508197 L62.8163934,27.7508197 C64.852459,28.3540984 66.8885246,29.0327869 68.9245902,29.0327869 C70.9606557,29.0327869 72.9967213,28.4295082 75.0327869,27.7508197 L81.8196721,27.7508197 L82.347541,25.9409836 L89.2852459,25.9409836 L89.8131148,27.7508197 C92.2262295,27.7508197 94.5639344,27.7508197 96.9770492,27.7508197 L112.511475,27.7508197 L112.511475,22.095082 L101.27541,22.095082 L101.27541,9.12459016 L93.5081967,9.12459016 L93.5081967,16.9672131 L90.2655738,9.12459016 Z M76.6163934,20.5114754 L72.7704918,20.5114754 C72.5442623,20.9639344 72.242623,21.4163934 71.8655738,21.7934426 C70.6590164,22.9245902 69.0754098,23.2262295 67.5672131,22.7737705 C67.0393443,22.6229508 66.5868852,22.3213115 66.1344262,21.9442623 C64.7016393,20.7377049 64.2491803,19.0786885 64.5508197,17.495082 C64.7016393,16.9672131 64.852459,16.4393443 65.1540984,15.9868852 C65.9081967,14.8557377 66.8885246,14.3278689 67.8688525,14.0262295 C68.9245902,13.8 70.1311475,13.9508197 71.2622951,14.704918 C71.7147541,15.0065574 72.1672131,15.4590164 72.4688525,15.9868852 L78.4262295,15.9868852 L76.6163934,20.5114754 Z M41.3245902,21.3409836 L40.7967213,20.7377049 C41.1737705,20.5868852 41.5508197,20.3606557 41.9278689,20.0590164 L41.3245902,21.3409836 Z M9.95409836,16.0622951 C11.5377049,14.1770492 13.4229508,13.8754098 15.6098361,15.0065574 C16.6655738,15.6852459 17.1934426,16.5901639 17.495082,17.495082 C17.8721311,18.6262295 17.7967213,19.9836066 17.1180328,21.1901639 C16.8163934,21.7180328 16.3639344,22.2459016 15.8360656,22.6229508 C14.8557377,23.3016393 13.6491803,23.6032787 12.442623,23.3770492 C11.8393443,23.2262295 11.3114754,23 10.8590164,22.6229508 C9.12459016,21.2655738 8.67213115,19.3803279 9.2,17.495082 C9.42622951,16.9672131 9.65245902,16.5147541 9.95409836,16.0622951 Z M35.442623,14.704918 C35.8196721,14.6295082 36.4983607,15.157377 36.0459016,15.6852459 C35.895082,15.8360656 35.6688525,15.9114754 35.442623,15.9114754 L29.4098361,15.9114754 L29.4098361,14.704918 L35.442623,14.704918 Z M51.6557377,20.5868852 L50.0721311,20.5868852 L50.9016393,18.0983607 L51.6557377,20.5868852 Z M86.5704918,20.5868852 L84.9868852,20.5868852 L85.8163934,18.0983607 L86.5704918,20.5868852 Z" fill="#000000" fill-rule="nonzero"></path>
            <path d="M13.347541,9.72786885 C19.8327869,9.72786885 25.0360656,13.8754098 25.0360656,18.852459 C25.0360656,23.8295082 19.757377,27.9770492 13.347541,27.9770492 C6.93770492,27.9770492 1.65901639,23.9803279 1.65901639,18.9278689 C1.65901639,13.8754098 6.93770492,9.72786885 13.347541,9.72786885 Z M13.347541,13.347541 C16.2885246,13.347541 18.7770492,15.8360656 18.7770492,18.9278689 C18.7770492,22.0196721 16.3639344,24.5081967 13.347541,24.5081967 C10.4065574,24.5081967 7.91803279,22.0196721 7.91803279,18.9278689 C7.91803279,15.8360656 10.4065574,13.347541 13.347541,13.347541 Z M28.3540984,13.5737705 L35.442623,13.5737705 C36.4229508,13.5737705 37.252459,14.3278689 37.252459,15.2327869 C37.252459,16.1377049 36.4229508,16.8918033 35.442623,16.8918033 L28.3540984,16.8918033 L28.3540984,13.5737705 Z M37.4032787,10.2557377 C40.7213115,10.2557377 43.4360656,12.5180328 43.3606557,15.3081967 C43.3606557,17.6459016 41.4754098,19.6065574 38.9114754,20.2098361 L44.642623,26.695082 L36.8,26.695082 L33.0295082,20.3606557 L28.3540984,20.3606557 L28.3540984,26.695082 L22.547541,26.695082 L22.547541,26.0163934 L23.9803279,24.6590164 L25.1868852,22.9245902 L25.9409836,20.9639344 L26.242623,18.852459 L25.9409836,16.7409836 L25.4131148,15.2327869 L25.3377049,15.0819672 L25.1868852,14.704918 L24.6590164,13.8 L24.5836066,13.7245902 L23.9803279,12.9704918 L22.547541,11.6131148 L22.547541,10.104918 L37.4032787,10.2557377 Z M55.652459,26.695082 L61.4590164,26.695082 L54.6721311,10.1803279 C52.1836066,10.1803279 49.6196721,10.1803279 47.1311475,10.1803279 L42.1540984,22.1704918 L46.0754098,26.6196721 L46.6032787,24.8852459 L55.1245902,24.8852459 L55.652459,26.695082 Z M50.9016393,14.704918 L53.1639344,21.7180328 L48.6393443,21.7180328 L50.9016393,14.704918 Z M80.3868852,21.5672131 C78.652459,25.2622951 74.052459,27.9770492 68.8491803,27.9770492 C66.5114754,27.9770492 64.4,27.4491803 62.6655738,26.5442623 L57.9901639,15.3081967 C59.5737705,12.0655738 63.8721311,9.72786885 68.9245902,9.72786885 C73.8262295,9.72786885 77.9737705,11.9147541 79.7081967,15.0065574 L73.0721311,15.0065574 C72.0918033,13.7245902 70.5081967,12.9704918 68.8491803,12.9704918 C65.8327869,12.9704918 63.3442623,15.4590164 63.3442623,18.5508197 C63.3442623,21.642623 65.8327869,24.1311475 68.8491803,24.1311475 C70.7344262,24.1311475 72.3934426,23.1508197 73.3737705,21.642623 L80.3868852,21.642623 L80.3868852,21.5672131 Z M90.5672131,26.695082 L96.3737705,26.695082 L89.5868852,10.1803279 C87.0983607,10.1803279 84.5344262,10.1803279 82.0459016,10.1803279 L80.4622951,13.9508197 C80.8393443,14.5540984 81.2163934,15.2327869 81.6688525,15.9114754 L79.6327869,15.9114754 L77.747541,20.4360656 L82.0459016,20.4360656 C81.2918033,22.1704918 80.5377049,23.7540984 79.104918,25.1114754 C78.5016393,25.7147541 77.8229508,26.242623 77.0688525,26.695082 L80.9901639,26.695082 L81.5180328,24.8852459 L90.0393443,24.8852459 L90.5672131,26.695082 Z M85.8163934,14.704918 L88.0786885,21.7180328 L83.5540984,21.7180328 L85.8163934,14.704918 Z M94.5639344,10.2557377 L100.144262,10.2557377 L100.144262,23.2262295 L111.380328,23.2262295 L111.380328,26.7704918 L97.5803279,26.7704918 L94.5639344,19.4557377 L94.5639344,10.2557377 Z" fill="#FFFFFF"></path>
        </g>
    </g>
</svg>