<svg id="db58b619-ba49-46fd-80e4-af23d50b043d" data-name="Layer 1" xmlns="http://www.w3.org/2000/svg" viewBox="0 0 144 144"><title>logo</title><rect width="144" height="144" fill="#088ac8"/><path id="a8ad3421-022c-450c-b58e-89a6673f6615" data-name="bmr" d="M120.86,73.76a25.6,25.6,0,0,0-5.38.84c-1.87.48-4.84,1.81-9,4.56a25.45,25.45,0,0,1,2.87-5c1.56-1.94.2-2.44-1.63-2.17a34.73,34.73,0,0,0-5.6,1.38,2.41,2.41,0,0,0-1.5,1.33,127.63,127.63,0,0,0-5.18,14.47A38.68,38.68,0,0,0,89.72,92c1.77-6,5-13.38,6.15-16.62,1.26-3.66-.27-3.61-3.33-3.64-2.43,0-5.89,1.38-9.82,3.69v0c1-2-1-3.16-3.4-3.28s-4.49,1.49-9.13,3.74c.9-1.33,0,0,1.69-3.26s-3-1.94-5.14-1.28A6.71,6.71,0,0,0,62.13,75a4.83,4.83,0,0,0-.25.63,43.61,43.61,0,0,1-5.43,3.83,41.3,41.3,0,0,0,1.84-4.09c1.09-3.29-.69-4.6-2.41-4.82a48.56,48.56,0,0,0-6.35.17C61.32,59.85,69,42.08,69.51,38.2s-2.08-5.87-4.44-5.68-3.83.3-7.9.95S47.34,38.7,44.44,44.12c-5.61,10.49-12.91,40-12.27,50.8a3.35,3.35,0,0,0,3.45,3.49s3.22-.08,5,0a7.13,7.13,0,0,0,4.79-1.75,25.63,25.63,0,0,0,4.21-5.21c1.28-.77,5.32-3.56,8.62-6-1.53,4.32-3.13,9.34-4.11,12.65a.92.92,0,0,0,1.09,1.29c2.11-.32,2.16-.35,3.1-.46a4.49,4.49,0,0,0,3.16-2.22C62.11,95,65.36,87,66.56,84.09a10.1,10.1,0,0,1,1.74-2.92,13.8,13.8,0,0,1,4.08-2.54c3-1.37,1.71.77,1.71.77-1.23,3.11-5.71,14.89-7.24,18.95a1,1,0,0,0,.93,1.37c1.6,0,4,0,4.68-.12.94-.12,1.37-.1,2.06-1.95C75,96.4,77.84,88.23,80.14,82a34.46,34.46,0,0,1,4.53-2.82c2.21-1,1.85.34,1.85.34S81.25,94.31,80.42,97c-.68,2.13-.13,3.2,1.43,3.28a26.25,26.25,0,0,0,4.08-.25c1.79-.16,1.3-.51,2.1-1.37a26,26,0,0,1,5.81-4.2c-.74,2.62-1.23,4.51-1.35,5-.4,1.53.39,2,2.11,1.93,3.21,0,4.24.64,5-2.11,1.07-3.93,2.49-8.63,4-13,2.43-3.34,7.67-5.55,9.78-6.34a.58.58,0,0,1,.77.64,11.25,11.25,0,0,1-.66,2.94c-.36.41-.58,1.43.61,1.4A20,20,0,0,0,120,83.65c.47-2.55,1.23-5.94,1.45-7S122.47,73.75,120.86,73.76ZM58.77,36.92c1.16-1,3.44-2.51,2.91,1.65C60.31,49.4,52,64.25,44.2,69.05,47.4,55.54,50.93,42.79,58.77,36.92ZM41.2,92.32a.63.63,0,0,1-1.08-.47c.32-4.6,1.21-8.6,1.61-11.72a56.43,56.43,0,0,1,6.07-5.71c3.58-2.88,2.11,1.75,2.11,1.75C49.75,81,45.23,88.09,41.2,92.32Z" fill="#006fa6"/><path d="M122.13,65.52a35.85,35.85,0,0,0-5.52,2,46.16,46.16,0,0,0-9.23,6.15,28.46,28.46,0,0,1,2.9-5.36c1.57-2.13.17-2.33-1.7-1.75a46.37,46.37,0,0,0-5.7,2.26,3,3,0,0,0-1.53,1.51A132.89,132.89,0,0,0,96.14,85.4a49.34,49.34,0,0,0-5.78,3.75c1.78-6.32,5.07-14.11,6.2-17.41,1.27-3.75-.3-3.46-3.41-3.1-2.48.29-6,2-10,4.73v0c1-2-1-3-3.46-2.94s-4.55,1.85-9.25,4.41c.91-1.38,0,0,1.71-3.36s-3-1.73-5.21-1a7.3,7.3,0,0,0-4.67,3.89,4.16,4.16,0,0,0-.24.65,44.13,44.13,0,0,1-5.49,4,38.75,38.75,0,0,0,1.85-4.16c1.11-3.34-.69-4.58-2.43-4.74a54.89,54.89,0,0,0-6.4.33C61.49,59.31,69.22,41.4,69.71,37.61a4.94,4.94,0,0,0-1.16-4.25,4,4,0,0,0-1.55-1,3.76,3.76,0,0,0-.88-.21l-.45,0-.44,0c-2.38.25-3.86.39-8,1.1S47.37,38.55,44.45,44c-2.82,5.26-6.07,15.28-8.53,25.34-1.23,5-2.26,10.06-3,14.52-.34,2.23-.59,4.31-.74,6.18,0,.46-.07.92-.1,1.36s0,.86-.05,1.26q0,1.23,0,2.25a3.36,3.36,0,0,0,3.48,3.49s3.24-.08,5-.06a7.15,7.15,0,0,0,4.83-1.78,26.41,26.41,0,0,0,4.24-5.3C51,90.46,55,87.57,58.36,85c-1.55,4.41-3.16,9.53-4.16,12.91-.24.85.25,1.42,1.11,1.27,2.13-.36,2.18-.4,3.13-.54a4.73,4.73,0,0,0,3.19-2.36c.67-1.71,4-10,5.17-13a11.18,11.18,0,0,1,1.76-3,15.74,15.74,0,0,1,4.13-2.82c3.06-1.58,1.73.64,1.73.65-1.24,3.18-5.77,15.42-7.33,19.67A1,1,0,0,0,68,99.1c1.63-.1,4.12-.28,4.75-.41,1-.19,1.39-.2,2.1-2.16.48-1.32,3.37-9.93,5.69-16.36a44.19,44.19,0,0,1,4.6-3.28c2.24-1.19,1.88.14,1.88.14s-5.32,15.4-6.18,18.28c-.68,2.26-.13,3.33,1.46,3.25a23.91,23.91,0,0,0,4.16-.7c1.83-.39,1.33-.69,2.15-1.69A33.48,33.48,0,0,1,94.57,91c-.75,2.8-1.24,4.84-1.37,5.36-.4,1.65.41,2,2.17,1.7a21.32,21.32,0,0,0,3.51-.62c.78-.32,1.23-.94,1.61-2.44,1.09-4.31,2.52-9.35,4.07-13.93,2.47-3.74,7.82-6.92,10-8.14.42-.24.86,0,.8.42a11.82,11.82,0,0,1-.64,3c-.36.47-.58,1.5.65,1.2a25.84,25.84,0,0,0,6.08-2.66c.44-2.52,1.17-5.83,1.38-6.89a11.23,11.23,0,0,0,.36-1.78c0-.53-.21-.88-1-.68ZM58.89,36.64c1.16-1,3.45-2.55,2.93,1.57C60.46,48.93,52.07,64,44.22,68.93,47.45,55.35,51,42.6,58.89,36.64ZM41.2,92.28a.62.62,0,0,1-1.08-.47c.32-4.61,1.22-8.63,1.62-11.76a58,58,0,0,1,6.11-5.8C51.46,71.29,50,76,50,76,49.82,80.78,45.26,88,41.2,92.28Z" fill="#fff"/></svg>