<svg id="dfc90978-567f-47ae-aec8-5a006a4384d2" data-name="Layer 1" xmlns="http://www.w3.org/2000/svg" viewBox="0 0 100 100"><title>logo-transparent</title><circle cx="50" cy="50" r="50" fill="#fff" opacity="0.07"/><path d="M80.41,50.36a17.42,17.42,0,0,0-3.49.72,21.69,21.69,0,0,0-5.77,3.24A16.39,16.39,0,0,1,72.87,51c.95-1.3,0-1.58-1.14-1.34a22.36,22.36,0,0,0-3.61,1.07,1.58,1.58,0,0,0-.94.9,85.25,85.25,0,0,0-2.92,9.53,24.45,24.45,0,0,0-3.6,2.05c1-3.91,2.84-8.82,3.47-11,.71-2.41-.29-2.33-2.29-2.25-1.59.07-3.8,1.08-6.29,2.7v0c.56-1.3-.72-2-2.33-2s-2.88,1.1-5.84,2.71a13.37,13.37,0,0,0,1-2.16c1-2.16-2-1.16-3.4-.66a4.36,4.36,0,0,0-2.9,2.52,2.54,2.54,0,0,0-.14.42,28,28,0,0,1-3.43,2.64,23.37,23.37,0,0,0,1.07-2.7c.61-2.17-.59-3-1.73-3a31.48,31.48,0,0,0-4.13.31c7.34-7.41,11.79-19.15,12-21.68s-1.55-3.72-3.08-3.53-2.5.32-5.13.87-6.26,3.7-8,7.3c-3.32,7-7.14,26.27-6.37,33.25A2.19,2.19,0,0,0,25.52,69s2.1-.15,3.25-.19a4.65,4.65,0,0,0,3.07-1.28,17,17,0,0,0,2.58-3.51c.81-.54,3.36-2.47,5.44-4.16C39,62.74,38.11,66,37.58,68.22a.6.6,0,0,0,.76.79c1.37-.27,1.4-.29,2-.39a2.94,2.94,0,0,0,2-1.54l2.93-8.3a6.6,6.6,0,0,1,1-1.94,9,9,0,0,1,2.58-1.77c1.93-1,1.14.44,1.14.44-.7,2.05-3.24,9.82-4.11,12.49a.64.64,0,0,0,.65.86c1-.06,2.65-.15,3-.23.62-.11.89-.11,1.29-1.33.27-.82,1.86-6.2,3.16-10.29a23.14,23.14,0,0,1,2.87-2c1.41-.69,1.22.17,1.22.17s-3,9.71-3.42,11.46c-.37,1.39,0,2.07,1,2.07a17.08,17.08,0,0,0,2.66-.29c1.16-.16.83-.37,1.33-1a16.78,16.78,0,0,1,3.65-2.9c-.39,1.71-.65,3-.72,3.27-.21,1,.32,1.25,1.44,1.18,2.1-.14,2.79.27,3.2-1.53.57-2.58,1.34-5.66,2.21-8.53,1.48-2.23,4.83-3.83,6.18-4.41a.39.39,0,0,1,.53.39,7.32,7.32,0,0,1-.34,1.92c-.22.28-.33,1,.44.89a12.9,12.9,0,0,0,3.82-1c.23-1.66.61-3.87.72-4.59S81.46,50.31,80.41,50.36ZM38.66,28.52c.72-.66,2.16-1.73,2,1-.55,7-5.5,16.92-10.43,20.27C31.83,40.93,33.72,32.57,38.66,28.52ZM29,64.93a.41.41,0,0,1-.72-.28c.06-3,.51-5.6.67-7.63a36,36,0,0,1,3.78-3.89c2.24-2,1.44,1.06,1.44,1.06C34.19,57.31,31.47,62.06,29,64.93Z" fill="#fff" opacity="0.25"/></svg>