<svg width="440" height="296" viewBox="0 0 440 296" fill="none" xmlns="http://www.w3.org/2000/svg">
<path d="M220 0C177.5 0 113.5 1.47726 93 7.99999C82 11.5 60.5 56 52.5 74L46 83L42.5 80C42.1667 78 40.3 74 35.5 74H10.5C7.00002 74 4 77.5 4 81.5C4 86 4.00002 89 4.50002 94.5C5.03163 100.348 6.9171 100.975 11.2152 102.405C11.309 102.436 11.4039 102.468 11.5 102.5C15.0134 103.671 32.1467 109.065 40.8703 110.873C38.4135 112.915 33 117.7 31 120.5C28.5 124 22 139 20 149.5C16.8 153.1 13 158 11.5 160C12 168.667 15 200.5 15 200.5L13 204L13.5 210L12.5 212C16 227.333 30.5 283 36 283H122.5C128.5 283 134.333 280.167 136.5 279H303.5C305.667 280.167 311.5 283 317.5 283H404C409.5 283 424 227.333 427.5 212L426.5 210L427 204L425 200.5C425 200.5 428 168.667 428.5 160C427 158 423.2 153.1 420 149.5C418 139 411.5 124 409 120.5C407 117.7 401.586 112.915 399.13 110.873C407.853 109.065 424.987 103.671 428.5 102.5L428.785 102.405C433.083 100.975 434.968 100.348 435.5 94.5C436 89 436 86 436 81.5C436 77.5 433 74 429.5 74H404.5C399.7 74 397.833 78 397.5 80L394 83L387.5 74C379.5 56 358 11.5 347 7.99999C326.5 1.47726 262.5 0 220 0Z" fill="#C4C4C4"/>
<path fill-rule="evenodd" clip-rule="evenodd" d="M52 247H220H388C387.873 247.633 387.584 248.707 387.207 250.103C386.592 252.385 385.745 255.526 385 259C383.5 266 378 268 374 268H220H66C62 268 56.5 266 55 259C54.2555 255.526 53.4083 252.385 52.7929 250.103C52.4163 248.707 52.1265 247.633 52 247Z" fill="#2E2E2E"/>
<path fill-rule="evenodd" clip-rule="evenodd" d="M425.495 209L427.495 211.057C427.662 215.171 426.395 223.606 423.996 224.429C420.996 225.457 413.996 227 405.496 227H220H34.5C26 227 19 225.5 16 224.5C13.6 223.7 12.3333 215.5 12.5 211.5L14.5 209.5C18.5 210.5 25.5 211.5 31.5 211.5C32.9023 211.5 40.4223 211.473 51.9473 211.431C89.7344 211.294 170.575 211 220 211C269.424 211 350.263 211.034 388.049 211.049C399.574 211.054 407.094 211.057 408.496 211.057C414.496 211.057 421.496 210.029 425.495 209Z" fill="#2E2E2E"/>
<path fill-rule="evenodd" clip-rule="evenodd" d="M59 161H51.5C48 161 41 162.2 39 173C36.7075 185.38 37.5263 188.93 37.9093 190.59L37.9094 190.59C37.944 190.741 37.9751 190.876 38 191C38.3 192.5 39.5 195 42 195H64.3979C68.0623 198.118 72.8114 200 78 200C83.1886 200 87.9377 198.118 91.6021 195H106.398C110.062 198.118 114.811 200 120 200C125.189 200 129.938 198.118 133.602 195H169.5C171.001 195 175.02 194 174 186.5C172.98 179 171.5 164 174 161H144H130.823H109.177H88.8228H67.1772H59ZM191 161.5C183.5 161.5 180.5 164.5 180.5 170.5C180.5 176.5 181 187.5 182 191.5C182.045 191.681 182.09 191.861 182.134 192.04L182.135 192.046C183.06 195.813 183.843 199 191 199H210.5C216 199 218.5 194.5 218.5 191.5V170.5C218.5 166.5 216 161.5 210.5 161.5H191Z" fill="#2E2E2E"/>
<path fill-rule="evenodd" clip-rule="evenodd" d="M380.499 161H387.999C391.499 161 398.499 162.2 400.499 173C402.791 185.38 401.972 188.93 401.589 190.59L401.589 190.59L401.589 190.591C401.555 190.741 401.524 190.876 401.499 191C401.199 192.5 399.999 195 397.499 195H375.101C371.437 198.118 366.688 200 361.499 200C356.31 200 351.561 198.118 347.897 195H333.101C329.437 198.118 324.688 200 319.499 200C314.311 200 309.562 198.118 305.897 195H270C268.499 195 264.48 194 265.5 186.5C266.52 179 268 164 265.5 161H295.499H308.677H330.322H350.676H372.322H380.499ZM248.5 161.5C256 161.5 259 164.5 259 170.5C259 176.5 258.5 187.5 257.5 191.5L257.471 191.617L257.442 191.733L257.365 192.046C256.439 195.813 255.656 199 248.5 199H229C223.5 199 221 194.5 221 191.5V170.5C221 166.5 223.5 161.5 229 161.5H248.5Z" fill="#2E2E2E"/>
<path d="M94.5 247H52C52.3333 248.667 53.8 253.4 55 259C56.5 266 62 268 66 268H98L94.5 247Z" fill="white"/>
<path d="M345.5 247H388C387.667 248.667 386.2 253.4 385 259C383.5 266 378 268 374 268H342L345.5 247Z" fill="white"/>
<path fill-rule="evenodd" clip-rule="evenodd" d="M62.9002 163H53C46 163 42.6494 165.902 41 172.5C39.5 178.5 38 193 42 193H61.0286C57.8873 189.196 56 184.319 56 179C56 172.696 58.6516 167.011 62.9002 163Z" fill="white"/>
<circle cx="120" cy="179" r="18" fill="white"/>
<circle cx="78" cy="179" r="18" fill="white"/>
<circle cx="7" cy="7" r="7" transform="matrix(-1 0 0 1 85 172)" fill="#C4C4C4"/>
<path d="M88 185.636C85.8502 188.869 82.1739 191 78 191C73.8261 191 70.1498 188.869 68 185.636" stroke="#C4C4C4" stroke-width="4"/>
<path fill-rule="evenodd" clip-rule="evenodd" d="M376.102 163H386.003C393.003 163 396.354 165.902 398.003 172.5C399.503 178.5 401.003 193 397.003 193H377.974C381.115 189.196 383.003 184.319 383.003 179C383.003 172.696 380.351 167.011 376.102 163Z" fill="white"/>
<ellipse cx="18.0006" cy="18" rx="18.0006" ry="18" transform="matrix(-1 0 0 1 337.001 161)" fill="white"/>
<ellipse cx="18.0006" cy="18" rx="18.0006" ry="18" transform="matrix(-1 0 0 1 379.003 161)" fill="white"/>
<circle cx="7" cy="7" r="7" transform="matrix(-1 0 0 1 368 172)" fill="#C4C4C4"/>
<path d="M371 185.636C368.85 188.869 365.174 191 361 191C356.826 191 353.15 188.869 351 185.636" stroke="#C4C4C4" stroke-width="4"/>
<path d="M219.5 100.001C130.731 100.034 65.6057 103.034 48 109C55.5877 89 82.9035 28 88.9737 23.5C95.9341 18.34 160.555 15.1121 218 15.0029V15C218.499 15 218.999 15.0002 219.5 15.0007C220.001 15.0002 220.501 15 221 15V15.0029C278.445 15.1121 343.066 18.34 350.026 23.5C356.096 28 383.412 89 391 109C373.394 103.034 308.269 100.034 219.5 100.001Z" fill="#6C6C6C"/>
<ellipse cx="219" cy="143" rx="11" ry="4" fill="#2E2E2E"/>
<path d="M172.5 162C172.5 155.5 199 156.5 218 156.5C237 156.5 266.5 155.5 266.5 161" stroke="#2E2E2E" stroke-width="2"/>
<path d="M9.5 204.5H431" stroke="#2E2E2E" stroke-width="3"/>
</svg>
