<svg width="510" height="311" viewBox="0 0 510 311" fill="none" xmlns="http://www.w3.org/2000/svg">
<g clip-path="url(#clip0_52_91)">
<rect width="510" height="311" fill="white"/>
<path d="M114 311H46L39 305L44 190.5L51 184H119L126 190.5L121 305L114 311Z" fill="#2E2E2E"/>
<path d="M463 311H395L388 305L383 190.5L390 184H458L465 190.5L470 305L463 311Z" fill="#2E2E2E"/>
<path d="M391.672 13H118.394L75 111H433L391.672 13Z" fill="#6C6C6C"/>
<path fill-rule="evenodd" clip-rule="evenodd" d="M254.75 0.00789606C257.138 0.00266444 259.555 0 262 0L262.001 0.0319771C321.055 0.295679 361.035 2.14784 374 4C388 6 394.5 12 397 17C399.5 22 422 77.5 427.5 91.5H451.5C453.167 91.3333 456.8 91.6 458 94H463.5V73C463.5 69 466.5 66.5 471 66.5H489.5C493 66.5 496.5 68 498.5 70.5C499.5 71.75 500.875 73.5 502.25 75.25C503.625 77 505 78.75 506 80C508 82.5 509.5 86 509.5 91.5V117.5C509.5 120.5 509 125 503.5 126C498 127 479 129 474 129C470 129 468 128 467.5 127.5H462C460.833 128.833 457.3 131.5 452.5 131.5C447.7 131.5 445.5 132.5 445 133C447.167 144.833 451.5 171 451.5 181C451.5 185.98 449.992 191.436 448.178 198.001C445.438 207.914 442 220.355 442 237.5H272.5H237H67.5C67.5 220.355 64.0619 207.914 61.3223 198.001C59.508 191.436 58 185.98 58 181C58 171 62.3333 144.833 64.5 133C64 132.5 61.8 131.5 57 131.5C52.2 131.5 48.6667 128.833 47.5 127.5H42C41.5 128 39.5 129 35.5 129C30.5 129 11.5 127 6 126C0.5 125 0 120.5 0 117.5V91.5C0 86 1.5 82.5 3.5 80C4.5 78.75 5.875 77 7.25 75.25C8.625 73.5 10 71.75 11 70.5C13 68 16.5 66.5 20 66.5H38.5C43 66.5 46 69 46 73V94H51.5C52.7 91.6 56.3333 91.3333 58 91.5H82C87.5 77.5 110 22 112.5 17C115 12 121.5 6 135.5 4C148.465 2.14784 188.445 0.295679 247.499 0.0319771L247.5 0C249.945 0 252.362 0.00266444 254.75 0.00789606ZM254.75 16.1537C220.33 16.8022 146.024 19.4011 123.5 22C109.5 42.5 98 74.5 86.5 107.5C135.376 104.947 197.555 103.458 242.953 102.839L242.965 102.582C246.688 102.611 250.626 102.648 254.75 102.693C258.874 102.648 262.812 102.611 266.535 102.582L266.547 102.839C311.945 103.458 374.124 104.947 423 107.5C414.5 73 402.5 46.5 386 22C363.476 19.4011 289.17 16.8022 254.75 16.1537ZM45.5 118V103.5H50L54 106.5L74 109L71 116H52.5L48.5 118H45.5ZM463.5 103V118H460.5L456.5 115.931H438L435 108.69L455 106.103L459 103H463.5Z" fill="#C4C4C4"/>
<path fill-rule="evenodd" clip-rule="evenodd" d="M68.5 234C65 234 64 235.5 64 238V261.5C64 267 66.5 273 68 276.5C69.5 280 76.5 295 80.5 295C83 293 85 292.5 86.5 292.5C88 292.5 102.5 294 111.5 295C114.5 295.333 118.667 295.889 123.111 296.481C132 297.667 142 299 146 299C149 299 151.875 298.5 154.75 298C157.625 297.5 160.5 297 163.5 297H238H271H345.5C348.5 297 351.375 297.5 354.25 298C357.125 298.5 360 299 363 299C367 299 377 297.667 385.889 296.481C390.333 295.889 394.5 295.333 397.5 295C406.5 294 421 292.5 422.5 292.5C424 292.5 426 293 428.5 295C432.5 295 439.5 280 441 276.5C442.5 273 445 267 445 261.5V238C445 235.5 444 234 440.5 234H271H238H68.5Z" fill="#C4C4C4"/>
<path d="M87.8761 250H123.407C126.005 250 128.169 251.988 128.389 254.576L129.484 267.434C129.751 270.574 127.082 273.176 123.95 272.828L88.7753 268.919C86.5439 268.672 84.7513 266.967 84.392 264.75L82.9406 255.8C82.4474 252.759 84.7953 250 87.8761 250Z" fill="#2E2E2E"/>
<path d="M421.103 250H385.584C382.991 250 380.828 251.983 380.603 254.567L379.527 266.938C379.254 270.077 381.917 272.683 385.049 272.342L420.228 268.517C422.458 268.274 424.254 266.576 424.62 264.363L426.036 255.817C426.541 252.771 424.191 250 421.103 250Z" fill="#2E2E2E"/>
<path d="M359.075 251H148.425C145.503 251 143.204 253.495 143.441 256.407L144.625 270.907C144.837 273.502 147.005 275.5 149.608 275.5H186.017C186.666 275.5 187.309 275.374 187.91 275.128L197.09 271.372C197.691 271.126 198.334 271 198.983 271H309.517C310.166 271 310.809 271.126 311.41 271.372L320.59 275.128C321.191 275.374 321.834 275.5 322.483 275.5H357.892C360.495 275.5 362.663 273.502 362.875 270.907L364.059 256.407C364.296 253.495 361.997 251 359.075 251Z" fill="#2E2E2E"/>
<path d="M87 150.5H143.5V233.5H138.5C135 233.5 134 236 131 236H97.5C94 236 92.5 231.5 89.5 231.5H83.5C82.6667 208.333 81 161.2 81 158C81 154 82.5 150.5 87 150.5Z" fill="white" stroke="#2E2E2E" stroke-width="3"/>
<path d="M422.5 151H366V233.515H371C374.5 233.515 375.5 236 378.5 236H412C415.5 236 417 231.526 420 231.526H426C426.833 208.495 428.5 161.637 428.5 158.456C428.5 154.48 427 151 422.5 151Z" fill="white" stroke="#2E2E2E" stroke-width="3"/>
<rect x="143" y="148" width="223" height="88" rx="4" fill="#2E2E2E"/>
<rect x="122.5" y="168.5" width="264" height="47" rx="2.5" fill="#C4C4C4" stroke="#2E2E2E" stroke-width="3"/>
<path d="M172 190H145V193.5H172L175 196.5H332L335 193.5H363V190H335L332 187H175L172 190Z" fill="#2E2E2E"/>
<path d="M286.5 192C286.5 193.579 285.781 195.199 284.245 196.801C282.703 198.41 280.399 199.927 277.436 201.234C271.515 203.846 263.231 205.5 254 205.5C244.769 205.5 236.485 203.846 230.564 201.234C227.601 199.927 225.297 198.41 223.755 196.801C222.219 195.199 221.5 193.579 221.5 192C221.5 190.421 222.219 188.801 223.755 187.199C225.297 185.59 227.601 184.073 230.564 182.766C236.485 180.154 244.769 178.5 254 178.5C263.231 178.5 271.515 180.154 277.436 182.766C280.399 184.073 282.703 185.59 284.245 187.199C285.781 188.801 286.5 190.421 286.5 192Z" fill="#2E2E2E" stroke="#C4C4C4" stroke-width="3"/>
<path d="M86.1475 188.143C86.0667 185.327 88.3279 183 91.1454 183H118V201H91.3748C88.6692 201 86.4544 198.848 86.3769 196.143L86.1475 188.143Z" fill="#C4C4C4"/>
<path d="M422.853 188.143C422.933 185.327 420.672 183 417.855 183H391V201H417.625C420.331 201 422.546 198.848 422.623 196.143L422.853 188.143Z" fill="#C4C4C4"/>
</g>
<defs>
<clipPath id="clip0_52_91">
<rect width="510" height="311" fill="white"/>
</clipPath>
</defs>
</svg>
