<svg width="510" height="326" viewBox="0 0 510 326" fill="none" xmlns="http://www.w3.org/2000/svg">
<rect width="510" height="326" fill="white"/>
<path d="M114 326H46L39 320L44 205.5L51 199H119L126 205.5L121 320L114 326Z" fill="#2E2E2E"/>
<path d="M463 326H395L388 320L383 205.5L390 199H458L465 205.5L470 320L463 326Z" fill="#2E2E2E"/>
<path d="M386.5 28H122L80 126H426.5L386.5 28Z" fill="#6C6C6C"/>
<path fill-rule="evenodd" clip-rule="evenodd" d="M254.75 15.0079C257.138 15.0027 259.555 15 262 15L262.001 15.032C321.055 15.2957 361.035 17.1478 374 19C388 21 394.5 27 397 32C399.5 37 422 92.5 427.5 106.5H451.5C453.167 106.333 456.8 106.6 458 109H463.5V88C463.5 84 466.5 81.5 471 81.5H489.5C493 81.5 496.5 83 498.5 85.5C499.5 86.75 500.875 88.5 502.25 90.25C503.625 92 505 93.75 506 95C508 97.5 509.5 101 509.5 106.5V132.5C509.5 135.5 509 140 503.5 141C498 142 479 144 474 144C470 144 468 143 467.5 142.5H462C460.833 143.833 457.3 146.5 452.5 146.5C447.7 146.5 445.5 147.5 445 148C447.167 159.833 451.5 186 451.5 196C451.5 200.98 449.992 206.436 448.178 213.001C445.438 222.914 442 235.355 442 252.5H272.5H237H67.5C67.5 235.355 64.0619 222.914 61.3223 213.001C59.508 206.436 58 200.98 58 196C58 186 62.3333 159.833 64.5 148C64 147.5 61.8 146.5 57 146.5C52.2 146.5 48.6667 143.833 47.5 142.5H42C41.5 143 39.5 144 35.5 144C30.5 144 11.5 142 6 141C0.5 140 0 135.5 0 132.5V106.5C0 101 1.5 97.5 3.5 95C4.5 93.75 5.875 92 7.25 90.25C8.625 88.5 10 86.75 11 85.5C13 83 16.5 81.5 20 81.5H38.5C43 81.5 46 84 46 88V109H51.5C52.7 106.6 56.3333 106.333 58 106.5H82C87.5 92.5 110 37 112.5 32C115 27 121.5 21 135.5 19C148.465 17.1478 188.445 15.2957 247.499 15.032L247.5 15C249.945 15 252.362 15.0027 254.75 15.0079ZM254.75 31.1537C220.33 31.8022 146.024 34.4011 123.5 37C116.5 50.5 101.5 82 92.5 118.5C145.502 115.731 210.394 115.466 254.75 115.476C299.106 115.466 363.998 115.731 417 118.5C408 82 393 50.5 386 37C363.476 34.4011 289.17 31.8022 254.75 31.1537ZM45.5 133V118.5H50L54 121.5L74 124L71 131H52.5L48.5 133H45.5ZM463.5 118V133H460.5L456.5 130.931H438L435 123.69L455 121.103L459 118H463.5Z" fill="#C4C4C4"/>
<path fill-rule="evenodd" clip-rule="evenodd" d="M68.5 249C65 249 64 250.5 64 253V276.5C64 282 66.5 288 68 291.5C69.5 295 76.5 310 80.5 310C83 308 85 307.5 86.5 307.5C88 307.5 102.5 309 111.5 310C114.5 310.333 118.667 310.889 123.111 311.481C132 312.667 142 314 146 314C149 314 151.875 313.5 154.75 313C157.625 312.5 160.5 312 163.5 312H238H271H345.5C348.5 312 351.375 312.5 354.25 313C357.125 313.5 360 314 363 314C367 314 377 312.667 385.889 311.481C390.333 310.889 394.5 310.333 397.5 310C406.5 309 421 307.5 422.5 307.5C424 307.5 426 308 428.5 310C432.5 310 439.5 295 441 291.5C442.5 288 445 282 445 276.5V253C445 250.5 444 249 440.5 249H271H238H68.5Z" fill="#C4C4C4"/>
<path d="M87.8761 265H123.407C126.005 265 128.169 266.988 128.389 269.576L129.484 282.434C129.751 285.574 127.082 288.176 123.95 287.828L88.7753 283.919C86.5439 283.672 84.7513 281.967 84.392 279.75L82.9406 270.8C82.4474 267.759 84.7953 265 87.8761 265Z" fill="#2E2E2E"/>
<path d="M421.103 265H385.584C382.991 265 380.828 266.983 380.603 269.567L379.527 281.938C379.254 285.077 381.917 287.683 385.049 287.342L420.228 283.517C422.458 283.274 424.254 281.576 424.62 279.363L426.036 270.817C426.541 267.771 424.191 265 421.103 265Z" fill="#2E2E2E"/>
<path d="M359.075 266H148.425C145.503 266 143.204 268.495 143.441 271.407L144.625 285.907C144.837 288.502 147.005 290.5 149.608 290.5H186.017C186.666 290.5 187.309 290.374 187.91 290.128L197.09 286.372C197.691 286.126 198.334 286 198.983 286H309.517C310.166 286 310.809 286.126 311.41 286.372L320.59 290.128C321.191 290.374 321.834 290.5 322.483 290.5H357.892C360.495 290.5 362.663 288.502 362.875 285.907L364.059 271.407C364.296 268.495 361.997 266 359.075 266Z" fill="#2E2E2E"/>
<path d="M87 165.5H143.5V248.5H138.5C135 248.5 134 251 131 251H97.5C94 251 92.5 246.5 89.5 246.5H83.5C82.6667 223.333 81 176.2 81 173C81 169 82.5 165.5 87 165.5Z" fill="white" stroke="#2E2E2E" stroke-width="3"/>
<path d="M422.5 166H366V248.515H371C374.5 248.515 375.5 251 378.5 251H412C415.5 251 417 246.526 420 246.526H426C426.833 223.495 428.5 176.637 428.5 173.456C428.5 169.48 427 166 422.5 166Z" fill="white" stroke="#2E2E2E" stroke-width="3"/>
<rect x="143" y="163" width="223" height="88" rx="4" fill="#2E2E2E"/>
<rect x="122.5" y="183.5" width="264" height="47" rx="2.5" fill="#C4C4C4" stroke="#2E2E2E" stroke-width="3"/>
<path d="M172 205H145V208.5H172L175 211.5H332L335 208.5H363V205H335L332 202H175L172 205Z" fill="#2E2E2E"/>
<path d="M286.5 207C286.5 208.579 285.781 210.199 284.245 211.801C282.703 213.41 280.399 214.927 277.436 216.234C271.515 218.846 263.231 220.5 254 220.5C244.769 220.5 236.485 218.846 230.564 216.234C227.601 214.927 225.297 213.41 223.755 211.801C222.219 210.199 221.5 208.579 221.5 207C221.5 205.421 222.219 203.801 223.755 202.199C225.297 200.59 227.601 199.073 230.564 197.766C236.485 195.154 244.769 193.5 254 193.5C263.231 193.5 271.515 195.154 277.436 197.766C280.399 199.073 282.703 200.59 284.245 202.199C285.781 203.801 286.5 205.421 286.5 207Z" fill="#2E2E2E" stroke="#C4C4C4" stroke-width="3"/>
<path d="M86.1475 203.143C86.0667 200.327 88.3279 198 91.1454 198H118V216H91.3748C88.6692 216 86.4544 213.848 86.3769 211.143L86.1475 203.143Z" fill="#C4C4C4"/>
<path d="M422.853 203.143C422.933 200.327 420.672 198 417.855 198H391V216H417.625C420.331 216 422.546 213.848 422.623 211.143L422.853 203.143Z" fill="#C4C4C4"/>
</svg>
